<svg width="33" height="32" viewBox="0 0 33 32" fill="none" xmlns="http://www.w3.org/2000/svg">
<path fill-rule="evenodd" clip-rule="evenodd" d="M27.9991 32H4.24116C1.89842 32 0 30.1157 0 27.7905V4.20955C0 1.88427 1.89842 0 4.24116 0H28.0006C30.3434 0 32.2418 1.88427 32.2418 4.20955V27.7919C32.2403 30.1157 30.3419 32 27.9991 32Z" fill="white"/>
<path d="M24.835 9.54162L23.8342 8.96847L10.6245 16.5041V12.8781L20.6687 7.15398L17.3939 5.27713C16.604 4.82425 15.6301 4.82425 14.8402 5.27713L7.39913 9.54162C6.60925 9.9945 6.12305 10.8305 6.12305 11.7362V20.2637C6.12305 21.1695 6.60925 22.0054 7.39913 22.4583L8.41492 23.0404L21.6246 15.5226L21.6411 19.1367L11.5969 24.8623L14.8417 26.7213C15.6316 27.1742 16.6055 27.1742 17.3954 26.7213L24.8365 22.4568C25.6264 22.004 26.1126 21.168 26.1126 20.2622V11.7362C26.1111 10.8305 25.6249 9.9945 24.835 9.54162Z" fill="#169B5B"/>
</svg>
