<svg width="15" height="15" viewBox="0 0 15 15" fill="none" xmlns="http://www.w3.org/2000/svg">
<path d="M9.17613 6.19086C9.75897 5.70745 10.1309 4.97807 10.1309 4.16345C10.1308 2.71142 8.94951 1.53009 7.49746 1.53009C6.04542 1.53009 4.86411 2.71142 4.86411 4.16345C4.86411 4.35324 4.88447 4.53835 4.92281 4.71687C4.77285 4.69025 4.6186 4.67631 4.46112 4.67631C3.00907 4.67631 1.82776 5.85764 1.82776 7.30966C1.82776 8.12422 2.19958 8.85352 2.78233 9.33696C1.15212 10.0016 0 11.6036 0 13.4699H0.934255C0.934255 11.5252 2.51639 9.94304 4.46109 9.94304C5.91314 9.94304 7.09445 8.76171 7.09445 7.30969C7.09445 7.11989 7.07409 6.93476 7.03574 6.75624C7.1857 6.78286 7.33996 6.7968 7.49744 6.7968C8.81078 6.7968 9.17613 6.19086 9.17613 6.19086ZM4.46112 9.00876C3.52425 9.00876 2.76202 8.24656 2.76202 7.30966C2.76202 6.37277 3.52425 5.61056 4.46112 5.61056C5.39799 5.61056 6.16022 6.37279 6.16022 7.30966C6.16022 8.24653 5.39799 9.00876 4.46112 9.00876ZM7.49746 5.86252C6.56059 5.86252 5.79837 5.10032 5.79837 4.16342C5.79837 3.22653 6.56059 2.46435 7.49746 2.46435C8.43433 2.46435 9.19656 3.22655 9.19656 4.16345C9.19656 5.10036 8.43436 5.86252 7.49746 5.86252Z" fill="#348F6C"/>
<path d="M2.58834 6.92188C2.58009 6.92407 2.58834 6.97439 2.58834 6.97439L2.90735 5.71181L3.88496 4.79505C4.03492 4.76843 4.30442 4.67633 4.4619 4.67633C5.91394 4.67633 7.09525 5.85766 7.09525 7.30968C7.09525 8.12424 6.72343 8.85354 6.14068 9.33698C7.77089 10.0016 8.92301 11.6036 8.92301 13.4699H7.98876C7.98876 11.5252 6.40663 9.94306 4.46192 9.94306C3.00988 9.94306 1.82857 8.76173 1.82857 7.30971C1.82857 7.11991 2.58834 6.92188 2.58834 6.92188ZM4.4619 9.00878C5.39877 9.00878 6.161 8.24658 6.161 7.30968C6.161 6.37279 5.39877 5.61058 4.4619 5.61058C3.52503 5.61058 2.7628 6.37281 2.7628 7.30968C2.7628 8.24655 3.52503 9.00878 4.4619 9.00878ZM2.61899 6.17927L2.58834 6.97439L2.90735 5.71181L2.61899 6.17927Z" fill="#348F6C"/>
<path d="M5.82387 6.19086C5.24103 5.70745 4.86913 4.97807 4.86913 4.16345C4.86916 2.71142 6.05049 1.53009 7.50254 1.53009C8.95458 1.53009 10.1359 2.71142 10.1359 4.16345C10.1359 4.35324 10.1155 4.53835 10.0772 4.71687C10.2271 4.69025 10.3814 4.67631 10.5389 4.67631C11.9909 4.67631 13.1722 5.85764 13.1722 7.30966C13.1722 8.12422 12.8004 8.85352 12.2177 9.33696C13.8479 10.0016 15 11.6036 15 13.4699H14.0657C14.0657 11.5252 12.4836 9.94304 10.5389 9.94304C9.08686 9.94304 7.90555 8.76171 7.90555 7.30969C7.90555 7.11989 7.92591 6.93476 7.96426 6.75624C7.8143 6.78286 7.66004 6.7968 7.50256 6.7968C6.18922 6.7968 5.82387 6.19086 5.82387 6.19086ZM10.5389 9.00876C11.4758 9.00876 12.238 8.24656 12.238 7.30966C12.238 6.37277 11.4758 5.61056 10.5389 5.61056C9.60201 5.61056 8.83978 6.37279 8.83978 7.30966C8.83978 8.24653 9.60201 9.00876 10.5389 9.00876ZM7.50254 5.86252C8.43941 5.86252 9.20163 5.10032 9.20163 4.16342C9.20163 3.22653 8.43941 2.46435 7.50254 2.46435C6.56566 2.46435 5.80344 3.22655 5.80344 4.16345C5.80344 5.10036 6.56564 5.86252 7.50254 5.86252Z" fill="#348F6C"/>
<path fill-rule="evenodd" clip-rule="evenodd" d="M12.4116 6.97439C12.4116 6.97439 12.4199 6.92407 12.4116 6.92188C12.4116 6.92188 13.1714 7.11991 13.1714 7.30971C13.1714 8.76173 11.9901 9.94306 10.538 9.94306C9.24527 9.94306 8.11274 10.6422 7.49868 11.6822C7.3485 11.3966 7.06235 11.0842 6.88523 10.9118C7.37524 10.2143 8.05976 9.66293 8.85927 9.33698C8.27652 8.85354 7.9047 8.12424 7.9047 7.30968C7.9047 5.85766 9.08601 4.67633 10.5381 4.67633C10.6398 4.67633 10.7884 4.7148 10.9213 4.7492C10.994 4.76803 11.0619 4.78563 11.115 4.79505L12.0926 5.71181L12.381 6.17927L12.4116 6.97439ZM8.83895 7.30968C8.83895 8.24658 9.60118 9.00878 10.5381 9.00878C11.4749 9.00878 12.2372 8.24655 12.2372 7.30968C12.2372 6.37281 11.4749 5.61058 10.5381 5.61058C9.60118 5.61058 8.83895 6.37279 8.83895 7.30968Z" fill="#348F6C"/>
</svg>
