<svg width="28" height="35" viewBox="0 0 28 35" fill="none" xmlns="http://www.w3.org/2000/svg">
<path d="M13.7881 16.4903C16.009 16.4903 17.9322 15.6778 19.5036 14.0747C21.075 12.4718 21.8715 10.5106 21.8715 8.24489C21.8715 5.97995 21.075 4.0185 19.5033 2.41512C17.9317 0.812527 16.0088 0 13.7881 0C11.5668 0 9.64416 0.812527 8.07279 2.41538C6.50141 4.01823 5.70459 5.97969 5.70459 8.24489C5.70459 10.5106 6.50141 12.4721 8.07304 14.0749C9.64467 15.6775 11.5676 16.4903 13.7881 16.4903Z" fill="white"/>
<path d="M27.9321 26.3238C27.8868 25.6567 27.7952 24.9291 27.6602 24.1607C27.524 23.3866 27.3486 22.6547 27.1387 21.9859C26.9218 21.2945 26.6268 20.6118 26.2622 19.9575C25.8838 19.2785 25.4393 18.6872 24.9405 18.2006C24.4189 17.6916 23.7803 17.2823 23.0419 16.9838C22.306 16.6868 21.4905 16.5364 20.6181 16.5364C20.2755 16.5364 19.9442 16.6798 19.3043 17.1047C18.9105 17.3667 18.4499 17.6696 17.9357 18.0047C17.4961 18.2904 16.9005 18.5581 16.1649 18.8005C15.4472 19.0374 14.7185 19.1576 13.9992 19.1576C13.28 19.1576 12.5515 19.0374 11.8331 18.8005C11.0982 18.5584 10.5026 18.2907 10.0635 18.005C9.55422 17.673 9.09333 17.37 8.69364 17.1044C8.05454 16.6795 7.72295 16.5361 7.38036 16.5361C6.50775 16.5361 5.69248 16.6868 4.95686 16.984C4.21892 17.282 3.58008 17.6913 3.058 18.2009C2.55947 18.6877 2.11471 19.2787 1.73678 19.9575C1.37242 20.6118 1.07745 21.2943 0.860325 21.9861C0.650621 22.655 0.475227 23.3866 0.339009 24.1607C0.204071 24.928 0.112406 25.6559 0.0670849 26.3246C0.0225323 26.9796 0 27.6594 0 28.3461C0 30.1331 0.556907 31.5797 1.6551 32.6467C2.73973 33.6995 4.17488 34.2336 5.92011 34.2336H22.0799C23.8251 34.2336 25.2598 33.6997 26.3446 32.6467C27.4431 31.5805 28 30.1336 28 28.3458C27.9997 27.656 27.977 26.9757 27.9321 26.3238Z" fill="white"/>
</svg>
