<svg width="144" height="248" viewBox="0 0 144 248" fill="none" xmlns="http://www.w3.org/2000/svg">
<mask id="mask0" mask-type="alpha" maskUnits="userSpaceOnUse" x="0" y="0" width="144" height="248">
<rect width="144" height="248" fill="#C4C4C4"/>
</mask>
<g mask="url(#mask0)">
</g>
<g clip-path="url(#clip0)">
<path d="M-4.37309 178C-4.37309 168.041 -37.3268 124.394 -10.4486 115.126C12.5844 107.205 32.3874 123.671 48.5759 127.78C73.0701 133.926 99.8329 150.458 84.4904 178H-4.37309Z" fill="#33AE47"/>
<path d="M157.035 171.933C161.594 166.422 168.818 149.502 153.528 144.518C134.521 138.304 139.641 127.563 126.526 128.967C113.375 130.371 107.028 136.654 105.52 146.834C104.012 157.014 112.078 171.933 112.078 171.933H157.035Z" fill="#F27F97"/>
<path d="M79.769 141.836C79.769 141.836 82.9077 126.813 90.8938 113.922C98.8798 101.03 110.946 94.0781 116.282 102.393C121.617 110.708 95.4971 125.87 90.8938 148.683L79.769 141.836Z" fill="url(#paint0_linear)"/>
<path d="M104.774 109.52C92.3587 121.258 85.7676 145.504 85.7676 145.504" stroke="#F9F9F9" stroke-width="0.9696" stroke-miterlimit="10" stroke-linecap="round"/>
<path d="M32.022 143.565C32.022 143.565 29.5752 131.854 23.3494 121.804C17.1237 111.754 7.71712 106.335 3.55757 112.817C-0.601986 119.299 19.7608 131.119 23.3494 148.903L32.022 143.565Z" fill="url(#paint1_linear)"/>
<path d="M12.529 118.373C22.2074 127.524 27.3457 146.425 27.3457 146.425" stroke="#F9F9F9" stroke-width="0.9696" stroke-miterlimit="10" stroke-linecap="round"/>
<path d="M33.1937 142.379C33.1937 142.379 37.7528 132.457 38.6374 121.704C39.522 110.951 35.5601 101.87 28.9905 104.369C22.4209 106.869 30.9498 126.592 23.933 141.59L33.1937 142.379Z" fill="#EBAFDF"/>
<path d="M32.5593 113.315C34.696 125.282 28.2105 141.94 28.2105 141.94" stroke="#F9F9F9" stroke-width="0.9696" stroke-miterlimit="10" stroke-linecap="round"/>
<path d="M76.3164 139.181C76.3164 139.181 82.2101 81.5361 112.794 59.5264" stroke="#F08888" stroke-width="0.9696" stroke-miterlimit="10" stroke-linecap="round" stroke-linejoin="round"/>
<path d="M109.899 61.7973C112.166 59.6662 113.84 54.7751 117.467 52.644C121.059 50.5129 123.221 54.1812 120.501 56.2424C117.781 58.3386 109.899 61.7973 109.899 61.7973Z" fill="#F08888"/>
<path d="M100.728 71.4046C102.262 69.1338 102.751 65.5005 102.018 62.461C101.286 59.3866 103.413 55.7882 106.064 57.6049C108.749 59.4216 100.728 71.4046 100.728 71.4046Z" fill="#F08888"/>
<path d="M100.135 72.1732C102.611 69.7976 108.61 72.9768 110.528 71.9986C113.422 70.5313 113.143 67.6316 110.005 67.0726C106.168 66.3739 100.135 72.1732 100.135 72.1732Z" fill="#F08888"/>
<path d="M93.5788 82.4096C94.7994 79.2305 92.6372 75.7368 91.7305 73.1865C90.5099 69.7977 93.8926 66.5836 95.9153 70.3916C97.9729 74.1298 93.5788 82.4096 93.5788 82.4096Z" fill="#F08888"/>
<path d="M90.6846 87.9993C92.3934 85.1695 95.2879 84.5756 98.2173 85.1345C101.914 85.8682 105.227 85.0297 104.739 82.0602C104.216 79.0906 98.1824 79.8592 95.7413 81.6759C93.2304 83.5275 90.6846 87.9993 90.6846 87.9993Z" fill="#F08888"/>
<path d="M85.3137 100.891C86.8482 96.8032 82.5936 93.5192 80.1175 91.6327C76.9091 89.1872 78.1995 84.6455 83.0818 86.8464C89.8124 89.8509 85.3137 100.891 85.3137 100.891Z" fill="#F08888"/>
<path d="M83.082 107.633C84.1631 105.467 86.674 102.847 89.8824 103.231C93.0908 103.616 98.2521 102.113 97.9382 98.7247C97.6244 95.3359 92.4282 95.6154 89.1849 98.2006C86.1858 100.576 83.082 107.633 83.082 107.633Z" fill="#F08888"/>
<path d="M31.7837 145.181C31.7837 145.181 28.1885 110.017 9.53198 96.5911" stroke="#F08888" stroke-width="0.9696" stroke-miterlimit="10" stroke-linecap="round" stroke-linejoin="round"/>
<path d="M11.2979 97.9764C9.9151 96.6764 8.89399 93.6928 6.68159 92.3928C4.49046 91.0929 3.17152 93.3305 4.83082 94.5879C6.49013 95.8666 11.2979 97.9764 11.2979 97.9764Z" fill="#F08888"/>
<path d="M16.8926 103.837C15.9566 102.452 15.6587 100.235 16.1055 98.3812C16.5522 96.5058 15.2545 94.3108 13.6378 95.419C11.9998 96.5271 16.8926 103.837 16.8926 103.837Z" fill="#F08888"/>
<path d="M17.2539 104.306C15.7435 102.857 12.0845 104.796 10.9145 104.199C9.14884 103.304 9.31903 101.535 11.2336 101.194C13.5737 100.768 17.2539 104.306 17.2539 104.306Z" fill="#F08888"/>
<path d="M21.2532 110.55C20.5087 108.611 21.8276 106.48 22.3807 104.924C23.1253 102.857 21.0618 100.896 19.8279 103.219C18.5728 105.499 21.2532 110.55 21.2532 110.55Z" fill="#F08888"/>
<path d="M23.019 113.96C21.9767 112.234 20.211 111.871 18.424 112.212C16.1691 112.66 14.1481 112.148 14.446 110.337C14.7651 108.525 18.4453 108.994 19.9344 110.102C21.4661 111.232 23.019 113.96 23.019 113.96Z" fill="#F08888"/>
<path d="M26.2955 121.823C25.3595 119.33 27.9548 117.327 29.4652 116.176C31.4223 114.684 30.6352 111.914 27.657 113.256C23.5513 115.089 26.2955 121.823 26.2955 121.823Z" fill="#F08888"/>
<path d="M27.6567 125.937C26.9973 124.615 25.4656 123.017 23.5085 123.251C21.5513 123.486 18.4029 122.57 18.5944 120.502C18.7858 118.435 21.9555 118.606 23.9339 120.183C25.7634 121.632 27.6567 125.937 27.6567 125.937Z" fill="#F08888"/>
<path d="M91.1729 149.836C95.5669 130.551 116.735 118.289 138.287 118.603" stroke="#F08888" stroke-width="0.9696" stroke-miterlimit="10" stroke-linecap="round" stroke-linejoin="round"/>
<path d="M133.056 118.778C136.613 118.044 148.924 111.337 150.04 117.311C151.19 123.564 133.056 118.778 133.056 118.778Z" fill="#F08888"/>
<path d="M123.222 120.42C126.046 119.616 127.197 113.817 130.999 111.406C134.8 108.996 137.276 111.162 135.114 113.992C132.951 116.857 123.222 120.42 123.222 120.42Z" fill="#F08888"/>
<path d="M124.582 120.106C127.442 119.512 129.255 124.927 133.021 126.394C136.788 127.826 138.915 125.556 136.369 122.656C133.056 118.778 124.582 120.106 124.582 120.106Z" fill="#F08888"/>
<path d="M111.888 124.787C113.562 123.949 114.852 120.909 116.178 117.52C117.433 114.306 120.92 110.743 122.525 113.363C124.024 115.878 120.084 118.673 118.131 120.42C117.049 121.363 111.888 124.787 111.888 124.787Z" fill="#F08888"/>
<path d="M109.377 126.184C112.027 124.997 115.41 126.813 117.712 128.7C120.013 130.586 123.501 131.11 124.303 129.154C125.14 127.198 122.768 125.032 119.246 124.542C114.434 123.914 109.377 126.184 109.377 126.184Z" fill="#F08888"/>
<path d="M101.565 132.124C103.239 129.993 105.123 126.744 104.495 123.669C103.832 120.595 106.448 116.053 109.482 118.394C112.481 120.7 101.565 132.124 101.565 132.124Z" fill="#F08888"/>
<path d="M100.38 133.311C102.926 131.215 107.668 132.892 109.063 135.163C110.458 137.434 114.818 136.316 113.702 133.242C112.586 130.167 107.913 129.399 104.634 130.691C102.333 131.565 100.38 133.311 100.38 133.311Z" fill="#F08888"/>
<path d="M90.5098 145.958C97.4845 142.569 98.7748 133.521 105.471 134.22C112.166 134.918 107.737 152.736 96.3337 156.684L90.5098 145.958Z" fill="url(#paint2_linear)"/>
<path d="M102.786 142.15C102.786 142.15 99.6125 148.753 93.5444 151.548" stroke="#F9F9F9" stroke-width="0.9696" stroke-miterlimit="10" stroke-linecap="round"/>
<path d="M56.9614 136.875C56.9614 129.119 49.3938 123.984 52.951 118.254C56.5081 112.525 70.5622 124.298 69.1324 136.316L56.9614 136.875Z" fill="url(#paint3_linear)"/>
<path d="M58.9146 124.158C58.9146 124.158 63.483 129.923 63.3086 136.595" stroke="#F9F9F9" stroke-width="0.9696" stroke-miterlimit="10" stroke-linecap="round"/>
<path d="M80.606 138.691C81.8266 131.04 90.1265 127.163 87.511 120.944C84.9303 114.725 69.1674 124.123 68.6792 136.211L80.606 138.691Z" fill="url(#paint4_linear)"/>
<path d="M80.7111 125.835C80.7111 125.835 75.3056 130.796 74.3989 137.399" stroke="#F9F9F9" stroke-width="0.9696" stroke-miterlimit="10" stroke-linecap="round"/>
<path d="M94.7305 155.705C105.018 152.177 108.122 142.5 117.154 134.988C126.187 127.442 137.311 128.141 139.09 134.185C140.868 140.229 129.081 140.858 119.909 153.784C110.737 166.71 94.7305 168.213 94.7305 168.213V155.705Z" fill="url(#paint5_linear)"/>
<path d="M94.73 161.924C107.285 158.745 114.19 144.77 126.814 138.098" stroke="#F9F9F9" stroke-width="0.9696" stroke-miterlimit="10" stroke-linecap="round"/>
<path d="M33.7989 171.9C33.7989 171.9 27.4325 144.349 38.6535 134.512C49.8746 124.641 62.0776 137.914 81.7528 125.174C104.427 116.632 125.45 143.186 121.478 171.933H33.7989V171.9Z" fill="#FFD6D6"/>
<path d="M138.293 171.934C139.712 169.488 140.669 165.72 137.37 161.688C131.629 154.681 126.218 162.018 115.727 159.209C105.235 156.399 100.121 163.34 100.748 171.934H138.293Z" fill="#3D8864"/>
<circle cx="72" cy="222" r="90" fill="#FFF0DA"/>
<path d="M85.2291 142.902C80.2541 142.028 74.1008 139.623 68.3838 135.383C60.223 129.349 63.1906 121.742 51.2767 113.305C51.2767 113.305 36.3516 119.6 43.6832 134.683C51.0148 149.766 64.7617 150.553 76.501 150.16C79.7304 150.028 82.8289 149.81 85.5783 149.548L85.2291 142.902Z" fill="#FF9C68"/>
<path d="M85.5783 149.548C92.8227 148.804 97.885 147.755 97.885 147.755C97.885 147.755 96.0957 142.727 90.9025 143.252C89.3314 143.427 87.3676 143.296 85.1855 142.902L85.5783 149.548Z" fill="#FFD7C1"/>
<path d="M92.168 146.575C92.168 146.575 95.6156 145.875 96.052 146.662C96.4884 147.493 94.961 148.323 92.9972 148.586" stroke="#FF9C68" stroke-width="0.75" stroke-miterlimit="10" stroke-linecap="round"/>
<path opacity="0.45" d="M76.3701 140.104C73.708 138.924 71.0023 137.35 68.3838 135.427C60.223 129.393 63.1906 121.786 51.2767 113.349C51.2767 113.349 36.3516 119.644 43.6832 134.727C50.2729 148.236 61.9686 150.291 72.7915 150.247C74.799 146.575 75.8464 142.946 76.3701 140.104Z" fill="url(#paint6_linear)"/>
<path d="M42.5047 217.443L40.1045 223.826H56.7316L48.1344 218.623L42.5047 217.443Z" fill="#FF9C68"/>
<path d="M50.142 158.335C50.142 158.335 65.8963 155.318 73.4025 161.658C80.865 167.997 66.3327 196.327 48.1345 218.579L42.5049 217.399C42.5049 217.399 57.6482 188.982 57.43 176.522C57.1682 164.106 50.142 158.335 50.142 158.335Z" fill="#9A81FF"/>
<path opacity="0.3" d="M64.9799 194.403C73.7517 179.32 78.2903 165.811 73.4026 161.658C65.94 155.318 50.1421 158.335 50.1421 158.335C50.1421 158.335 57.1682 164.106 57.3864 176.566C57.4737 180.675 55.859 186.49 53.7206 192.479C56.7318 193.354 60.4413 194.097 64.9799 194.403Z" fill="url(#paint7_linear)"/>
<path d="M48.178 109.982C48.178 109.982 45.2105 108.539 46.7815 104.605C46.7815 104.605 44.4249 102.069 46.3451 99.8392C46.3451 99.8392 44.5122 94.7242 47.9162 92.2759C51.3201 89.8277 53.8949 92.1885 55.466 91.7076C57.0371 91.2267 62.7104 88.2538 64.6306 91.489C66.5071 94.7242 64.0196 97.8719 61.052 98.2217L53.4149 105.392L48.178 109.982Z" fill="black"/>
<path d="M45.7344 114.31L48.1783 110.026C48.1783 110.026 50.1421 108.539 50.0112 107.184C49.8366 105.829 50.8403 105.129 50.8403 105.129C50.8403 105.129 48.2219 104.473 48.4837 101.544C48.7456 98.6151 52.4114 98.3528 53.5897 100.408C54.7244 102.506 56.7318 99.9267 56.8627 98.3091C56.8627 98.3091 59.0448 99.2709 61.0086 98.3091C61.0086 98.3091 60.6595 102.419 62.4488 104.736C62.4488 104.736 61.7069 105.348 60.7468 105.435C60.7468 105.435 61.1832 108.802 59.0011 110.375C56.2954 112.343 54.2007 111.119 54.2007 111.119L50.9713 116.933L45.7344 114.31Z" fill="#FFD7C1"/>
<path d="M50.1855 101.326C50.1855 101.326 51.2329 100.889 52.2803 101.02" stroke="#FF9C68" stroke-width="0.75" stroke-miterlimit="10" stroke-linecap="round"/>
<path d="M51.3202 102.9C51.3202 102.9 51.6257 102.069 51.2329 101.063" stroke="#FF9C68" stroke-width="0.75" stroke-miterlimit="10" stroke-linecap="round"/>
<path d="M59.3064 102.113C59.3064 102.113 58.5645 101.501 57.168 101.981" stroke="#FF9C68" stroke-width="0.75" stroke-miterlimit="10" stroke-linecap="round"/>
<path d="M59.3062 106.266C59.3062 105.129 58.3898 104.167 57.2115 104.167C56.0332 104.167 55.1167 105.086 55.1167 106.266C55.1167 107.446 56.0332 108.364 57.2115 108.364C58.3898 108.364 59.3062 107.403 59.3062 106.266Z" fill="#F47676"/>
<path d="M50.4475 112.867C31.3329 104.736 15.8405 145.219 18.1971 163.275L37.9227 169.483L50.1857 158.378C54.157 144.738 59.4812 116.715 50.4475 112.867Z" fill="#FF9C68"/>
<path opacity="0.45" d="M53.0662 146.487L35.1299 130.967C32.9479 149.547 36.6573 164.106 36.6573 164.106L44.3817 163.581L50.1423 158.378C51.1024 155.056 52.1498 150.903 53.0662 146.487Z" fill="url(#paint8_linear)"/>
<path d="M81.9126 217.88L81.2144 223.826H96.7068L87.5423 217.88H81.9126Z" fill="#FF9C68"/>
<path d="M50.1423 158.335C50.1423 158.335 37.3119 162.794 18.1973 163.231C18.4155 164.762 18.721 166.161 19.201 167.341C25.1798 182.205 32.5114 182.205 56.9502 184.042C83.2655 186.053 81.9127 217.88 81.9127 217.88H87.586C87.586 217.88 92.6483 204.939 86.1022 187.058C79.5124 169.177 50.1423 158.335 50.1423 158.335Z" fill="#9A81FF"/>
<path d="M73.4027 131.71L68.0785 128.038C62.7544 135.208 53.9826 142.203 53.9826 142.203C57.1684 125.196 55.51 113.086 48.0911 112.867C30.8094 112.343 29.9802 158.947 48.5275 156.455C60.4851 154.837 68.9077 141.241 73.4027 131.71Z" fill="#FF9C68"/>
<path d="M81.0399 115.84C78.7269 113.873 74.8866 114.223 71.2207 122.792C70.5225 124.497 69.3878 126.289 68.0786 128.038L73.4028 131.71C75.8903 126.42 77.1995 122.398 77.1995 122.398C80.1671 121.742 83.3528 117.764 81.0399 115.84Z" fill="#FFD7C1"/>
<path d="M38.8391 187.189H36.9189V219.366H38.8391V187.189Z" fill="#3D8864"/>
<path d="M52.0623 219.323H23.6958V220.765H52.0623V219.323Z" fill="#3D8864"/>
<path d="M24.11 223.701C25.8925 223.278 26.9952 221.487 26.573 219.702C26.1507 217.916 24.3635 216.811 22.581 217.234C20.7985 217.657 19.6958 219.448 20.118 221.233C20.5402 223.019 22.3275 224.124 24.11 223.701Z" fill="#3D8864"/>
<path d="M23.3468 222.514C22.2122 222.514 21.3394 221.596 21.3394 220.503C21.3394 219.367 22.2558 218.492 23.3468 218.492C24.4815 218.492 25.3543 219.41 25.3543 220.503C25.3979 221.596 24.4815 222.514 23.3468 222.514Z" fill="#EDF2FE"/>
<path d="M49.0947 220.459C49.0947 218.623 50.5785 217.137 52.4114 217.137C54.2443 217.137 55.7281 218.623 55.7281 220.459C55.7281 222.296 54.2443 223.782 52.4114 223.782C50.5785 223.826 49.0947 222.296 49.0947 220.459Z" fill="#3D8864"/>
<path d="M52.4113 222.514C53.5459 222.514 54.4187 221.596 54.4187 220.503C54.4187 219.366 53.5023 218.492 52.4113 218.492C51.2766 218.492 50.4038 219.41 50.4038 220.503C50.4038 221.596 51.3203 222.514 52.4113 222.514Z" fill="#EDF2FE"/>
<path d="M14.7056 165.767L23.8265 185.572" stroke="#3D8864" stroke-width="1.5" stroke-miterlimit="10" stroke-linecap="round"/>
<path d="M51.0149 188.544H24.7868C23.434 188.544 22.2993 187.451 22.2993 186.053C22.2993 184.697 23.3903 183.561 24.7868 183.561H51.0149C52.3678 183.561 53.5024 184.654 53.5024 186.053C53.5024 187.451 52.3678 188.544 51.0149 188.544Z" fill="#F47676"/>
<path d="M14.9676 166.204C13.3529 166.204 12 164.893 12 163.231V138.793C12 137.175 13.3092 135.82 14.9676 135.82C16.5823 135.82 17.9351 137.131 17.9351 138.793V163.231C17.9351 164.893 16.6259 166.204 14.9676 166.204Z" fill="#F47676"/>
<path d="M72.0449 51.3167C72.8555 51.3409 73.5 52.005 73.5 52.816V74.3501C73.5 75.1785 72.8284 75.8501 72 75.8501H58.6193C57.2947 75.8501 56.2 76.8832 56.1235 78.2056L55.9328 81.4979C55.8579 82.7932 54.2851 83.3888 53.3709 82.468L46.97 76.021C46.5007 75.5483 45.8621 75.2824 45.1959 75.2824H10.2659C9.3636 75.2824 8.66549 74.4915 8.77756 73.5961L11.6226 50.8672C11.7186 50.0997 12.3826 49.5311 13.1558 49.5542L72.0449 51.3167Z" fill="#348F6C" stroke="#43AC79"/>
<path d="M90.3353 149.941H115.865C116.476 149.941 117 149.416 117 148.804C117 148.192 116.476 147.668 115.865 147.668H90.3353C89.7244 147.668 89.2007 148.192 89.2007 148.804C89.2007 149.416 89.7244 149.941 90.3353 149.941Z" fill="black"/>
<path d="M127.953 123.36C127.604 123.185 127.168 123.36 127.037 123.71L116.214 146.925C116.039 147.274 116.214 147.711 116.563 147.843C116.912 148.017 117.349 147.843 117.48 147.493L128.302 124.278C128.477 123.972 128.302 123.535 127.953 123.36Z" fill="black"/>
<path d="M144.144 149.941H82V152.346H144.144V149.941Z" fill="#3D8864"/>
<path d="M114.25 152.302H111.938V221.946H114.25V152.302Z" fill="#3D8864"/>
<path d="M130.135 221.946H96.0957V223.782H130.135V221.946Z" fill="#3D8864"/>
<path opacity="0.3" d="M114.25 152.302H111.938V156.98H114.25V152.302Z" fill="url(#paint9_linear)"/>
<path d="M17 57L66.5 58" stroke="#43AC79"/>
<path d="M17 62L66.5 63" stroke="#43AC79"/>
<path d="M17 68L66.5 69" stroke="#43AC79"/>
</g>
<defs>
<linearGradient id="paint0_linear" x1="87.0419" y1="145.051" x2="105.306" y2="106.931" gradientUnits="userSpaceOnUse">
<stop offset="0.00398406" stop-color="#60BEC8"/>
<stop offset="1" stop-color="#79D7DB"/>
</linearGradient>
<linearGradient id="paint1_linear" x1="26.3522" y1="146.072" x2="12.1141" y2="116.355" gradientUnits="userSpaceOnUse">
<stop offset="0.00398406" stop-color="#60BEC8"/>
<stop offset="1" stop-color="#79D7DB"/>
</linearGradient>
<linearGradient id="paint2_linear" x1="92.3361" y1="153.19" x2="104.498" y2="141.418" gradientUnits="userSpaceOnUse">
<stop offset="0.00398406" stop-color="#67B292"/>
<stop offset="1" stop-color="#7AC8A9"/>
</linearGradient>
<linearGradient id="paint3_linear" x1="64.2536" y1="138.395" x2="58.949" y2="122.309" gradientUnits="userSpaceOnUse">
<stop offset="0.00398406" stop-color="#60BEC8"/>
<stop offset="1" stop-color="#79D7DB"/>
</linearGradient>
<linearGradient id="paint4_linear" x1="73.1805" y1="139.044" x2="80.9799" y2="124.011" gradientUnits="userSpaceOnUse">
<stop offset="0.00398406" stop-color="#67B292"/>
<stop offset="1" stop-color="#7AC8A9"/>
</linearGradient>
<linearGradient id="paint5_linear" x1="94.2" y1="159.52" x2="114.268" y2="148.309" gradientUnits="userSpaceOnUse">
<stop offset="0.00398406" stop-color="#60BEC8"/>
<stop offset="1" stop-color="#79D7DB"/>
</linearGradient>
<linearGradient id="paint6_linear" x1="54.3387" y1="130.648" x2="77.1447" y2="142.289" gradientUnits="userSpaceOnUse">
<stop stop-opacity="0.6"/>
<stop offset="0.8969" stop-opacity="0"/>
</linearGradient>
<linearGradient id="paint7_linear" x1="65.5767" y1="155.457" x2="51.8067" y2="199.46" gradientUnits="userSpaceOnUse">
<stop offset="0.3506"/>
<stop offset="0.875" stop-opacity="0"/>
</linearGradient>
<linearGradient id="paint8_linear" x1="51.7014" y1="146.011" x2="29.2567" y2="148.338" gradientUnits="userSpaceOnUse">
<stop/>
<stop offset="0.7462" stop-opacity="0"/>
</linearGradient>
<linearGradient id="paint9_linear" x1="113.096" y1="156.998" x2="113.096" y2="152.319" gradientUnits="userSpaceOnUse">
<stop stop-opacity="0"/>
<stop offset="0.8645"/>
</linearGradient>
<clipPath id="clip0">
<rect width="144" height="248" transform="matrix(-1 0 0 1 144 0)" fill="white"/>
</clipPath>
</defs>
</svg>
