<svg width="987" height="238" viewBox="0 0 987 238" fill="none" xmlns="http://www.w3.org/2000/svg">
<g clip-path="url(#clip0)">
<path d="M515.5 151.5C324.5 116 91.8773 201.103 -1 227.5V-8H1055V79.5C940.612 114.696 802.496 204.842 515.5 151.5Z" fill="#0E9560"/>
<path d="M478.273 151.526C255.378 114.787 91.7894 173.28 -1 196V-8H1054V63.0616C939.721 93.3554 711.431 189.957 478.273 151.526Z" fill="#0E9560"/>
<mask id="mask0" mask-type="alpha" maskUnits="userSpaceOnUse" x="-1" y="-8" width="1056" height="208">
<path d="M461 143.5C232.445 95.0907 91.8333 176.5 -1 200V-8H1054.5V52C927 105 749 204.5 461 143.5Z" fill="#0E9560"/>
</mask>
<g mask="url(#mask0)">
<circle opacity="0.8" cx="713.5" cy="158.5" r="15" stroke="#FF9C68" stroke-width="15"/>
<circle opacity="0.9" cx="942.5" cy="35.5" r="13.5" stroke="#FF9C68" stroke-width="10"/>
<path opacity="0.1" d="M613.558 65.9523C452.088 65.9523 397.907 23.547 391 2.34435L424.767 -86L1034.12 -31.9837L1084 91.1935C1051.77 111.05 947.395 153.691 787.767 165.403C628.14 177.115 654.744 146.388 688 129.56C730.465 108.358 775.028 65.9523 613.558 65.9523Z" fill="#CDEFD3"/>
<path opacity="0.1" d="M702.558 41.9523C541.088 41.9523 486.907 -0.453011 480 -21.6557L513.767 -110L1123.12 -55.9837L1173 67.1935C1140.77 87.05 1036.4 129.691 876.767 141.403C717.14 153.115 743.744 122.388 777 105.56C819.465 84.3576 864.028 41.9523 702.558 41.9523Z" fill="#CDEFD3"/>
<path opacity="0.1" d="M145.218 -20.4437C214.826 -67.0964 219.512 -110.608 213.154 -126.532L168.322 -174.88L113.168 -235.55L-79.1993 36.7295L-46.4698 132.061C-23.8321 135.792 39.9357 133.648 113.906 95.2217C187.876 56.795 162.878 44.2963 141.133 42.8503C113.492 41.191 75.6108 26.2091 145.218 -20.4437Z" fill="#CDEFD3"/>
</g>
<circle cx="602.5" cy="-18.5" r="82.5" stroke="#CFA471" stroke-width="40"/>
<circle cy="133" r="39" stroke="#43AC79" stroke-width="20"/>
<circle cx="602.5" cy="-11.5" r="35.5" stroke="#43AC79" stroke-width="20"/>
<circle opacity="0.8" cy="133" r="15" stroke="#FF9C68" stroke-width="10"/>
</g>
<defs>
<clipPath id="clip0">
<rect width="987" height="238" fill="white"/>
</clipPath>
</defs>
</svg>
