<svg width="20" height="20" viewBox="0 0 20 20" fill="none" xmlns="http://www.w3.org/2000/svg">
<path d="M14.7607 9.04785C15.1652 9.04785 15.4932 8.71994 15.4932 8.31543C15.4932 7.91092 15.1652 7.58301 14.7607 7.58301C14.3562 7.58301 14.0283 7.91092 14.0283 8.31543C14.0283 8.71994 14.3562 9.04785 14.7607 9.04785Z" fill="white"/>
<path d="M17.0312 2.38281H15.2734V1.35742C15.2734 0.952905 15.092 0.625 14.6875 0.625C14.283 0.625 14.1016 0.952905 14.1016 1.35742V2.38281H10.5859V1.35742C10.5859 0.952905 10.4045 0.625 10 0.625C9.59548 0.625 9.41406 0.952905 9.41406 1.35742V2.38281H5.93506V1.35742C5.93506 0.952905 5.71702 0.625 5.3125 0.625C4.90798 0.625 4.72656 0.952905 4.72656 1.35742V2.38281H2.96875C1.35332 2.38281 0.625 3.4041 0.625 5.01953V17.0312C0.625 18.6467 1.35332 19.375 2.96875 19.375H9.15771C9.56223 19.375 10 19.1936 10 18.7891C10 18.3845 9.63547 18.2031 9.23096 18.2031H2.96875C2.16104 18.2031 1.79688 17.839 1.79688 17.0312V5.01953C1.79688 4.21182 2.16104 3.55469 2.96875 3.55469H4.72656V4.28711C4.72656 4.69163 4.90798 5.01953 5.3125 5.01953C5.71702 5.01953 5.93506 4.69163 5.93506 4.28711V3.55469H9.41406V4.28711C9.41406 4.69163 9.59548 5.01953 10 5.01953C10.4045 5.01953 10.5859 4.69163 10.5859 4.28711V3.55469H14.1016V4.28711C14.1016 4.69163 14.283 5.01953 14.6875 5.01953C15.092 5.01953 15.2734 4.69163 15.2734 4.28711V3.55469H17.0312C17.839 3.55469 18.2031 3.91885 18.2031 4.72656V9.41406C18.2031 9.81858 18.3845 10 18.7891 10C19.1936 10 19.375 9.81858 19.375 9.41406V4.72656C19.375 3.11113 18.6467 2.38281 17.0312 2.38281Z" fill="white"/>
<path d="M11.5747 9.04785C11.9792 9.04785 12.3071 8.71994 12.3071 8.31543C12.3071 7.91092 11.9792 7.58301 11.5747 7.58301C11.1702 7.58301 10.8423 7.91092 10.8423 8.31543C10.8423 8.71994 11.1702 9.04785 11.5747 9.04785Z" fill="white"/>
<path d="M8.38867 12.2339C8.79318 12.2339 9.12109 11.906 9.12109 11.5015C9.12109 11.097 8.79318 10.769 8.38867 10.769C7.98417 10.769 7.65625 11.097 7.65625 11.5015C7.65625 11.906 7.98417 12.2339 8.38867 12.2339Z" fill="white"/>
<path d="M5.20264 9.04785C5.60714 9.04785 5.93506 8.71994 5.93506 8.31543C5.93506 7.91092 5.60714 7.58301 5.20264 7.58301C4.79813 7.58301 4.47021 7.91092 4.47021 8.31543C4.47021 8.71994 4.79813 9.04785 5.20264 9.04785Z" fill="white"/>
<path d="M5.20264 12.2339C5.60714 12.2339 5.93506 11.906 5.93506 11.5015C5.93506 11.097 5.60714 10.769 5.20264 10.769C4.79813 10.769 4.47021 11.097 4.47021 11.5015C4.47021 11.906 4.79813 12.2339 5.20264 12.2339Z" fill="white"/>
<path d="M5.20264 15.4199C5.60714 15.4199 5.93506 15.092 5.93506 14.6875C5.93506 14.283 5.60714 13.9551 5.20264 13.9551C4.79813 13.9551 4.47021 14.283 4.47021 14.6875C4.47021 15.092 4.79813 15.4199 5.20264 15.4199Z" fill="white"/>
<path d="M8.38867 15.4199C8.79318 15.4199 9.12109 15.092 9.12109 14.6875C9.12109 14.283 8.79318 13.9551 8.38867 13.9551C7.98417 13.9551 7.65625 14.283 7.65625 14.6875C7.65625 15.092 7.98417 15.4199 8.38867 15.4199Z" fill="white"/>
<path d="M8.38867 9.04785C8.79318 9.04785 9.12109 8.71994 9.12109 8.31543C9.12109 7.91092 8.79318 7.58301 8.38867 7.58301C7.98417 7.58301 7.65625 7.91092 7.65625 8.31543C7.65625 8.71994 7.98417 9.04785 8.38867 9.04785Z" fill="white"/>
<path fill-rule="evenodd" clip-rule="evenodd" d="M14.6875 18.2812C16.6723 18.2812 18.2812 16.6723 18.2812 14.6875C18.2812 12.7027 16.6723 11.0938 14.6875 11.0938C12.7027 11.0938 11.0938 12.7027 11.0938 14.6875C11.0938 16.6723 12.7027 18.2812 14.6875 18.2812ZM14.6875 19.375C17.2763 19.375 19.375 17.2763 19.375 14.6875C19.375 12.0987 17.2763 10 14.6875 10C12.0987 10 10 12.0987 10 14.6875C10 17.2763 12.0987 19.375 14.6875 19.375Z" fill="white"/>
<path fill-rule="evenodd" clip-rule="evenodd" d="M14.1016 12.8906C14.4467 12.8906 14.7266 13.1704 14.7266 13.5156V15.2344H15.8594C16.2046 15.2344 16.4844 15.5142 16.4844 15.8594C16.4844 16.2046 16.2046 16.4844 15.8594 16.4844H14.1016C13.7564 16.4844 13.4766 16.2046 13.4766 15.8594V13.5156C13.4766 13.1704 13.7564 12.8906 14.1016 12.8906Z" fill="white"/>
</svg>
