<svg width="20" height="20" viewBox="0 0 20 20" fill="none" xmlns="http://www.w3.org/2000/svg">
<path d="M14.7607 9.04785C15.1652 9.04785 15.4932 8.71994 15.4932 8.31543C15.4932 7.91092 15.1652 7.58301 14.7607 7.58301C14.3562 7.58301 14.0283 7.91092 14.0283 8.31543C14.0283 8.71994 14.3562 9.04785 14.7607 9.04785Z" fill="white"/>
<path d="M17.0312 2.38281H15.2734V1.35742C15.2734 0.952905 15.092 0.625 14.6875 0.625C14.283 0.625 14.1016 0.952905 14.1016 1.35742V2.38281H10.5859V1.35742C10.5859 0.952905 10.4045 0.625 10 0.625C9.59548 0.625 9.41406 0.952905 9.41406 1.35742V2.38281H5.93506V1.35742C5.93506 0.952905 5.71702 0.625 5.3125 0.625C4.90798 0.625 4.72656 0.952905 4.72656 1.35742V2.38281H2.96875C1.35332 2.38281 0.625 3.4041 0.625 5.01953V17.0312C0.625 18.6467 1.35332 19.375 2.96875 19.375H9.15771C9.56223 19.375 10 19.1936 10 18.7891C10 18.3845 9.63547 18.2031 9.23096 18.2031H2.96875C2.16104 18.2031 1.79688 17.839 1.79688 17.0312V5.01953C1.79688 4.21182 2.16104 3.55469 2.96875 3.55469H4.72656V4.28711C4.72656 4.69163 4.90798 5.01953 5.3125 5.01953C5.71702 5.01953 5.93506 4.69163 5.93506 4.28711V3.55469H9.41406V4.28711C9.41406 4.69163 9.59548 5.01953 10 5.01953C10.4045 5.01953 10.5859 4.69163 10.5859 4.28711V3.55469H14.1016V4.28711C14.1016 4.69163 14.283 5.01953 14.6875 5.01953C15.092 5.01953 15.2734 4.69163 15.2734 4.28711V3.55469H17.0312C17.839 3.55469 18.2031 3.91885 18.2031 4.72656V9.41406C18.2031 9.81858 18.3845 10 18.7891 10C19.1936 10 19.375 9.81858 19.375 9.41406V4.72656C19.375 3.11113 18.6467 2.38281 17.0312 2.38281Z" fill="white"/>
<path d="M11.5747 9.04785C11.9792 9.04785 12.3071 8.71994 12.3071 8.31543C12.3071 7.91092 11.9792 7.58301 11.5747 7.58301C11.1702 7.58301 10.8423 7.91092 10.8423 8.31543C10.8423 8.71994 11.1702 9.04785 11.5747 9.04785Z" fill="white"/>
<path d="M8.38867 12.2339C8.79318 12.2339 9.12109 11.906 9.12109 11.5015C9.12109 11.097 8.79318 10.769 8.38867 10.769C7.98417 10.769 7.65625 11.097 7.65625 11.5015C7.65625 11.906 7.98417 12.2339 8.38867 12.2339Z" fill="white"/>
<path d="M5.20264 9.04785C5.60714 9.04785 5.93506 8.71994 5.93506 8.31543C5.93506 7.91092 5.60714 7.58301 5.20264 7.58301C4.79813 7.58301 4.47021 7.91092 4.47021 8.31543C4.47021 8.71994 4.79813 9.04785 5.20264 9.04785Z" fill="white"/>
<path d="M5.20264 12.2339C5.60714 12.2339 5.93506 11.906 5.93506 11.5015C5.93506 11.097 5.60714 10.769 5.20264 10.769C4.79813 10.769 4.47021 11.097 4.47021 11.5015C4.47021 11.906 4.79813 12.2339 5.20264 12.2339Z" fill="white"/>
<path d="M5.20264 15.4199C5.60714 15.4199 5.93506 15.092 5.93506 14.6875C5.93506 14.283 5.60714 13.9551 5.20264 13.9551C4.79813 13.9551 4.47021 14.283 4.47021 14.6875C4.47021 15.092 4.79813 15.4199 5.20264 15.4199Z" fill="white"/>
<path d="M8.38867 15.4199C8.79318 15.4199 9.12109 15.092 9.12109 14.6875C9.12109 14.283 8.79318 13.9551 8.38867 13.9551C7.98417 13.9551 7.65625 14.283 7.65625 14.6875C7.65625 15.092 7.98417 15.4199 8.38867 15.4199Z" fill="white"/>
<path d="M8.38867 9.04785C8.79318 9.04785 9.12109 8.71994 9.12109 8.31543C9.12109 7.91092 8.79318 7.58301 8.38867 7.58301C7.98417 7.58301 7.65625 7.91092 7.65625 8.31543C7.65625 8.71994 7.98417 9.04785 8.38867 9.04785Z" fill="white"/>
<path d="M15.7908 11.5346L16.8322 13.954H18.8588C18.9612 13.9501 19.0622 13.978 19.1481 14.0338C19.234 14.0895 19.3007 14.1705 19.339 14.2656C19.3772 14.3607 19.3852 14.4653 19.3619 14.5652C19.3386 14.665 19.2851 14.7552 19.2087 14.8235L17.4493 16.393L18.4237 18.6382C18.4665 18.7409 18.476 18.8545 18.451 18.9629C18.426 19.0713 18.3676 19.1691 18.2842 19.2426C18.2008 19.316 18.0964 19.3614 17.9859 19.3724C17.8753 19.3834 17.7641 19.3594 17.6679 19.3037L15.313 17.9748L12.9582 19.3037C12.862 19.3594 12.7508 19.3834 12.6402 19.3724C12.5297 19.3614 12.4253 19.316 12.3419 19.2426C12.2584 19.1691 12.2001 19.0713 12.1751 18.9629C12.15 18.8545 12.1596 18.7409 12.2023 18.6382L13.1768 16.393L11.4174 14.8235C11.3408 14.7555 11.287 14.6655 11.2634 14.5657C11.2398 14.4659 11.2475 14.3613 11.2856 14.2661C11.3237 14.1709 11.3902 14.0899 11.4761 14.034C11.5619 13.9781 11.6629 13.9502 11.7652 13.954H13.7953L14.838 11.5346C14.8844 11.4486 14.9532 11.3767 15.037 11.3266C15.1209 11.2765 15.2167 11.25 15.3144 11.25C15.4121 11.25 15.5079 11.2765 15.5918 11.3266C15.6756 11.3767 15.7444 11.4486 15.7908 11.5346Z" stroke="white" stroke-linecap="round" stroke-linejoin="round"/>
</svg>
