<svg width="588" height="251" viewBox="0 0 588 251" fill="none" xmlns="http://www.w3.org/2000/svg">
<path d="M449.647 142.651C449.647 142.651 455.343 115.393 469.834 92.0008C484.326 68.6091 506.222 55.994 515.905 71.0814C525.587 86.1687 478.188 113.681 469.834 155.076L449.647 142.651Z" fill="url(#paint0_linear)"/>
<path d="M495.022 84.0137C472.493 105.313 460.532 149.308 460.532 149.308" stroke="#F9F9F9" stroke-width="0.9696" stroke-miterlimit="10" stroke-linecap="round"/>
<path d="M457.512 175.355C457.512 175.355 485.359 175.082 511.128 165.427C536.898 155.773 553.539 136.756 540.627 124.32C527.715 111.883 491.491 153.009 449.259 153.134L457.512 175.355Z" fill="url(#paint1_linear)"/>
<path d="M523.872 142.281C498.588 160.226 453.103 163.382 453.103 163.382" stroke="#F9F9F9" stroke-width="0.9696" stroke-miterlimit="10" stroke-linecap="round"/>
<path d="M470.184 172.891C478.157 137.898 516.57 115.647 555.68 116.218" stroke="#BDBDBD" stroke-width="0.9696" stroke-miterlimit="10" stroke-linecap="round" stroke-linejoin="round"/>
<path d="M546.187 116.535C552.642 115.204 574.981 103.032 577.006 113.872C579.094 125.22 546.187 116.535 546.187 116.535Z" fill="#B2B2B2"/>
<path d="M528.341 119.514C533.467 118.056 535.555 107.533 542.453 103.159C549.351 98.7847 553.844 102.715 549.92 107.85C545.997 113.048 528.341 119.514 528.341 119.514Z" fill="#B2B2B2"/>
<path d="M530.809 118.944C535.998 117.866 539.289 127.692 546.124 130.354C552.958 132.953 556.819 128.833 552.199 123.571C546.187 116.535 530.809 118.944 530.809 118.944Z" fill="#B2B2B2"/>
<path d="M507.774 127.438C510.812 125.917 513.153 120.402 515.558 114.253C517.836 108.421 524.164 101.955 527.075 106.709C529.797 111.273 522.646 116.345 519.102 119.514C517.14 121.226 507.774 127.438 507.774 127.438Z" fill="#B2B2B2"/>
<path d="M503.218 129.974C508.027 127.819 514.166 131.115 518.343 134.538C522.519 137.962 528.848 138.912 530.303 135.362C531.822 131.812 527.519 127.882 521.127 126.995C512.394 125.854 503.218 129.974 503.218 129.974Z" fill="#B2B2B2"/>
<path d="M489.042 140.751C492.08 136.884 495.497 130.988 494.358 125.41C493.155 119.831 497.902 111.59 503.407 115.838C508.85 120.022 489.042 140.751 489.042 140.751Z" fill="#B2B2B2"/>
<path d="M486.891 142.906C491.51 139.102 500.117 142.145 502.648 146.266C505.18 150.386 513.09 148.358 511.065 142.779C509.04 137.201 500.56 135.806 494.611 138.151C490.435 139.736 486.891 142.906 486.891 142.906Z" fill="#B2B2B2"/>
<path d="M189.035 148.827C195.982 140.533 206.99 115.071 183.692 107.569C154.729 98.2188 162.531 82.0538 142.545 84.1669C122.506 86.28 112.834 95.736 110.536 111.056C108.238 126.376 120.529 148.827 120.529 148.827H189.035Z" fill="url(#paint2_linear)"/>
<path d="M256.93 208.212C256.93 208.212 239.643 158.36 270.112 140.561C300.581 122.702 333.716 146.717 387.14 123.665C448.707 108.211 505.792 156.257 495.006 208.272H256.93V208.212Z" fill="url(#paint3_linear)"/>
<path d="M135.179 146.401C135.179 146.401 129.483 119.143 114.991 95.7508C100.499 72.3591 78.6032 59.744 68.9209 74.8314C59.2385 89.9187 106.638 117.431 114.991 158.826L135.179 146.401Z" fill="url(#paint4_linear)"/>
<path d="M89.8039 87.7637C112.333 109.063 124.293 153.058 124.293 153.058" stroke="#F9F9F9" stroke-width="0.9696" stroke-miterlimit="10" stroke-linecap="round"/>
<path d="M114.485 160.919C106.511 125.926 68.0981 103.676 28.9888 104.246" stroke="#BDBDBD" stroke-width="0.9696" stroke-miterlimit="10" stroke-linecap="round" stroke-linejoin="round"/>
<path d="M38.4814 104.563C32.0265 103.232 9.68743 91.0606 7.66236 101.901C5.574 113.248 38.4814 104.563 38.4814 104.563Z" fill="#B2B2B2"/>
<path d="M56.3276 107.542C51.2017 106.084 49.1133 95.5611 42.2154 91.1871C35.3175 86.813 30.8244 90.7433 34.748 95.8781C38.6716 101.076 56.3276 107.542 56.3276 107.542Z" fill="#B2B2B2"/>
<path d="M53.8594 106.972C48.6701 105.894 45.3794 115.72 38.5447 118.383C31.7101 120.982 27.8498 116.861 32.4695 111.6C38.4815 104.563 53.8594 106.972 53.8594 106.972Z" fill="#B2B2B2"/>
<path d="M76.8945 115.467C73.8569 113.945 71.5154 108.43 69.1106 102.281C66.8324 96.4489 60.5041 89.9828 57.593 94.7373C54.8718 99.3015 62.0229 104.373 65.5668 107.543C67.5286 109.254 76.8945 115.467 76.8945 115.467Z" fill="#B2B2B2"/>
<path d="M81.4507 118.002C76.6411 115.847 70.5027 119.143 66.3259 122.567C62.1492 125.99 55.8209 126.941 54.3654 123.391C52.8466 119.841 57.1498 115.91 63.5415 115.023C72.2746 113.882 81.4507 118.002 81.4507 118.002Z" fill="#B2B2B2"/>
<path d="M95.6265 128.779C92.5889 124.912 89.1715 119.017 90.3106 113.438C91.513 107.86 86.7668 99.6186 81.2611 103.866C75.8187 108.05 95.6265 128.779 95.6265 128.779Z" fill="#B2B2B2"/>
<path d="M97.7778 130.934C93.1581 127.131 84.5516 130.173 82.0202 134.294C79.4889 138.414 71.5785 136.386 73.6035 130.807C75.6286 125.229 84.1086 123.834 90.0572 126.18C94.2339 127.765 97.7778 130.934 97.7778 130.934Z" fill="#B2B2B2"/>
<path d="M115.688 153.882C103.031 147.733 100.69 131.314 88.5393 132.582C76.3889 133.85 84.4259 166.18 105.12 173.344L115.688 153.882Z" fill="url(#paint5_linear)"/>
<path d="M93.4115 146.973C93.4115 146.973 99.1703 158.954 110.182 164.025" stroke="#F9F9F9" stroke-width="0.9696" stroke-miterlimit="10" stroke-linecap="round"/>
<path d="M108.029 171.568C89.3607 165.166 83.7284 147.606 67.338 133.977C50.9476 120.284 30.7601 121.552 27.5326 132.518C24.3052 143.485 45.695 144.626 62.3386 168.082C78.9822 191.537 108.029 194.263 108.029 194.263V171.568Z" fill="url(#paint6_linear)"/>
<path d="M108.03 182.852C85.2477 177.083 72.7176 151.726 49.8089 139.618" stroke="#F9F9F9" stroke-width="0.9696" stroke-miterlimit="10" stroke-linecap="round"/>
<path d="M261.753 208.212C261.753 208.212 273.303 158.36 252.945 140.561C232.588 122.702 210.449 146.717 174.754 123.665C133.618 108.211 95.4773 156.257 102.684 208.272H261.753V208.212Z" fill="url(#paint7_linear)"/>
<g filter="url(#filter0_d)">
<path d="M405.331 78.5431V136.971C405.331 141.124 399.58 144.505 392.517 144.505H184.674C177.611 144.505 171.86 141.124 171.86 136.971V78.5431C171.86 74.3909 177.611 71.0098 184.674 71.0098H392.416C399.58 71.0098 405.331 74.3909 405.331 78.5431Z" fill="white"/>
</g>
<path opacity="0.85" d="M346.924 35.2119H305.189C303.77 35.2119 302.647 36.3282 302.647 37.7382V72.8127C302.647 74.2228 303.77 75.339 305.189 75.339H322.569V81.3904C322.569 82.683 324.224 83.2117 324.993 82.2129L330.254 75.339H346.806C348.225 75.339 349.348 74.2228 349.348 72.8127V37.7382C349.466 36.3869 348.284 35.2119 346.924 35.2119Z" fill="url(#paint8_linear)"/>
<path d="M323.16 58.3596C322.865 58.0659 322.865 57.5959 323.16 57.3021L327.83 52.6607C328.126 52.367 328.599 52.367 328.894 52.6607C329.19 52.9545 329.19 53.4245 328.894 53.7183L324.224 58.3596C323.929 58.6534 323.456 58.6534 323.16 58.3596Z" fill="#828282"/>
<path d="M323.16 52.6607C323.456 52.367 323.929 52.367 324.224 52.6607L328.894 57.3021C329.19 57.5959 329.19 58.0659 328.894 58.3596C328.599 58.6534 328.126 58.6534 327.83 58.3596L323.16 53.7183C322.924 53.4245 322.924 52.9545 323.16 52.6607Z" fill="#828282"/>
<path opacity="0.85" d="M168.251 0.757238H216.478C218.119 0.757238 219.419 2.04896 219.419 3.68062V44.2681C219.419 45.8998 218.119 47.1915 216.478 47.1915H196.366V54.194C196.366 55.6897 194.451 56.3016 193.561 55.1458L187.473 47.1915H168.319C166.677 47.1915 165.378 45.8998 165.378 44.2681V3.68062C165.309 2.04896 166.609 0.757238 168.251 0.757238Z" fill="url(#paint9_linear)"/>
<path d="M195.682 27.5441C196.024 27.2042 196.024 26.6603 195.682 26.3204L190.278 20.9495C189.936 20.6096 189.389 20.6096 189.047 20.9495C188.705 21.2894 188.705 21.8333 189.047 22.1732L194.451 27.5441C194.793 27.816 195.34 27.816 195.682 27.5441Z" fill="#828282"/>
<path d="M195.682 20.8819C195.34 20.542 194.793 20.542 194.451 20.8819L189.047 26.2528C188.705 26.5927 188.705 27.1366 189.047 27.4765C189.389 27.8164 189.936 27.8164 190.278 27.4765L195.682 22.1056C196.024 21.7657 196.024 21.2218 195.682 20.8819Z" fill="#828282"/>
<path d="M254.837 54.5541C252.966 56.4265 249.931 56.2851 248.236 54.3068L236.411 40.6349C235.316 39.3631 235.387 37.4554 236.552 36.2896C237.752 35.0885 239.623 35.0178 240.894 36.1483L254.555 47.9831C256.602 49.6788 256.708 52.717 254.837 54.5541Z" fill="url(#paint10_linear)"/>
<path d="M242.852 191.318C245.049 191.318 246.83 189.548 246.83 187.365C246.83 185.182 245.049 183.412 242.852 183.412C240.656 183.412 238.875 185.182 238.875 187.365C238.875 189.548 240.656 191.318 242.852 191.318Z" fill="#BDBDBD"/>
<path d="M306.624 188.077C308.821 188.077 310.602 186.307 310.602 184.124C310.602 181.941 308.821 180.171 306.624 180.171C304.428 180.171 302.647 181.941 302.647 184.124C302.647 186.307 304.428 188.077 306.624 188.077Z" fill="#E0E1E0"/>
<path d="M143.065 57.6698C143.065 59.89 141.267 61.6228 139.088 61.6228C136.908 61.6228 135.11 59.8358 135.11 57.6698C135.11 55.5038 136.908 53.7168 139.088 53.7168C141.267 53.7168 143.065 55.4496 143.065 57.6698Z" fill="#E0E1E0"/>
<path d="M234.377 176.759C232.631 178.502 229.749 178.421 228.125 176.515L216.92 163.579C215.865 162.362 215.946 160.578 217.083 159.443C218.219 158.307 220.006 158.267 221.224 159.28L234.174 170.473C236.042 172.095 236.123 174.974 234.377 176.759Z" fill="white"/>
<path d="M364.223 45.0794C361.123 48.0825 356.005 47.9428 353.121 44.6603L333.151 22.3812C331.277 20.2859 331.421 17.213 333.44 15.2574C335.458 13.3019 338.63 13.232 340.793 14.9781L363.791 34.2541C367.107 37.1175 367.323 42.0762 364.223 45.0794Z" fill="#E0E1E0"/>
<path d="M148.28 152.795C148.28 152.795 145.925 151.65 147.172 148.528C147.172 148.528 145.302 146.516 146.826 144.747C146.826 144.747 145.371 140.688 148.072 138.745C150.774 136.803 152.817 138.676 154.063 138.294C155.31 137.913 159.812 135.554 161.336 138.121C162.825 140.688 160.851 143.186 158.496 143.463L152.436 149.152L148.28 152.795Z" fill="#929292"/>
<path d="M146.341 156.229L148.281 152.829C148.281 152.829 149.839 151.65 149.735 150.574C149.597 149.499 150.393 148.944 150.393 148.944C150.393 148.944 148.315 148.423 148.523 146.099C148.731 143.775 151.64 143.567 152.575 145.197C153.475 146.862 155.068 144.816 155.172 143.532C155.172 143.532 156.903 144.295 158.462 143.532C158.462 143.532 158.185 146.793 159.605 148.632C159.605 148.632 159.016 149.117 158.254 149.187C158.254 149.187 158.6 151.858 156.869 153.107C154.722 154.668 153.06 153.696 153.06 153.696L150.497 158.31L146.341 156.229Z" fill="#ECECEC"/>
<path d="M150.081 155.083C134.913 148.631 122.62 180.753 124.49 195.08L140.143 200.006L149.874 191.195C153.025 180.372 157.25 158.136 150.081 155.083Z" fill="#CACACA"/>
<path opacity="0.45" d="M152.159 181.758L137.926 169.443C136.194 184.186 139.138 195.738 139.138 195.738L145.267 195.322L149.839 191.194C150.6 188.557 151.432 185.262 152.159 181.758Z" fill="url(#paint11_linear)"/>
<path d="M149.839 191.16C149.839 191.16 139.658 194.698 124.49 195.045C124.663 196.26 124.905 197.37 125.286 198.306C130.031 210.101 135.848 210.101 155.241 211.558C176.123 213.153 175.049 238.407 175.049 238.407H179.551C179.551 238.407 183.568 228.139 178.374 213.951C173.145 199.763 149.839 191.16 149.839 191.16Z" fill="url(#paint12_linear)"/>
<path d="M173.507 245.569C176.793 244.903 188.998 250.034 191.077 250.034C193.156 250.034 195.235 248.035 191.077 245.836C186.919 243.57 180.146 237.438 180.146 237.438C179.14 238.305 178.067 237.838 177.062 237.571C176.659 237.438 176.257 237.372 175.855 237.438C175.72 237.438 175.452 237.172 174.983 236.705C174.715 239.371 171.764 245.902 173.507 245.569Z" fill="#BDBDBD"/>
<path d="M177.011 155.327L172.397 153.172L170.568 157.102L175.181 159.257L177.011 155.327Z" fill="#BDBDBD"/>
<path d="M176.988 155.327C180.382 156.922 184.226 154.459 185.888 153.211C186.269 152.933 186.823 153.176 186.823 153.662C186.858 155.049 186.581 157.686 184.849 161.397C183.118 165.109 181.282 167.017 180.209 167.884C179.828 168.197 179.308 167.919 179.274 167.468C179.205 165.387 178.616 160.877 175.188 159.281L176.988 155.327Z" fill="#828282"/>
<path d="M167.361 151.129L166.565 152.863L165.768 154.598L170.547 157.13L171.482 155.153L172.382 153.176L167.361 151.129Z" fill="#828282"/>
<path d="M168.296 170.036L164.072 167.122C159.847 172.811 152.886 178.361 152.886 178.361C155.414 164.867 154.098 155.258 148.211 155.085C134.498 154.668 133.84 191.647 148.557 189.67C158.046 188.386 164.729 177.598 168.296 170.036Z" fill="#CACACA"/>
<path d="M174.356 157.444C172.521 155.882 169.474 156.16 166.565 162.959C166.011 164.312 165.11 165.734 164.071 167.122L168.296 170.036C170.27 165.838 171.309 162.647 171.309 162.647C173.664 162.127 176.192 158.97 174.356 157.444Z" fill="#ECECEC"/>
<path d="M291.131 158.905C288.567 161.468 284.408 161.274 282.086 158.567L265.883 139.858C264.384 138.118 264.48 135.507 266.077 133.912C267.721 132.268 270.284 132.172 272.026 133.718L290.744 149.914C293.501 152.186 293.646 156.343 291.131 158.905Z" fill="url(#paint13_linear)"/>
<path d="M426.791 68.6748C425.017 70.4486 422.137 70.3147 420.53 68.4405L409.312 55.4882C408.274 54.2834 408.341 52.4761 409.446 51.3716C410.585 50.2337 412.359 50.1667 413.565 51.2377L426.523 62.4497C428.432 64.0227 428.533 66.901 426.791 68.6748Z" fill="url(#paint14_linear)"/>
<path d="M196.05 105.581L198.696 113.407L201.356 105.581H203.47L199.97 115.465H197.436L193.936 105.581H196.05ZM211.955 107.709V115.465H209.981V113.897C209.766 114.429 209.425 114.84 208.959 115.129C208.492 115.418 207.951 115.563 207.335 115.563C206.896 115.563 206.495 115.493 206.131 115.353C205.776 115.204 205.468 114.989 205.207 114.709C204.945 114.42 204.745 114.07 204.605 113.659C204.465 113.239 204.395 112.758 204.395 112.217V107.709H206.355V111.993C206.355 112.628 206.513 113.113 206.831 113.449C207.157 113.776 207.587 113.939 208.119 113.939C208.679 113.939 209.127 113.762 209.463 113.407C209.808 113.052 209.981 112.525 209.981 111.825V107.709H211.955ZM213.526 105.483C213.526 105.175 213.633 104.918 213.848 104.713C214.072 104.508 214.37 104.405 214.744 104.405C215.117 104.405 215.411 104.508 215.626 104.713C215.85 104.918 215.962 105.175 215.962 105.483C215.962 105.791 215.85 106.048 215.626 106.253C215.411 106.449 215.117 106.547 214.744 106.547C214.37 106.547 214.072 106.449 213.848 106.253C213.633 106.048 213.526 105.791 213.526 105.483ZM215.724 107.709V115.465H213.75V107.709H215.724ZM222.532 105.105V115.465H220.558V105.105H222.532ZM229.372 106.337L229.008 107.121L226.6 105.945L227.104 104.909L229.372 106.337ZM227.902 107.611C228.471 107.611 228.999 107.704 229.484 107.891C229.969 108.068 230.389 108.33 230.744 108.675C231.099 109.011 231.374 109.426 231.57 109.921C231.775 110.406 231.878 110.962 231.878 111.587C231.878 112.203 231.775 112.758 231.57 113.253C231.374 113.748 231.099 114.168 230.744 114.513C230.389 114.849 229.969 115.11 229.484 115.297C228.999 115.474 228.471 115.563 227.902 115.563C227.333 115.563 226.805 115.474 226.32 115.297C225.835 115.11 225.415 114.849 225.06 114.513C224.705 114.168 224.425 113.748 224.22 113.253C224.024 112.758 223.926 112.203 223.926 111.587C223.926 110.962 224.024 110.406 224.22 109.921C224.425 109.426 224.705 109.011 225.06 108.675C225.415 108.33 225.835 108.068 226.32 107.891C226.805 107.704 227.333 107.611 227.902 107.611ZM227.902 109.319C227.65 109.319 227.403 109.366 227.16 109.459C226.927 109.543 226.717 109.678 226.53 109.865C226.353 110.052 226.208 110.29 226.096 110.579C225.984 110.859 225.928 111.195 225.928 111.587C225.928 111.979 225.984 112.32 226.096 112.609C226.208 112.889 226.353 113.122 226.53 113.309C226.717 113.496 226.927 113.636 227.16 113.729C227.403 113.813 227.65 113.855 227.902 113.855C228.154 113.855 228.397 113.813 228.63 113.729C228.873 113.636 229.083 113.496 229.26 113.309C229.447 113.122 229.596 112.889 229.708 112.609C229.82 112.32 229.876 111.979 229.876 111.587C229.876 111.195 229.82 110.859 229.708 110.579C229.596 110.29 229.447 110.052 229.26 109.865C229.083 109.678 228.873 109.543 228.63 109.459C228.397 109.366 228.154 109.319 227.902 109.319ZM237.893 107.597C238.332 107.597 238.728 107.672 239.083 107.821C239.447 107.961 239.76 108.176 240.021 108.465C240.282 108.745 240.483 109.095 240.623 109.515C240.763 109.935 240.833 110.416 240.833 110.957V115.465H238.873V111.181C238.873 110.546 238.71 110.066 238.383 109.739C238.066 109.403 237.636 109.235 237.095 109.235C236.544 109.235 236.096 109.412 235.751 109.767C235.415 110.122 235.247 110.649 235.247 111.349V115.465H233.273V107.709H235.247V109.263C235.462 108.731 235.802 108.32 236.269 108.031C236.736 107.742 237.277 107.597 237.893 107.597ZM245.608 107.611C246.28 107.611 246.845 107.77 247.302 108.087C247.769 108.404 248.095 108.815 248.282 109.319V107.709H250.242V115.493C250.242 116.025 250.163 116.52 250.004 116.977C249.845 117.444 249.607 117.845 249.29 118.181C248.982 118.517 248.59 118.783 248.114 118.979C247.647 119.175 247.106 119.273 246.49 119.273C245.342 119.273 244.427 118.998 243.746 118.447C243.074 117.906 242.663 117.192 242.514 116.305H244.46C244.563 116.688 244.773 116.991 245.09 117.215C245.407 117.439 245.827 117.551 246.35 117.551C246.621 117.551 246.873 117.509 247.106 117.425C247.339 117.35 247.545 117.229 247.722 117.061C247.899 116.893 248.035 116.678 248.128 116.417C248.231 116.165 248.282 115.857 248.282 115.493V113.841C248.095 114.354 247.769 114.77 247.302 115.087C246.845 115.404 246.28 115.563 245.608 115.563C245.123 115.563 244.67 115.474 244.25 115.297C243.83 115.11 243.466 114.849 243.158 114.513C242.85 114.168 242.607 113.752 242.43 113.267C242.262 112.772 242.178 112.212 242.178 111.587C242.178 110.962 242.262 110.406 242.43 109.921C242.607 109.426 242.85 109.011 243.158 108.675C243.466 108.33 243.83 108.068 244.25 107.891C244.67 107.704 245.123 107.611 245.608 107.611ZM246.224 109.333C245.617 109.333 245.123 109.529 244.74 109.921C244.367 110.313 244.18 110.868 244.18 111.587C244.18 112.296 244.367 112.847 244.74 113.239C245.123 113.631 245.617 113.827 246.224 113.827C246.523 113.827 246.793 113.776 247.036 113.673C247.288 113.57 247.507 113.421 247.694 113.225C247.881 113.029 248.025 112.796 248.128 112.525C248.231 112.245 248.282 111.932 248.282 111.587C248.282 111.232 248.231 110.92 248.128 110.649C248.025 110.369 247.881 110.131 247.694 109.935C247.507 109.739 247.288 109.59 247.036 109.487C246.793 109.384 246.523 109.333 246.224 109.333ZM259.224 113.771V115.465H258.188C257.786 115.465 257.418 115.418 257.082 115.325C256.755 115.232 256.47 115.082 256.228 114.877C255.994 114.662 255.812 114.382 255.682 114.037C255.56 113.682 255.5 113.248 255.5 112.735V109.375H254.422V107.709H255.5V105.791H257.474V107.709H259.21V109.375H257.474V112.763C257.474 113.146 257.548 113.412 257.698 113.561C257.847 113.701 258.099 113.771 258.454 113.771H259.224ZM265.264 107.597C265.703 107.597 266.099 107.672 266.454 107.821C266.818 107.961 267.131 108.176 267.392 108.465C267.653 108.745 267.854 109.095 267.994 109.515C268.134 109.935 268.204 110.416 268.204 110.957V115.465H266.244V111.181C266.244 110.546 266.081 110.066 265.754 109.739C265.437 109.403 265.007 109.235 264.466 109.235C263.915 109.235 263.467 109.412 263.122 109.767C262.786 110.122 262.618 110.649 262.618 111.349V115.465H260.644V105.105H262.618V109.263C262.833 108.731 263.173 108.32 263.64 108.031C264.107 107.742 264.648 107.597 265.264 107.597ZM271.873 107.065L271.537 106.239L273.385 105.203L275.219 106.239L274.883 107.065L273.385 106.295L271.873 107.065ZM277.235 111.293C277.235 111.424 277.226 111.54 277.207 111.643C277.198 111.746 277.184 111.853 277.165 111.965H271.481C271.5 112.338 271.56 112.656 271.663 112.917C271.766 113.169 271.901 113.374 272.069 113.533C272.237 113.692 272.428 113.808 272.643 113.883C272.867 113.948 273.096 113.981 273.329 113.981C273.796 113.981 274.178 113.869 274.477 113.645C274.776 113.412 274.967 113.108 275.051 112.735H277.137C277.062 113.136 276.918 113.51 276.703 113.855C276.498 114.2 276.232 114.499 275.905 114.751C275.588 115.003 275.219 115.204 274.799 115.353C274.379 115.493 273.922 115.563 273.427 115.563C272.858 115.563 272.335 115.474 271.859 115.297C271.392 115.11 270.986 114.849 270.641 114.513C270.296 114.168 270.025 113.748 269.829 113.253C269.642 112.758 269.549 112.203 269.549 111.587C269.549 110.962 269.642 110.406 269.829 109.921C270.025 109.426 270.296 109.011 270.641 108.675C270.986 108.33 271.392 108.068 271.859 107.891C272.335 107.704 272.858 107.611 273.427 107.611C274.015 107.611 274.542 107.704 275.009 107.891C275.476 108.068 275.872 108.325 276.199 108.661C276.535 108.988 276.792 109.375 276.969 109.823C277.146 110.271 277.235 110.761 277.235 111.293ZM275.247 111.097C275.266 110.761 275.224 110.472 275.121 110.229C275.018 109.977 274.883 109.776 274.715 109.627C274.547 109.468 274.351 109.352 274.127 109.277C273.903 109.202 273.67 109.165 273.427 109.165C272.923 109.165 272.484 109.324 272.111 109.641C271.738 109.949 271.528 110.434 271.481 111.097H275.247ZM288.506 107.597C289.44 107.597 290.182 107.886 290.732 108.465C291.283 109.034 291.558 109.865 291.558 110.957V115.465H289.598V111.181C289.598 110.565 289.444 110.103 289.136 109.795C288.828 109.478 288.413 109.319 287.89 109.319C287.358 109.319 286.924 109.487 286.588 109.823C286.252 110.159 286.084 110.668 286.084 111.349V115.465H284.124V111.181C284.124 110.565 283.97 110.103 283.662 109.795C283.354 109.478 282.939 109.319 282.416 109.319C281.884 109.319 281.45 109.487 281.114 109.823C280.778 110.159 280.61 110.668 280.61 111.349V115.465H278.636V107.709H280.61V109.179C280.816 108.675 281.138 108.288 281.576 108.017C282.024 107.737 282.542 107.597 283.13 107.597C283.746 107.597 284.288 107.746 284.754 108.045C285.221 108.334 285.571 108.764 285.804 109.333C286.047 108.801 286.406 108.381 286.882 108.073C287.358 107.756 287.9 107.597 288.506 107.597ZM298.315 105.105V115.465H296.341V105.105H298.315ZM299.877 105.483C299.877 105.175 299.985 104.918 300.199 104.713C300.423 104.508 300.722 104.405 301.095 104.405C301.469 104.405 301.763 104.508 301.977 104.713C302.201 104.918 302.313 105.175 302.313 105.483C302.313 105.791 302.201 106.048 301.977 106.253C301.763 106.449 301.469 106.547 301.095 106.547C300.722 106.547 300.423 106.449 300.199 106.253C299.985 106.048 299.877 105.791 299.877 105.483ZM302.075 107.709V115.465H300.101V107.709H302.075ZM300.213 117.257C300.213 117.005 300.297 116.79 300.465 116.613C300.643 116.445 300.853 116.361 301.095 116.361C301.347 116.361 301.557 116.445 301.725 116.613C301.903 116.79 301.991 117.005 301.991 117.257C301.991 117.5 301.903 117.705 301.725 117.873C301.557 118.05 301.347 118.139 301.095 118.139C300.853 118.139 300.643 118.05 300.465 117.873C300.297 117.705 300.213 117.5 300.213 117.257ZM307.347 107.611C308.355 107.611 309.19 107.882 309.853 108.423C310.516 108.964 310.931 109.702 311.099 110.635H309.013C308.929 110.215 308.738 109.888 308.439 109.655C308.14 109.422 307.762 109.305 307.305 109.305C307.062 109.305 306.829 109.352 306.605 109.445C306.381 109.529 306.185 109.664 306.017 109.851C305.849 110.038 305.714 110.276 305.611 110.565C305.518 110.854 305.471 111.195 305.471 111.587C305.471 111.979 305.518 112.32 305.611 112.609C305.714 112.889 305.849 113.127 306.017 113.323C306.185 113.51 306.381 113.65 306.605 113.743C306.829 113.827 307.062 113.869 307.305 113.869C307.762 113.869 308.14 113.752 308.439 113.519C308.738 113.286 308.929 112.959 309.013 112.539H311.099C310.931 113.472 310.516 114.21 309.853 114.751C309.19 115.292 308.355 115.563 307.347 115.563C306.778 115.563 306.255 115.474 305.779 115.297C305.312 115.11 304.906 114.849 304.561 114.513C304.216 114.168 303.945 113.748 303.749 113.253C303.562 112.758 303.469 112.203 303.469 111.587C303.469 110.962 303.562 110.406 303.749 109.921C303.945 109.426 304.216 109.011 304.561 108.675C304.906 108.33 305.312 108.068 305.779 107.891C306.255 107.704 306.778 107.611 307.347 107.611ZM317.122 107.597C317.56 107.597 317.957 107.672 318.312 107.821C318.676 107.961 318.988 108.176 319.25 108.465C319.511 108.745 319.712 109.095 319.852 109.515C319.992 109.935 320.062 110.416 320.062 110.957V115.465H318.102V111.181C318.102 110.546 317.938 110.066 317.612 109.739C317.294 109.403 316.865 109.235 316.324 109.235C315.773 109.235 315.325 109.412 314.98 109.767C314.644 110.122 314.476 110.649 314.476 111.349V115.465H312.502V105.105H314.476V109.263C314.69 108.731 315.031 108.32 315.498 108.031C315.964 107.742 316.506 107.597 317.122 107.597ZM326.821 105.105V115.465H324.847V105.105H326.821ZM333.913 106.337L333.549 107.121L331.141 105.945L331.645 104.909L333.913 106.337ZM331.645 107.611C332.317 107.611 332.882 107.77 333.339 108.087C333.806 108.404 334.132 108.815 334.319 109.319V107.709H336.279V115.465H334.319V113.841C334.132 114.354 333.806 114.77 333.339 115.087C332.882 115.404 332.317 115.563 331.645 115.563C331.16 115.563 330.707 115.474 330.287 115.297C329.867 115.11 329.503 114.849 329.195 114.513C328.887 114.168 328.644 113.752 328.467 113.267C328.299 112.772 328.215 112.212 328.215 111.587C328.215 110.962 328.299 110.406 328.467 109.921C328.644 109.426 328.887 109.011 329.195 108.675C329.503 108.33 329.867 108.068 330.287 107.891C330.707 107.704 331.16 107.611 331.645 107.611ZM332.261 109.333C331.654 109.333 331.16 109.529 330.777 109.921C330.404 110.313 330.217 110.868 330.217 111.587C330.217 112.296 330.404 112.847 330.777 113.239C331.16 113.631 331.654 113.827 332.261 113.827C332.56 113.827 332.83 113.776 333.073 113.673C333.325 113.57 333.544 113.421 333.731 113.225C333.918 113.029 334.062 112.796 334.165 112.525C334.268 112.245 334.319 111.932 334.319 111.587C334.319 111.232 334.268 110.92 334.165 110.649C334.062 110.369 333.918 110.131 333.731 109.935C333.544 109.739 333.325 109.59 333.073 109.487C332.83 109.384 332.56 109.333 332.261 109.333ZM347.938 107.597C348.871 107.597 349.613 107.886 350.164 108.465C350.715 109.034 350.99 109.865 350.99 110.957V115.465H349.03V111.181C349.03 110.565 348.876 110.103 348.568 109.795C348.26 109.478 347.845 109.319 347.322 109.319C346.79 109.319 346.356 109.487 346.02 109.823C345.684 110.159 345.516 110.668 345.516 111.349V115.465H343.556V111.181C343.556 110.565 343.402 110.103 343.094 109.795C342.786 109.478 342.371 109.319 341.848 109.319C341.316 109.319 340.882 109.487 340.546 109.823C340.21 110.159 340.042 110.668 340.042 111.349V115.465H338.068V107.709H340.042V109.179C340.247 108.675 340.569 108.288 341.008 108.017C341.456 107.737 341.974 107.597 342.562 107.597C343.178 107.597 343.719 107.746 344.186 108.045C344.653 108.334 345.003 108.764 345.236 109.333C345.479 108.801 345.838 108.381 346.314 108.073C346.79 107.756 347.331 107.597 347.938 107.597ZM359.147 113.491L361.107 107.709H363.207L360.337 115.465H357.929L355.059 107.709H357.173L359.147 113.491ZM364.08 105.483C364.08 105.175 364.188 104.918 364.402 104.713C364.626 104.508 364.925 104.405 365.298 104.405C365.672 104.405 365.966 104.508 366.18 104.713C366.404 104.918 366.516 105.175 366.516 105.483C366.516 105.791 366.404 106.048 366.18 106.253C365.966 106.449 365.672 106.547 365.298 106.547C364.925 106.547 364.626 106.449 364.402 106.253C364.188 106.048 364.08 105.791 364.08 105.483ZM366.278 107.709V115.465H364.304V107.709H366.278ZM369.996 107.065L369.66 106.239L371.508 105.203L373.342 106.239L373.006 107.065L371.508 106.295L369.996 107.065ZM375.358 111.293C375.358 111.424 375.349 111.54 375.33 111.643C375.321 111.746 375.307 111.853 375.288 111.965H369.604C369.623 112.338 369.683 112.656 369.786 112.917C369.889 113.169 370.024 113.374 370.192 113.533C370.36 113.692 370.551 113.808 370.766 113.883C370.99 113.948 371.219 113.981 371.452 113.981C371.919 113.981 372.301 113.869 372.6 113.645C372.899 113.412 373.09 113.108 373.174 112.735H375.26C375.185 113.136 375.041 113.51 374.826 113.855C374.621 114.2 374.355 114.499 374.028 114.751C373.711 115.003 373.342 115.204 372.922 115.353C372.502 115.493 372.045 115.563 371.55 115.563C370.981 115.563 370.458 115.474 369.982 115.297C369.515 115.11 369.109 114.849 368.764 114.513C368.419 114.168 368.148 113.748 367.952 113.253C367.765 112.758 367.672 112.203 367.672 111.587C367.672 110.962 367.765 110.406 367.952 109.921C368.148 109.426 368.419 109.011 368.764 108.675C369.109 108.33 369.515 108.068 369.982 107.891C370.458 107.704 370.981 107.611 371.55 107.611C372.138 107.611 372.665 107.704 373.132 107.891C373.599 108.068 373.995 108.325 374.322 108.661C374.658 108.988 374.915 109.375 375.092 109.823C375.269 110.271 375.358 110.761 375.358 111.293ZM373.37 111.097C373.389 110.761 373.347 110.472 373.244 110.229C373.141 109.977 373.006 109.776 372.838 109.627C372.67 109.468 372.474 109.352 372.25 109.277C372.026 109.202 371.793 109.165 371.55 109.165C371.046 109.165 370.607 109.324 370.234 109.641C369.861 109.949 369.651 110.434 369.604 111.097H373.37ZM371.508 116.361C371.76 116.361 371.97 116.445 372.138 116.613C372.315 116.79 372.404 117.005 372.404 117.257C372.404 117.5 372.315 117.705 372.138 117.873C371.97 118.05 371.76 118.139 371.508 118.139C371.265 118.139 371.055 118.05 370.878 117.873C370.71 117.705 370.626 117.5 370.626 117.257C370.626 117.005 370.71 116.79 370.878 116.613C371.055 116.445 371.265 116.361 371.508 116.361ZM380.245 107.611C381.253 107.611 382.089 107.882 382.751 108.423C383.414 108.964 383.829 109.702 383.997 110.635H381.911C381.827 110.215 381.636 109.888 381.337 109.655C381.039 109.422 380.661 109.305 380.203 109.305C379.961 109.305 379.727 109.352 379.503 109.445C379.279 109.529 379.083 109.664 378.915 109.851C378.747 110.038 378.612 110.276 378.509 110.565C378.416 110.854 378.369 111.195 378.369 111.587C378.369 111.979 378.416 112.32 378.509 112.609C378.612 112.889 378.747 113.127 378.915 113.323C379.083 113.51 379.279 113.65 379.503 113.743C379.727 113.827 379.961 113.869 380.203 113.869C380.661 113.869 381.039 113.752 381.337 113.519C381.636 113.286 381.827 112.959 381.911 112.539H383.997C383.829 113.472 383.414 114.21 382.751 114.751C382.089 115.292 381.253 115.563 380.245 115.563C379.676 115.563 379.153 115.474 378.677 115.297C378.211 115.11 377.805 114.849 377.459 114.513C377.114 114.168 376.843 113.748 376.647 113.253C376.461 112.758 376.367 112.203 376.367 111.587C376.367 110.962 376.461 110.406 376.647 109.921C376.843 109.426 377.114 109.011 377.459 108.675C377.805 108.33 378.211 108.068 378.677 107.891C379.153 107.704 379.676 107.611 380.245 107.611Z" fill="#727272"/>
<path d="M417.352 132.554C417.352 132.554 427.06 132.064 439.855 127.217C440.122 128.291 437.758 131.642 437.757 132.554C429.65 143.965 426.948 145.045 419.745 151.432C402.832 159.838 412.283 180.582 412.283 180.582L408.52 182.107C408.52 182.107 401.685 174.885 401.221 161.267C400.786 147.637 417.352 132.554 417.352 132.554Z" fill="url(#paint15_linear)"/>
<path d="M439.378 126.131C441.54 136.399 431.178 154.266 431.178 154.266C431.178 154.266 432.972 180.883 432.534 186.49C432.468 187.091 432.431 187.435 432.335 187.513C432.011 187.696 431.801 188.023 431.553 188.301C430.991 189.07 430.496 190.018 429.282 189.98C427.637 189.898 420.874 163.378 419.526 158.588C418.621 155.321 417.828 141.458 417.409 132.937C417.368 131.325 418.351 123.484 418.301 122.348C422.396 124.292 427.488 123.97 439.378 126.131Z" fill="#D5D5D5"/>
<path d="M442.502 97.2438C442.8 98.1005 443.069 99.2151 443.187 100.531C444.161 109.544 442.913 129.64 440.459 130.996C439.379 131.536 437.921 132.218 436.514 132.747C434.518 133.498 430.765 130.416 425.514 128.701C424.338 128.319 423.027 127.967 421.651 127.825C420.36 127.692 418.974 127.637 417.569 127.753C417.215 127.803 416.919 127.729 416.68 127.531C415.722 126.737 417.916 120.406 419.537 118.312C421.549 115.824 425.066 105.926 424.948 104.609C424.919 104.476 424.89 104.343 424.775 104.2C424.66 104.058 424.507 103.868 424.306 103.717C422.831 102.479 419.329 100.683 417.569 99.6761C417.243 99.4687 416.956 99.3087 416.755 99.1576C416.592 99.0539 416.439 98.8642 416.334 98.636C415.585 97.1242 416.094 93.6553 418.509 92.252C418.509 92.252 418.978 92.3437 419.714 92.376C421.731 92.6272 425.728 93.0821 426.836 92.892C426.884 92.8534 426.97 92.8623 427.056 92.8711C428.164 92.6809 431.671 92.0421 435.103 92.4824C438.23 92.9348 441.32 94.1224 442.502 97.2438Z" fill="url(#paint16_linear)"/>
<path d="M434.442 81.8072C434.788 82.6254 434.465 83.9833 433.923 85.3622C433.258 87.0761 432.191 88.8791 431.6 89.9051C431.391 90.2313 431.276 90.4804 431.258 90.6524C430.403 88.5211 431.358 88.1412 431.47 87.1094C431.545 86.0302 430.951 85.4909 430.493 85.7045C429.948 85.9093 430.379 86.3449 429.911 86.6446C429.405 86.8968 429.536 85.3017 429.277 84.8838C429.277 84.8838 428.125 87.0693 425.009 87.3136C423.777 87.4475 422.964 87.3204 422.419 87.1338C421.577 86.8733 421.414 86.3782 421.414 86.3782C421.414 86.3782 420.088 88.1546 418.059 86.424C417.417 85.9233 416.928 85.2208 416.621 84.4501C415.9 82.6804 416.221 80.5398 418.884 78.8577C422.665 76.508 426.474 79.074 426.474 79.074C426.474 79.074 427.712 76.8974 429.903 77.5576C432.093 78.2179 431.639 80.7796 431.639 80.7796C431.639 80.7796 433.51 79.5811 434.442 81.8072Z" fill="#929292"/>
<path d="M431.422 87.1481C431.348 88.2273 430.355 88.5597 431.21 90.691C431.162 90.7296 431.105 90.8541 431.009 90.9313C430.447 91.6994 429.169 93.0459 427.64 93.1058C427.114 93.1386 426.521 92.9906 425.956 92.5847C424.779 91.8114 423.858 90.2819 423.177 88.951C422.822 88.2188 422.543 87.5815 422.342 87.0391C422.887 87.2256 423.7 87.3528 424.932 87.2189C428.01 86.9271 429.2 84.789 429.2 84.789L429.238 84.8364C429.44 85.3789 429.328 86.802 429.834 86.5498C430.341 86.2976 429.919 85.776 430.416 85.6098C430.951 85.4909 431.497 86.0689 431.422 87.1481Z" fill="#ECECEC"/>
<path d="M431.009 90.9317C431.777 92.2714 432.561 92.6565 432.516 93.8692C432.488 94.1271 432.421 94.3376 432.259 94.6253C431.478 95.8056 429.148 96.8264 428.897 95.9311C428.743 95.3501 428.397 94.5319 427.956 93.7909C427.851 93.5627 427.697 93.373 427.592 93.1448C429.207 93.0937 430.447 91.6998 431.009 90.9317Z" fill="#ECECEC"/>
<path d="M415.998 186.046C413.026 186.601 404.563 195.024 402.825 195.728C401.088 196.432 398.673 195.465 401.403 192.218C404.111 188.916 407.695 181.498 407.695 181.498C408.829 181.881 409.568 181.128 410.319 180.564C410.61 180.317 410.923 180.125 411.282 180.044C411.394 179.999 411.528 179.685 411.763 179.136C412.89 181.274 417.568 185.734 415.998 186.046Z" fill="#BDBDBD"/>
<path d="M418.538 92.3869C416.123 93.7902 415.575 97.2117 416.362 98.7709C416.362 98.7709 409.278 98.4968 407.393 97.0419C405.468 95.5396 395.021 81.0533 395.021 81.0533C395.021 81.0533 390.409 75.9558 388.781 74.5274C388.367 73.1371 392.733 74.9053 394.524 76.4374C396.314 77.9694 396.538 79.9053 396.538 79.9053L411.156 91.0617L418.538 92.3869Z" fill="#F4F4F4"/>
<path d="M438.634 191.987C435.913 193.402 430.18 204.071 428.701 205.267C427.222 206.462 424.593 206.235 426.286 202.279C427.941 198.276 429.234 190.019 429.234 190.019C430.448 190.057 430.943 189.108 431.506 188.34C431.715 188.014 431.963 187.735 432.288 187.551C432.383 187.474 432.421 187.13 432.486 186.528C434.21 188.271 440.066 191.221 438.634 191.987Z" fill="#BDBDBD"/>
<path d="M429.752 102.453C430.863 103.829 432.589 106.354 432.861 108.643C421.845 115.507 409.556 117.285 401.467 116.061C397.668 118.583 393.34 119.572 391.456 118.9C391.626 117.743 398.05 113.884 398.231 113.424C398.412 112.964 397.931 111.393 398.36 111.046C398.79 110.699 400.094 112.703 400.094 112.703C400.094 112.703 405.025 112.558 411.693 110.463C413.088 110.041 414.492 109.534 415.953 108.901C420.05 107.237 424.538 104.786 428.832 101.315C428.822 101.401 429.215 101.79 429.752 102.453Z" fill="#F4F4F4"/>
<g opacity="0.25">
<path opacity="0.25" d="M437.01 94.9403C437.661 95.3551 434.037 99.4598 429.752 102.453C429.215 101.789 428.87 101.362 428.87 101.362C431.419 99.9293 437.01 94.9403 437.01 94.9403Z" fill="white"/>
<path opacity="0.25" d="M429.752 102.453C428.998 102.984 428.244 103.515 427.461 103.912C424.396 105.684 419.487 107.613 415.991 108.948C420.088 107.283 424.576 104.833 428.87 101.362C428.822 101.401 429.215 101.789 429.752 102.453Z" fill="white"/>
</g>
<defs>
<filter id="filter0_d" x="161.86" y="63.0098" width="253.471" height="93.4949" filterUnits="userSpaceOnUse" color-interpolation-filters="sRGB">
<feFlood flood-opacity="0" result="BackgroundImageFix"/>
<feColorMatrix in="SourceAlpha" type="matrix" values="0 0 0 0 0 0 0 0 0 0 0 0 0 0 0 0 0 0 127 0"/>
<feOffset dy="2"/>
<feGaussianBlur stdDeviation="5"/>
<feColorMatrix type="matrix" values="0 0 0 0 0 0 0 0 0 0 0 0 0 0 0 0 0 0 0.15 0"/>
<feBlend mode="normal" in2="BackgroundImageFix" result="effect1_dropShadow"/>
<feBlend mode="normal" in="SourceGraphic" in2="effect1_dropShadow" result="shape"/>
</filter>
<linearGradient id="paint0_linear" x1="462.845" y1="148.486" x2="495.984" y2="79.3145" gradientUnits="userSpaceOnUse">
<stop offset="0.00398406" stop-color="#BBBBBB"/>
<stop offset="1" stop-color="#EFEFEF"/>
</linearGradient>
<linearGradient id="paint1_linear" x1="454.361" y1="161.274" x2="528.668" y2="142.248" gradientUnits="userSpaceOnUse">
<stop offset="0.00398406" stop-color="#BBBBBB"/>
<stop offset="1" stop-color="#EFEFEF"/>
</linearGradient>
<linearGradient id="paint2_linear" x1="128.92" y1="90.2832" x2="140.612" y2="116.421" gradientUnits="userSpaceOnUse">
<stop stop-color="#EEEEEE"/>
<stop offset="1" stop-color="#DADADA"/>
</linearGradient>
<linearGradient id="paint3_linear" x1="353.449" y1="130.994" x2="458.289" y2="208.279" gradientUnits="userSpaceOnUse">
<stop stop-color="#FAFAFA"/>
<stop offset="1" stop-color="#E3E3E3"/>
</linearGradient>
<linearGradient id="paint4_linear" x1="121.981" y1="152.236" x2="88.8419" y2="83.0645" gradientUnits="userSpaceOnUse">
<stop offset="0.00398406" stop-color="#BBBBBB"/>
<stop offset="1" stop-color="#EFEFEF"/>
</linearGradient>
<linearGradient id="paint5_linear" x1="112.374" y1="167.005" x2="90.3062" y2="145.643" gradientUnits="userSpaceOnUse">
<stop offset="0.00398406" stop-color="#7B7B7B"/>
<stop offset="1" stop-color="#CECECE"/>
</linearGradient>
<linearGradient id="paint6_linear" x1="108.992" y1="178.489" x2="72.5776" y2="158.146" gradientUnits="userSpaceOnUse">
<stop offset="0.00398406" stop-color="#B3B3B3"/>
<stop offset="1" stop-color="#EAEAEA"/>
</linearGradient>
<linearGradient id="paint7_linear" x1="125.383" y1="139.1" x2="259.949" y2="208.28" gradientUnits="userSpaceOnUse">
<stop stop-color="#F6F6F6"/>
<stop offset="1" stop-color="#EAEAEA"/>
</linearGradient>
<linearGradient id="paint8_linear" x1="319.71" y1="30.7837" x2="333.897" y2="86.2719" gradientUnits="userSpaceOnUse">
<stop stop-color="#F9F9F9"/>
<stop offset="1" stop-color="#CECECE"/>
</linearGradient>
<linearGradient id="paint9_linear" x1="199.708" y1="-4.40492" x2="183.292" y2="59.8048" gradientUnits="userSpaceOnUse">
<stop stop-color="#EEEEEE"/>
<stop offset="1" stop-color="#C5C5C5"/>
</linearGradient>
<linearGradient id="paint10_linear" x1="239.314" y1="35.9069" x2="254.659" y2="56.4309" gradientUnits="userSpaceOnUse">
<stop stop-color="#F0F0F0"/>
<stop offset="1" stop-color="#DCDCDC"/>
</linearGradient>
<linearGradient id="paint11_linear" x1="151.076" y1="181.381" x2="133.265" y2="183.227" gradientUnits="userSpaceOnUse">
<stop/>
<stop offset="0.7462" stop-opacity="0"/>
</linearGradient>
<linearGradient id="paint12_linear" x1="152.761" y1="191.16" x2="152.761" y2="238.407" gradientUnits="userSpaceOnUse">
<stop stop-color="#B5B5B5"/>
<stop offset="1" stop-color="#D2D2D2"/>
</linearGradient>
<linearGradient id="paint13_linear" x1="264.816" y1="134.778" x2="292.918" y2="160.719" gradientUnits="userSpaceOnUse">
<stop stop-color="#D8D8D8"/>
<stop offset="0.0001" stop-color="#F9F9F9"/>
<stop offset="1" stop-color="#CECECE"/>
</linearGradient>
<linearGradient id="paint14_linear" x1="408.574" y1="51.9711" x2="428.028" y2="69.9304" gradientUnits="userSpaceOnUse">
<stop stop-color="#D8D8D8"/>
<stop offset="0.0001" stop-color="#F9F9F9"/>
<stop offset="1" stop-color="#CECECE"/>
</linearGradient>
<linearGradient id="paint15_linear" x1="414.909" y1="133.544" x2="430.91" y2="173.035" gradientUnits="userSpaceOnUse">
<stop stop-color="#B5B5B5"/>
<stop offset="1" stop-color="#D2D2D2"/>
</linearGradient>
<linearGradient id="paint16_linear" x1="416.765" y1="120.762" x2="442.927" y2="102.797" gradientUnits="userSpaceOnUse">
<stop stop-color="#E8E8E8"/>
<stop offset="1" stop-color="#999999"/>
</linearGradient>
</defs>
</svg>
