<svg width="34" height="27" viewBox="0 0 34 27" fill="none" xmlns="http://www.w3.org/2000/svg">
<path d="M32.3742 4.17391C31.7057 3.46208 30.7826 3.04146 29.7321 3.04146H24.4478V2.97674C24.4478 2.16785 24.1295 1.3913 23.5883 0.87361C23.0471 0.323559 22.315 0 21.5191 0H11.9692C11.1416 0 10.4094 0.323559 9.86825 0.87361C9.32709 1.42366 9.00875 2.16785 9.00875 2.97674V3.04146H3.7563C2.70581 3.04146 1.78265 3.46208 1.11416 4.17391C0.445663 4.85339 0 5.82406 0 6.85945V22.9727C0 24.0404 0.41383 24.9788 1.11416 25.6582C1.78265 26.3377 2.73764 26.7907 3.7563 26.7907H29.7321C30.7826 26.7907 31.7057 26.3701 32.3742 25.6582C33.0427 24.9788 33.4884 24.0081 33.4884 22.9727V6.85945C33.4884 5.79171 33.0745 4.85339 32.3742 4.17391ZM31.8331 22.9727H31.8012C31.8012 23.5551 31.5784 24.0728 31.1964 24.4611C30.8144 24.8493 30.3051 25.0758 29.7321 25.0758H3.7563C3.18331 25.0758 2.67398 24.8493 2.29198 24.4611C1.90998 24.0728 1.68715 23.5551 1.68715 22.9727V6.85945C1.68715 6.27705 1.90998 5.75935 2.29198 5.37108C2.67398 4.98281 3.18331 4.75632 3.7563 4.75632H9.90008C10.3776 4.75632 10.7596 4.36805 10.7596 3.88271V2.94439C10.7596 2.58847 10.8869 2.26491 11.1097 2.03842C11.3326 1.81193 11.6509 1.68251 12.0011 1.68251H21.5191C21.8693 1.68251 22.1876 1.81193 22.4105 2.03842C22.6333 2.26491 22.7606 2.58847 22.7606 2.94439V3.88271C22.7606 4.36805 23.1426 4.75632 23.6201 4.75632H29.7639C30.3369 4.75632 30.8462 4.98281 31.2282 5.37108C31.6102 5.75935 31.8331 6.27705 31.8331 6.85945V22.9727Z" fill="white"/>
<path d="M16.744 6.95648C14.5794 6.95648 12.6057 7.86245 11.2051 9.28611C9.77258 10.7421 8.91309 12.7158 8.91309 14.916C8.91309 17.1162 9.80441 19.1223 11.2051 20.546C12.6376 22.002 14.5794 22.8756 16.744 22.8756C18.9087 22.8756 20.8823 21.9696 22.283 20.546C23.7155 19.0899 24.5749 17.1162 24.5749 14.916C24.5749 12.7158 23.6836 10.7098 22.283 9.28611C20.8823 7.86245 18.9087 6.95648 16.744 6.95648ZM21.0733 19.3488C19.9592 20.4489 18.4312 21.1607 16.744 21.1607C15.0569 21.1607 13.5289 20.4489 12.4147 19.3488C11.3006 18.2163 10.6321 16.6633 10.6321 14.9484C10.6321 13.2335 11.3324 11.6804 12.4147 10.548C13.5289 9.41553 15.0569 8.73606 16.744 8.73606C18.4312 8.73606 19.9592 9.44789 21.0733 10.548C22.1875 11.6804 22.856 13.2335 22.856 14.9484C22.8878 16.6633 22.1875 18.2163 21.0733 19.3488Z" fill="white"/>
<path d="M28.0769 10.095C28.9384 10.095 29.6367 9.38519 29.6367 8.50957C29.6367 7.63396 28.9384 6.92413 28.0769 6.92413C27.2154 6.92413 26.5171 7.63396 26.5171 8.50957C26.5171 9.38519 27.2154 10.095 28.0769 10.095Z" fill="white"/>
</svg>
