<svg width="20" height="20" viewBox="0 0 20 20" fill="none" xmlns="http://www.w3.org/2000/svg">
<path fill-rule="evenodd" clip-rule="evenodd" d="M10 17.6667C14.2342 17.6667 17.6667 14.2342 17.6667 10C17.6667 5.76582 14.2342 2.33333 10 2.33333C5.76582 2.33333 2.33333 5.76582 2.33333 10C2.33333 14.2342 5.76582 17.6667 10 17.6667ZM10 20C15.5228 20 20 15.5228 20 10C20 4.47715 15.5228 0 10 0C4.47715 0 0 4.47715 0 10C0 15.5228 4.47715 20 10 20Z" fill="#348F6C"/>
<path fill-rule="evenodd" clip-rule="evenodd" d="M8.93223 6.66663C9.56979 6.66663 10.0866 7.18572 10.0866 7.82605V11.0145H12.179C12.8165 11.0145 13.3334 11.5335 13.3334 12.1739C13.3334 12.8142 12.8165 13.3333 12.179 13.3333H8.93223C8.29467 13.3333 7.77783 12.8142 7.77783 12.1739V7.82605C7.77783 7.18572 8.29467 6.66663 8.93223 6.66663Z" fill="#348F6C"/>
</svg>
