<svg width="96" height="96" viewBox="0 0 96 96" fill="none" xmlns="http://www.w3.org/2000/svg">
<circle cx="48" cy="48" r="48" fill="#FF9C68"/>
<path d="M63.6301 38.7786C62.9616 38.0668 62.0384 37.6462 60.9879 37.6462H55.7036V37.5815C55.7036 36.7726 55.3853 35.996 54.8442 35.4783C54.303 34.9283 53.5708 34.6047 52.775 34.6047H43.2251C42.3974 34.6047 41.6653 34.9283 41.1241 35.4783C40.5829 36.0284 40.2646 36.7726 40.2646 37.5815V37.6462H35.0122C33.9617 37.6462 33.0385 38.0668 32.37 38.7786C31.7015 39.4581 31.2559 40.4288 31.2559 41.4642V57.5774C31.2559 58.6452 31.6697 59.5835 32.37 60.263C33.0385 60.9425 33.9935 61.3954 35.0122 61.3954H60.9879C62.0384 61.3954 62.9616 60.9748 63.6301 60.263C64.2986 59.5835 64.7442 58.6128 64.7442 57.5774V41.4642C64.7442 40.3964 64.3304 39.4581 63.6301 38.7786ZM63.0889 57.5774H63.0571C63.0571 58.1598 62.8343 58.6775 62.4523 59.0658C62.0703 59.4541 61.5609 59.6806 60.9879 59.6806H35.0122C34.4392 59.6806 33.9298 59.4541 33.5478 59.0658C33.1658 58.6775 32.943 58.1598 32.943 57.5774V41.4642C32.943 40.8818 33.1658 40.3641 33.5478 39.9758C33.9298 39.5875 34.4392 39.3611 35.0122 39.3611H41.1559C41.6334 39.3611 42.0154 38.9728 42.0154 38.4874V37.5491C42.0154 37.1932 42.1428 36.8697 42.3656 36.6432C42.5884 36.4167 42.9068 36.2872 43.2569 36.2872H52.775C53.1252 36.2872 53.4435 36.4167 53.6663 36.6432C53.8892 36.8697 54.0165 37.1932 54.0165 37.5491V38.4874C54.0165 38.9728 54.3985 39.3611 54.876 39.3611H61.0198C61.5928 39.3611 62.1021 39.5875 62.4841 39.9758C62.8661 40.3641 63.0889 40.8818 63.0889 41.4642V57.5774Z" fill="white"/>
<path d="M47.9999 41.5613C45.8352 41.5613 43.8616 42.4672 42.4609 43.8909C41.0284 45.3469 40.1689 47.3206 40.1689 49.5208C40.1689 51.721 41.0603 53.7271 42.4609 55.1508C43.8934 56.6068 45.8352 57.4804 47.9999 57.4804C50.1645 57.4804 52.1382 56.5744 53.5388 55.1508C54.9713 53.6947 55.8308 51.721 55.8308 49.5208C55.8308 47.3206 54.9395 45.3146 53.5388 43.8909C52.1382 42.4672 50.1645 41.5613 47.9999 41.5613ZM52.3292 53.9536C51.215 55.0537 49.687 55.7655 47.9999 55.7655C46.3127 55.7655 44.7847 55.0537 43.6706 53.9536C42.5564 52.8211 41.8879 51.2681 41.8879 49.5532C41.8879 47.8383 42.5883 46.2852 43.6706 45.1528C44.7847 44.0203 46.3127 43.3409 47.9999 43.3409C49.687 43.3409 51.215 44.0527 52.3292 45.1528C53.4433 46.2852 54.1118 47.8383 54.1118 49.5532C54.1437 51.2681 53.4433 52.8211 52.3292 53.9536Z" fill="white"/>
<path d="M59.3328 44.6997C60.1942 44.6997 60.8926 43.9899 60.8926 43.1142C60.8926 42.2386 60.1942 41.5288 59.3328 41.5288C58.4713 41.5288 57.7729 42.2386 57.7729 43.1142C57.7729 43.9899 58.4713 44.6997 59.3328 44.6997Z" fill="white"/>
</svg>
