<svg width="20" height="20" viewBox="0 0 20 20" fill="none" xmlns="http://www.w3.org/2000/svg">
<path fill-rule="evenodd" clip-rule="evenodd" d="M10 17.6667C14.2342 17.6667 17.6667 14.2342 17.6667 10C17.6667 5.76582 14.2342 2.33333 10 2.33333C5.76582 2.33333 2.33333 5.76582 2.33333 10C2.33333 14.2342 5.76582 17.6667 10 17.6667ZM10 20C15.5228 20 20 15.5228 20 10C20 4.47715 15.5228 0 10 0C4.47715 0 0 4.47715 0 10C0 15.5228 4.47715 20 10 20Z" fill="#E0E1E0"/>
<path fill-rule="evenodd" clip-rule="evenodd" d="M8.71212 5.83337C9.38156 5.83337 9.92424 6.35246 9.92424 6.99279V10.1812H12.1212C12.7906 10.1812 13.3333 10.7003 13.3333 11.3406C13.3333 11.981 12.7906 12.5 12.1212 12.5H8.71212C8.04269 12.5 7.5 11.981 7.5 11.3406V6.99279C7.5 6.35246 8.04269 5.83337 8.71212 5.83337Z" fill="#E0E1E0"/>
</svg>
