<svg width="24" height="24" viewBox="0 0 24 24" fill="none" xmlns="http://www.w3.org/2000/svg">
<path d="M7.46399 11.6214H12.0836" stroke="#686868" stroke-width="1.2" stroke-linecap="round" stroke-linejoin="round"/>
<path d="M7.46399 8.07973H11.7756" stroke="#686868" stroke-width="1.2" stroke-linecap="round" stroke-linejoin="round"/>
<path d="M7.46399 15.471H9.92776" stroke="#686868" stroke-width="1.2" stroke-linecap="round" stroke-linejoin="round"/>
<path d="M10.5436 19.1667H5.61606C5.45271 19.1667 5.29604 19.1018 5.18053 18.9863C5.06502 18.8708 5.00012 18.7141 5.00012 18.5507V5.61594C5.00012 5.45258 5.06502 5.29592 5.18053 5.18041C5.29604 5.06489 5.45271 5 5.61606 5H13.8038C13.9671 5.00003 14.1238 5.06495 14.2393 5.18047L16.5226 7.46377C16.6381 7.57925 16.703 7.7359 16.703 7.89924V9.92754" stroke="#686868" stroke-width="1.2" stroke-linecap="round" stroke-linejoin="round"/>
<path d="M15.5483 11.4345L16.5549 13.773H18.5138C18.6127 13.7692 18.7103 13.7962 18.7934 13.8501C18.8764 13.904 18.9409 13.9822 18.9779 14.0741C19.0148 14.1661 19.0226 14.2672 19.0001 14.3637C18.9775 14.4602 18.9258 14.5474 18.8519 14.6134L17.1514 16.1304L18.0932 18.3006C18.1346 18.3998 18.1438 18.5095 18.1196 18.6143C18.0954 18.7191 18.039 18.8136 17.9584 18.8847C17.8777 18.9557 17.7769 18.9996 17.67 19.0102C17.5632 19.0208 17.4557 18.9976 17.3627 18.9438L15.0866 17.6593L12.8105 18.9438C12.7175 18.9976 12.61 19.0208 12.5031 19.0102C12.3963 18.9996 12.2954 18.9557 12.2148 18.8847C12.1341 18.8136 12.0778 18.7191 12.0536 18.6143C12.0294 18.5095 12.0386 18.3998 12.0799 18.3006L13.0218 16.1304L11.3212 14.6134C11.2471 14.5477 11.1951 14.4607 11.1723 14.3642C11.1495 14.2678 11.1571 14.1666 11.1939 14.0746C11.2307 13.9826 11.2949 13.9043 11.3779 13.8503C11.4609 13.7963 11.5585 13.7693 11.6574 13.773H13.6196L14.6274 11.4345C14.6723 11.3513 14.7387 11.2819 14.8198 11.2334C14.9009 11.185 14.9935 11.1594 15.0879 11.1594C15.1823 11.1594 15.2749 11.185 15.356 11.2334C15.437 11.2819 15.5035 11.3513 15.5483 11.4345V11.4345Z" stroke="#686868" stroke-width="1.2" stroke-linecap="round" stroke-linejoin="round"/>
</svg>
