<svg width="15" height="14" viewBox="0 0 15 14" fill="none" xmlns="http://www.w3.org/2000/svg">
<path fill-rule="evenodd" clip-rule="evenodd" d="M13.35 1.86667H11.95V0H11.0167V1.86667H4.48333V0H3.55V1.86667H2.15C1.3768 1.86667 0.75 2.49347 0.75 3.26667V12.6C0.75 13.3732 1.3768 14 2.15 14H13.35C14.1232 14 14.75 13.3732 14.75 12.6V3.26667C14.75 2.49347 14.1232 1.86667 13.35 1.86667ZM5.12499 5.25H3.37499V7H5.12499V5.25ZM3.37499 7.875H5.12499V9.625H3.37499V7.875ZM5.12499 10.5H3.37499V12.25H5.12499V10.5ZM6.87499 5.25H8.62499V7H6.87499V5.25ZM8.62499 7.875H6.87499V9.625H8.62499V7.875ZM6.87499 10.5H8.62499V12.25H6.87499V10.5ZM12.125 5.25H10.375V7H12.125V5.25ZM10.375 7.875H12.125V9.625H10.375V7.875ZM12.125 10.5H10.375V12.25H12.125V10.5Z" fill="#0E9560"/>
</svg>
