<svg width="15" height="16" viewBox="0 0 15 16" fill="none" xmlns="http://www.w3.org/2000/svg">
<g clip-path="url(#clip0)">
<path d="M1.94466 7.22527C2.01145 7.25442 2.08891 7.25442 2.15571 7.21945L4.24209 6.18488C4.37565 6.11493 4.43175 5.94008 4.36763 5.79437C4.3062 5.65449 4.15393 5.59037 4.02302 5.65449L2.56175 6.38014C3.25899 4.10409 5.20111 2.58284 7.43708 2.58284C9.77992 2.58284 11.8289 4.29061 12.4193 6.73567C12.4566 6.89012 12.6036 6.98339 12.7452 6.94258C12.8867 6.90178 12.9722 6.74149 12.9348 6.58704C12.283 3.88844 10.023 2 7.43706 2C4.97136 2 2.8262 3.67862 2.0515 6.19072L1.43708 4.51503C1.39168 4.36348 1.23941 4.27897 1.10048 4.32851C0.961562 4.37804 0.8841 4.54415 0.929506 4.6957C0.932185 4.70737 0.93752 4.71901 0.942854 4.73068L1.79504 7.06208C1.82176 7.13494 1.87518 7.19614 1.94466 7.22527Z" fill="white" stroke="white" stroke-width="0.6"/>
<path d="M13.7339 11.5267C13.7312 11.5209 13.7285 11.5151 13.7285 11.5093L12.8763 9.17785C12.8496 9.10499 12.7962 9.04379 12.7268 9.01466C12.66 8.98551 12.5825 8.98844 12.5157 9.02048L10.4293 10.0551C10.2931 10.1163 10.229 10.2882 10.2851 10.4368C10.3412 10.5854 10.4988 10.6554 10.635 10.5942C10.6403 10.5913 10.6457 10.5884 10.651 10.5854L12.1123 9.85979C11.4097 12.1358 9.46493 13.6571 7.23164 13.6571C4.8888 13.6571 2.83983 11.9493 2.24946 9.50426C2.21207 9.34981 2.06513 9.25654 1.92355 9.29736C1.78198 9.33815 1.69648 9.49844 1.73389 9.65289C2.38305 12.3544 4.64574 14.2399 7.23166 14.2399C9.69737 14.2399 11.8399 12.5613 12.6172 10.0492L13.2317 11.7249C13.2824 11.8765 13.4347 11.9551 13.5736 11.8998C13.7125 11.8444 13.7846 11.6783 13.7339 11.5267Z" fill="white" stroke="white" stroke-width="0.6"/>
</g>
<defs>
<clipPath id="clip0">
<rect width="14.6667" height="16" fill="white"/>
</clipPath>
</defs>
</svg>
