<svg width="24" height="24" viewBox="0 0 24 24" fill="none" xmlns="http://www.w3.org/2000/svg">
<mask id="path-1-inside-1" fill="white">
<path d="M18.8384 4.00372H13.7686V2.11732C13.7686 1.77766 13.505 1.50224 13.1795 1.50208L10.8603 1.5C10.5345 1.5 10.2707 1.77605 10.2707 2.11523V4.00372H5.16157C3.96964 4.00372 3 5.01565 3 6.25941V20.2443C3 21.4881 3.96964 22.5 5.16157 22.5H18.8384C20.0304 22.5 21 21.4881 21 20.2443V6.25941C21 5.01565 20.0304 4.00372 18.8384 4.00372ZM11.4498 2.73095L12.5895 2.73191V5.23402H11.4498V2.73095ZM19.821 20.2443C19.821 20.8095 19.3802 21.2695 18.8384 21.2695H5.16157C4.6198 21.2695 4.17904 20.8095 4.17904 20.2443V6.25941C4.17904 5.69417 4.6198 5.23418 5.16157 5.23418H10.2707V5.84926C10.2707 6.18908 10.5346 6.46449 10.8603 6.46449H13.179C13.5047 6.46449 13.7686 6.18908 13.7686 5.84926V5.23418H18.8384C19.3802 5.23418 19.821 5.69401 19.821 6.25941V20.2443Z"/>
</mask>
<path d="M18.8384 4.00372H13.7686V2.11732C13.7686 1.77766 13.505 1.50224 13.1795 1.50208L10.8603 1.5C10.5345 1.5 10.2707 1.77605 10.2707 2.11523V4.00372H5.16157C3.96964 4.00372 3 5.01565 3 6.25941V20.2443C3 21.4881 3.96964 22.5 5.16157 22.5H18.8384C20.0304 22.5 21 21.4881 21 20.2443V6.25941C21 5.01565 20.0304 4.00372 18.8384 4.00372ZM11.4498 2.73095L12.5895 2.73191V5.23402H11.4498V2.73095ZM19.821 20.2443C19.821 20.8095 19.3802 21.2695 18.8384 21.2695H5.16157C4.6198 21.2695 4.17904 20.8095 4.17904 20.2443V6.25941C4.17904 5.69417 4.6198 5.23418 5.16157 5.23418H10.2707V5.84926C10.2707 6.18908 10.5346 6.46449 10.8603 6.46449H13.179C13.5047 6.46449 13.7686 6.18908 13.7686 5.84926V5.23418H18.8384C19.3802 5.23418 19.821 5.69401 19.821 6.25941V20.2443Z" fill="#332A7C"/>
<path d="M13.7686 4.00372H12.2686V5.50372H13.7686V4.00372ZM13.1795 1.50208L13.1782 3.00208L13.1788 3.00208L13.1795 1.50208ZM10.8603 1.5L10.8616 0H10.8603V1.5ZM10.2707 4.00372V5.50372H11.7707V4.00372H10.2707ZM11.4498 2.73095L11.451 1.23095L9.94978 1.22968V2.73095H11.4498ZM12.5895 2.73191H14.0895V1.23318L12.5908 1.23191L12.5895 2.73191ZM12.5895 5.23402V6.73402H14.0895V5.23402H12.5895ZM11.4498 5.23402H9.94978V6.73402H11.4498V5.23402ZM10.2707 5.23418H11.7707V3.73418H10.2707V5.23418ZM13.7686 5.23418V3.73418H12.2686V5.23418H13.7686ZM18.8384 2.50372H13.7686V5.50372H18.8384V2.50372ZM15.2686 4.00372V2.11732H12.2686V4.00372H15.2686ZM15.2686 2.11732C15.2686 1.01109 14.3941 0.00268056 13.1802 0.002083L13.1788 3.00208C12.6158 3.00181 12.2686 2.54422 12.2686 2.11732H15.2686ZM13.1808 0.00208343L10.8616 6.04888e-07L10.8589 3L13.1782 3.00208L13.1808 0.00208343ZM10.8603 0C9.64511 0 8.77074 1.00993 8.77074 2.11523H11.7707C11.7707 2.54218 11.4239 3 10.8603 3V0ZM8.77074 2.11523V4.00372H11.7707V2.11523H8.77074ZM10.2707 2.50372H5.16157V5.50372H10.2707V2.50372ZM5.16157 2.50372C3.08156 2.50372 1.5 4.24815 1.5 6.25941H4.5C4.5 5.78314 4.85771 5.50372 5.16157 5.50372V2.50372ZM1.5 6.25941V20.2443H4.5V6.25941H1.5ZM1.5 20.2443C1.5 22.2556 3.08156 24 5.16157 24V21C4.85771 21 4.5 20.7206 4.5 20.2443H1.5ZM5.16157 24H18.8384V21H5.16157V24ZM18.8384 24C20.9184 24 22.5 22.2556 22.5 20.2443H19.5C19.5 20.7206 19.1423 21 18.8384 21V24ZM22.5 20.2443V6.25941H19.5V20.2443H22.5ZM22.5 6.25941C22.5 4.24815 20.9184 2.50372 18.8384 2.50372V5.50372C19.1423 5.50372 19.5 5.78314 19.5 6.25941H22.5ZM11.4485 4.23095L12.5883 4.23191L12.5908 1.23191L11.451 1.23095L11.4485 4.23095ZM11.0895 2.73191V5.23402H14.0895V2.73191H11.0895ZM12.5895 3.73402H11.4498V6.73402H12.5895V3.73402ZM12.9498 5.23402V2.73095H9.94978V5.23402H12.9498ZM18.321 20.2443C18.321 20.042 18.4922 19.7695 18.8384 19.7695V22.7695C20.2682 22.7695 21.321 21.5771 21.321 20.2443H18.321ZM18.8384 19.7695H5.16157V22.7695H18.8384V19.7695ZM5.16157 19.7695C5.50779 19.7695 5.67904 20.042 5.67904 20.2443H2.67904C2.67904 21.5771 3.73181 22.7695 5.16157 22.7695V19.7695ZM5.67904 20.2443V6.25941H2.67904V20.2443H5.67904ZM5.67904 6.25941C5.67904 6.46175 5.50779 6.73418 5.16157 6.73418V3.73418C3.73181 3.73418 2.67904 4.92659 2.67904 6.25941H5.67904ZM5.16157 6.73418H10.2707V3.73418H5.16157V6.73418ZM8.77074 5.23418V5.84926H11.7707V5.23418H8.77074ZM8.77074 5.84926C8.77074 6.95651 9.6465 7.96449 10.8603 7.96449V4.96449C11.4228 4.96449 11.7707 5.42165 11.7707 5.84926H8.77074ZM10.8603 7.96449H13.179V4.96449H10.8603V7.96449ZM13.179 7.96449C14.3928 7.96449 15.2686 6.95651 15.2686 5.84926H12.2686C12.2686 5.42165 12.6165 4.96449 13.179 4.96449V7.96449ZM15.2686 5.84926V5.23418H12.2686V5.84926H15.2686ZM13.7686 6.73418H18.8384V3.73418H13.7686V6.73418ZM18.8384 6.73418C18.4924 6.73418 18.321 6.46174 18.321 6.25941H21.321C21.321 4.92627 20.268 3.73418 18.8384 3.73418V6.73418ZM18.321 6.25941V20.2443H21.321V6.25941H18.321Z" fill="#666666" mask="url(#path-1-inside-1)"/>
<mask id="path-3-inside-2" fill="white">
<path d="M16.408 15.9375H7.59163C7.18582 15.9375 6.85693 16.2313 6.85693 16.5937C6.85693 16.9562 7.18582 17.25 7.59163 17.25H16.408C16.8138 17.25 17.1426 16.9562 17.1426 16.5937C17.1426 16.2313 16.8138 15.9375 16.408 15.9375Z"/>
</mask>
<path d="M16.408 15.9375H7.59163C7.18582 15.9375 6.85693 16.2313 6.85693 16.5937C6.85693 16.9562 7.18582 17.25 7.59163 17.25H16.408C16.8138 17.25 17.1426 16.9562 17.1426 16.5937C17.1426 16.2313 16.8138 15.9375 16.408 15.9375Z" fill="#332A7C"/>
<path d="M16.408 14.4375H7.59163V17.4375H16.408V14.4375ZM7.59163 14.4375C6.52114 14.4375 5.35693 15.2481 5.35693 16.5937H8.35693C8.35693 17.2145 7.8505 17.4375 7.59163 17.4375V14.4375ZM5.35693 16.5937C5.35693 17.9394 6.52114 18.75 7.59163 18.75V15.75C7.8505 15.75 8.35693 15.973 8.35693 16.5937H5.35693ZM7.59163 18.75H16.408V15.75H7.59163V18.75ZM16.408 18.75C17.4784 18.75 18.6426 17.9394 18.6426 16.5937H15.6426C15.6426 15.973 16.1491 15.75 16.408 15.75V18.75ZM18.6426 16.5937C18.6426 15.2481 17.4784 14.4375 16.408 14.4375V17.4375C16.1491 17.4375 15.6426 17.2145 15.6426 16.5937H18.6426Z" fill="#666666" mask="url(#path-3-inside-2)"/>
<mask id="path-5-inside-3" fill="white">
<path d="M10.0712 18.5625H7.49979C7.14471 18.5625 6.85693 18.8563 6.85693 19.2187C6.85693 19.5811 7.14471 19.875 7.49979 19.875H10.0712C10.4263 19.875 10.7141 19.5811 10.7141 19.2187C10.7141 18.8563 10.4263 18.5625 10.0712 18.5625Z"/>
</mask>
<path d="M10.0712 18.5625H7.49979C7.14471 18.5625 6.85693 18.8563 6.85693 19.2187C6.85693 19.5811 7.14471 19.875 7.49979 19.875H10.0712C10.4263 19.875 10.7141 19.5811 10.7141 19.2187C10.7141 18.8563 10.4263 18.5625 10.0712 18.5625Z" fill="#332A7C"/>
<path d="M10.0712 17.0625H7.49979V20.0625H10.0712V17.0625ZM7.49979 17.0625C6.28728 17.0625 5.35693 18.0572 5.35693 19.2187H8.35693C8.35693 19.6554 8.00215 20.0625 7.49979 20.0625V17.0625ZM5.35693 19.2187C5.35693 20.3799 6.28703 21.375 7.49979 21.375V18.375C8.0024 18.375 8.35693 18.7822 8.35693 19.2187H5.35693ZM7.49979 21.375H10.0712V18.375H7.49979V21.375ZM10.0712 21.375C11.284 21.375 12.2141 20.3799 12.2141 19.2187H9.21408C9.21408 18.7822 9.56861 18.375 10.0712 18.375V21.375ZM12.2141 19.2187C12.2141 18.0572 11.2837 17.0625 10.0712 17.0625V20.0625C9.56886 20.0625 9.21408 19.6554 9.21408 19.2187H12.2141Z" fill="#666666" mask="url(#path-5-inside-3)"/>
<mask id="path-7-inside-4" fill="white">
<path d="M16.4999 18.5625H13.9285C13.5734 18.5625 13.2856 18.8563 13.2856 19.2187C13.2856 19.5811 13.5734 19.875 13.9285 19.875H16.4999C16.855 19.875 17.1428 19.5811 17.1428 19.2187C17.1428 18.8563 16.855 18.5625 16.4999 18.5625Z"/>
</mask>
<path d="M16.4999 18.5625H13.9285C13.5734 18.5625 13.2856 18.8563 13.2856 19.2187C13.2856 19.5811 13.5734 19.875 13.9285 19.875H16.4999C16.855 19.875 17.1428 19.5811 17.1428 19.2187C17.1428 18.8563 16.855 18.5625 16.4999 18.5625Z" fill="#332A7C"/>
<path d="M16.4999 17.0625H13.9285V20.0625H16.4999V17.0625ZM13.9285 17.0625C12.716 17.0625 11.7856 18.0572 11.7856 19.2187H14.7856C14.7856 19.6554 14.4309 20.0625 13.9285 20.0625V17.0625ZM11.7856 19.2187C11.7856 20.3799 12.7157 21.375 13.9285 21.375V18.375C14.4311 18.375 14.7856 18.7822 14.7856 19.2187H11.7856ZM13.9285 21.375H16.4999V18.375H13.9285V21.375ZM16.4999 21.375C17.7127 21.375 18.6428 20.3799 18.6428 19.2187H15.6428C15.6428 18.7822 15.9973 18.375 16.4999 18.375V21.375ZM18.6428 19.2187C18.6428 18.0572 17.7124 17.0625 16.4999 17.0625V20.0625C15.9976 20.0625 15.6428 19.6554 15.6428 19.2187H18.6428Z" fill="#666666" mask="url(#path-7-inside-4)"/>
<path d="M13.0852 10.2905L12.7971 10.7293L13.2493 10.9957C14.0115 11.4448 14.5136 12.2782 14.5136 13.2313V14.4617C14.5136 14.5351 14.4579 14.577 14.4109 14.577H9.58949C9.5425 14.577 9.48682 14.5351 9.48682 14.4617V13.2721C9.48682 12.3493 9.96786 11.471 10.7571 10.9988L11.2059 10.7303L10.9175 10.2941C10.3209 9.39122 10.9718 8.19464 12.0002 8.19464C13.0276 8.19464 13.6773 9.38857 13.0852 10.2905ZM12.0475 10.8863L12.0472 10.8863C10.7274 10.8599 9.69217 11.97 9.69217 13.2721V13.8465V14.3465H10.1922H13.8082H14.3082V13.8465V13.2313C14.3082 11.9714 13.3056 10.9121 12.0475 10.8863ZM13.1029 9.54034C13.1029 8.93479 12.6183 8.42511 12.0002 8.42511C11.3821 8.42511 10.8975 8.93479 10.8975 9.54034C10.8975 10.1461 11.3823 10.6554 12.0002 10.6554C12.6181 10.6554 13.1029 10.1461 13.1029 9.54034Z" fill="#332A7C" stroke="#666666"/>
</svg>
