<svg width="16" height="16" viewBox="0 0 16 16" fill="none" xmlns="http://www.w3.org/2000/svg">
<path d="M8 8.89981V0.799805" stroke="white" stroke-width="1.5" stroke-linecap="round" stroke-linejoin="round"/>
<path d="M8 15.2V12.5" stroke="white" stroke-width="1.5" stroke-linecap="round" stroke-linejoin="round"/>
<path d="M8.00001 12.4994C8.99413 12.4994 9.80002 11.6935 9.80002 10.6994C9.80002 9.7053 8.99413 8.89941 8.00001 8.89941C7.0059 8.89941 6.20001 9.7053 6.20001 10.6994C6.20001 11.6935 7.0059 12.4994 8.00001 12.4994Z" stroke="white" stroke-width="1.5" stroke-linecap="round" stroke-linejoin="round"/>
<path d="M2.59998 8V15.2" stroke="white" stroke-width="1.5" stroke-linecap="round" stroke-linejoin="round"/>
<path d="M2.59998 0.799805V4.39981" stroke="white" stroke-width="1.5" stroke-linecap="round" stroke-linejoin="round"/>
<path d="M2.59999 7.99942C3.5941 7.99942 4.39999 7.19353 4.39999 6.19942C4.39999 5.2053 3.5941 4.39941 2.59999 4.39941C1.60588 4.39941 0.799988 5.2053 0.799988 6.19942C0.799988 7.19353 1.60588 7.99942 2.59999 7.99942Z" stroke="white" stroke-width="1.5" stroke-linecap="round" stroke-linejoin="round"/>
<path d="M13.4 8V15.2" stroke="white" stroke-width="1.5" stroke-linecap="round" stroke-linejoin="round"/>
<path d="M13.4 0.799805V4.39981" stroke="white" stroke-width="1.5" stroke-linecap="round" stroke-linejoin="round"/>
<path d="M13.4 7.99942C14.3941 7.99942 15.2 7.19353 15.2 6.19942C15.2 5.2053 14.3941 4.39941 13.4 4.39941C12.4059 4.39941 11.6 5.2053 11.6 6.19942C11.6 7.19353 12.4059 7.99942 13.4 7.99942Z" stroke="white" stroke-width="1.5" stroke-linecap="round" stroke-linejoin="round"/>
</svg>
