<svg width="24" height="24" viewBox="0 0 24 24" fill="none" xmlns="http://www.w3.org/2000/svg">
<path fill-rule="evenodd" clip-rule="evenodd" d="M4.875 5.14286C4.70924 5.14286 4.55027 5.20306 4.43306 5.31022C4.31585 5.41739 4.25 5.56273 4.25 5.71429V18.2857C4.25 18.4373 4.31585 18.5826 4.43306 18.6898C4.55027 18.7969 4.70924 18.8571 4.875 18.8571H9.25C9.59518 18.8571 9.875 19.113 9.875 19.4286C9.875 19.7442 9.59518 20 9.25 20H4.875C4.37772 20 3.9008 19.8194 3.54917 19.4979C3.19754 19.1764 3 18.7404 3 18.2857V5.71429C3 5.25963 3.19754 4.82359 3.54917 4.5021C3.90081 4.18061 4.37772 4 4.875 4H13.7325C14.2294 4.0001 14.7061 4.18055 15.0576 4.50171L17.4511 6.69003C17.8024 7.0114 17.9999 7.44725 18 7.90159V10.8571C18 11.1727 17.7202 11.4286 17.375 11.4286C17.0298 11.4286 16.75 11.1727 16.75 10.8571V7.90184C16.7499 7.75043 16.6841 7.60512 16.5671 7.49803L14.174 5.3101C14.0569 5.20307 13.8981 5.14292 13.7325 5.14286H4.875Z" fill="#666666" stroke="#666666" stroke-width="0.6" stroke-linecap="round" stroke-linejoin="round"/>
<path fill-rule="evenodd" clip-rule="evenodd" d="M18.3212 16.5302C19.3667 15.9682 19.8435 15.0656 19.9624 14.4283C20.0154 14.1441 20.3179 13.9682 20.6381 14.0355C20.9582 14.1028 21.1748 14.3878 21.1218 14.672C20.9579 15.5504 20.3282 16.7199 18.9733 17.4481C17.6011 18.1856 15.5718 18.4253 12.7224 17.5838C12.4084 17.491 12.2201 17.1913 12.3019 16.9144C12.3837 16.6374 12.7045 16.4881 13.0186 16.5809C15.6278 17.3514 17.2929 17.0828 18.3212 16.5302Z" fill="#666666" stroke="#666666" stroke-width="0.5" stroke-linecap="round" stroke-linejoin="round"/>
<path fill-rule="evenodd" clip-rule="evenodd" d="M13.0889 20.3878L11.0496 16.8308C10.9084 16.4283 11.0673 15.8904 11.4045 15.6292L14.9683 14.0427C15.2109 13.923 15.6934 13.896 15.8346 14.2985C15.9759 14.701 15.7922 15.3452 15.328 15.5656L13.1976 16.5964L13.0438 17.1172L14.3101 19.442C14.4576 19.7718 14.2925 20.3825 13.9553 20.6437C13.618 20.9048 13.303 20.7511 13.0889 20.3878Z" fill="#666666" stroke="#666666" stroke-width="0.3"/>
</svg>
