<svg width="16" height="16" viewBox="0 0 16 16" fill="none" xmlns="http://www.w3.org/2000/svg">
<path d="M13.3797 5.62025L5.74989 13.25L2 14L2.74998 10.2501L10.3797 2.62034C10.5761 2.42369 10.8093 2.26768 11.066 2.16123C11.3227 2.05479 11.5978 2 11.8757 2C12.1536 2 12.4288 2.05479 12.6854 2.16123C12.9421 2.26768 13.1753 2.42369 13.3717 2.62034L13.3797 2.62834C13.5763 2.82468 13.7323 3.05786 13.8388 3.31455C13.9452 3.57125 14 3.8464 14 4.12429C14 4.40218 13.9452 4.67734 13.8388 4.93403C13.7323 5.19072 13.5763 5.42391 13.3797 5.62025V5.62025Z" stroke="#0E9560" stroke-width="1.5" stroke-linecap="round" stroke-linejoin="round"/>
</svg>
