<svg width="24" height="24" viewBox="0 0 24 24" fill="none" xmlns="http://www.w3.org/2000/svg">
<path d="M12.2856 1.5C9.18207 1.5 6.65713 4.02498 6.65713 7.1285C6.65713 9.05086 7.6261 10.7509 9.10106 11.7668C7.72399 12.242 6.225 12.525 4.65 14.1C3.17917 15.5708 1.5 18.825 1.5 22.5H3.02122C3.6 15.15 7.64834 12.757 12.2856 12.757C15.3892 12.757 17.9141 10.2321 17.9141 7.1285C17.9141 4.02494 15.3892 1.5 12.2856 1.5ZM12.2856 11.2358C10.0209 11.2358 8.17835 9.3933 8.17835 7.12854C8.17835 4.86378 10.0209 3.02122 12.2856 3.02122C14.5504 3.02122 16.3929 4.86374 16.3929 7.12854C16.3929 9.39334 14.5504 11.2358 12.2856 11.2358Z" fill="#FF9C68"/>
<circle cx="17.7748" cy="17.7748" r="4.725" stroke="#FF9C68" stroke-width="1.2"/>
<path d="M17.7744 15.8848V19.6648" stroke="#FF9C68" stroke-width="1.5" stroke-linecap="round"/>
<path d="M15.8848 17.7749L19.6648 17.7749" stroke="#FF9C68" stroke-width="1.5" stroke-linecap="round"/>
</svg>
