<svg width="24" height="24" viewBox="0 0 24 24" fill="none" xmlns="http://www.w3.org/2000/svg">
<path fill-rule="evenodd" clip-rule="evenodd" d="M12.6248 9.45824C11.6918 10.5055 11.4688 11.7604 11.5423 12.5692C11.5751 12.9299 11.3093 13.2488 10.9486 13.2816C10.588 13.3144 10.269 13.0486 10.2362 12.688C10.1349 11.5732 10.4365 9.94296 11.6456 8.58583C12.87 7.21143 14.9475 6.20236 18.2335 6.20236C18.5957 6.20236 18.8893 6.49595 18.8893 6.8581C18.8893 7.22025 18.5957 7.51384 18.2335 7.51384C15.2245 7.51384 13.5424 8.42827 12.6248 9.45824Z" fill="#0E9560"/>
<path fill-rule="evenodd" clip-rule="evenodd" d="M5.37423 4.71112C6.12166 4.17297 6.99889 4 7.59344 4H12.9792C13.3414 4 13.635 4.29358 13.635 4.65574C13.635 5.01789 13.3414 5.31148 12.9792 5.31148H7.59344C7.20876 5.31148 6.61714 5.43227 6.14053 5.77543C5.69736 6.09452 5.31148 6.63208 5.31148 7.59344V16.4066C5.31148 16.7912 5.43227 17.3829 5.77543 17.8595C6.09452 18.3026 6.63208 18.6885 7.59344 18.6885H16.4066C17.0013 18.6885 17.5745 18.4895 17.9906 18.1197C18.3946 17.7606 18.6885 17.2079 18.6885 16.4066V10.5311C18.6885 10.169 18.9821 9.87541 19.3443 9.87541C19.7064 9.87541 20 10.169 20 10.5311V16.4066C20 17.5637 19.5595 18.4798 18.8619 19.0999C18.1763 19.7094 17.2807 20 16.4066 20H7.59344C6.20464 20 5.27335 19.4066 4.71112 18.6258C4.17297 17.8783 4 17.0011 4 16.4066V7.59344C4 6.20464 4.59335 5.27335 5.37423 4.71112Z" fill="#0E9560"/>
<path fill-rule="evenodd" clip-rule="evenodd" d="M16.5607 4.42205L19.6029 6.51947C19.859 6.77555 19.859 7.19074 19.6029 7.44683L16.5553 9.3201C16.3512 9.45587 15.884 9.57619 15.6279 9.3201C15.3719 9.06402 15.3654 8.56823 15.7583 8.31449L17.5562 7.13617V6.73422L15.6334 5.3494C15.3923 5.14628 15.3773 4.67813 15.6334 4.42205C15.8895 4.16597 16.2444 4.20905 16.5607 4.42205Z" fill="#0E9560"/>
</svg>
