<svg width="52" height="52" viewBox="0 0 52 52" fill="none" xmlns="http://www.w3.org/2000/svg">
<g filter="url(#filter0_d)">
<g filter="url(#filter1_i)">
<circle cx="26" cy="24" r="16" fill="#DFC992"/>
</g>
<path fill-rule="evenodd" clip-rule="evenodd" d="M28.4936 26.1083C28.5011 25.4079 28.973 24.8264 29.2081 24.6232L31.5625 22.5553C33.5444 20.7537 33.9625 18.6312 33.9784 17.785C33.9886 17.2434 33.6777 17.0149 33.2084 17.0149H18.8285C18.2133 17.0149 18.0224 17.452 18.0225 17.785C18.0674 20.1307 19.862 22.1205 20.7537 22.8222L22.8595 24.67C23.4165 25.1618 23.5465 25.8338 23.5419 26.1083V32.4062C23.7753 33.3024 24.5178 32.9616 24.8598 32.6792L28.1735 30.4669C28.407 30.3163 28.4842 29.9586 28.4936 29.7985V26.1083ZM27.6314 29.6266L27.6241 29.6314C27.6265 29.6298 27.6289 29.6282 27.6314 29.6266ZM27.4936 29.7185V26.0975C27.4997 25.5278 27.6927 25.0395 27.8983 24.6814C28.1009 24.3284 28.3478 24.0458 28.5506 23.8697L30.896 21.8098C32.4407 20.4024 32.876 18.7925 32.9615 18.0149H19.0354C19.1071 18.854 19.4525 19.6664 19.9112 20.3786C20.415 21.1608 21.0106 21.7518 21.3721 22.0363C21.3861 22.0474 21.3999 22.0588 21.4133 22.0705L23.5214 23.9204C24.342 24.6449 24.5472 25.6183 24.5419 26.1148V31.6891L27.4936 29.7185ZM24.0841 31.9904C24.0841 31.9904 24.0845 31.9903 24.0852 31.9901L24.0841 31.9904Z" fill="#333333"/>
</g>
<defs>
<filter id="filter0_d" x="0" y="0" width="52" height="52" filterUnits="userSpaceOnUse" color-interpolation-filters="sRGB">
<feFlood flood-opacity="0" result="BackgroundImageFix"/>
<feColorMatrix in="SourceAlpha" type="matrix" values="0 0 0 0 0 0 0 0 0 0 0 0 0 0 0 0 0 0 127 0"/>
<feOffset dy="2"/>
<feGaussianBlur stdDeviation="5"/>
<feColorMatrix type="matrix" values="0 0 0 0 0 0 0 0 0 0 0 0 0 0 0 0 0 0 0.15 0"/>
<feBlend mode="normal" in2="BackgroundImageFix" result="effect1_dropShadow"/>
<feBlend mode="normal" in="SourceGraphic" in2="effect1_dropShadow" result="shape"/>
</filter>
<filter id="filter1_i" x="7" y="8" width="35" height="33" filterUnits="userSpaceOnUse" color-interpolation-filters="sRGB">
<feFlood flood-opacity="0" result="BackgroundImageFix"/>
<feBlend mode="normal" in="SourceGraphic" in2="BackgroundImageFix" result="shape"/>
<feColorMatrix in="SourceAlpha" type="matrix" values="0 0 0 0 0 0 0 0 0 0 0 0 0 0 0 0 0 0 127 0" result="hardAlpha"/>
<feOffset dx="-3" dy="1"/>
<feGaussianBlur stdDeviation="3"/>
<feComposite in2="hardAlpha" operator="arithmetic" k2="-1" k3="1"/>
<feColorMatrix type="matrix" values="0 0 0 0 0 0 0 0 0 0 0 0 0 0 0 0 0 0 0.35 0"/>
<feBlend mode="normal" in2="shape" result="effect1_innerShadow"/>
</filter>
</defs>
</svg>
