<svg width="14" height="14" viewBox="0 0 14 14" fill="none" xmlns="http://www.w3.org/2000/svg">
<path fill-rule="evenodd" clip-rule="evenodd" d="M9.18177 7.96978C9.18836 7.35693 9.60129 6.84812 9.80693 6.67033L11.8671 4.86097C13.6012 3.2845 13.9671 1.42737 13.981 0.68691C13.9899 0.212991 13.7179 0.0130768 13.3073 0.0130768H0.724781C0.186543 0.0130768 0.0195171 0.395533 0.0195313 0.68691C0.0588165 2.73938 1.62914 4.48047 2.40938 5.09446L4.25195 6.71131C4.73932 7.14161 4.85305 7.72958 4.849 7.96978V13.4805C5.05328 14.2647 5.70292 13.9665 6.00221 13.7194L8.90171 11.7836C9.10599 11.6518 9.17353 11.3388 9.18177 11.1988V7.96978ZM8.42734 11.0484L8.42094 11.0526C8.42304 11.0512 8.42518 11.0497 8.42734 11.0484ZM8.30677 11.1287V7.96037C8.31213 7.46191 8.48099 7.0346 8.66087 6.72127C8.83818 6.4124 9.05423 6.16509 9.23166 6.01101L11.2839 4.20864C12.6355 2.97711 13.0164 1.56852 13.0912 0.888077H0.905815C0.968565 1.62231 1.27083 2.33311 1.67222 2.95632C2.11304 3.64075 2.63416 4.15791 2.95049 4.40683C2.96276 4.41649 2.97477 4.42647 2.98651 4.43677L4.83106 6.05537C5.5491 6.68932 5.72868 7.54102 5.724 7.97552V12.853L8.30677 11.1287ZM5.32343 13.1166C5.32345 13.1166 5.32379 13.1165 5.32445 13.1164Z" fill="white"/>
</svg>
