<svg width="24" height="24" viewBox="0 0 24 24" fill="none" xmlns="http://www.w3.org/2000/svg">
<path d="M14.2348 10.2544C15.012 9.60985 15.5078 8.63735 15.5078 7.55118C15.5078 5.61515 13.9327 4.04004 11.9966 4.04004C10.0606 4.04004 8.48548 5.61515 8.48548 7.55118C8.48548 7.80424 8.51263 8.05105 8.56375 8.28908C8.36381 8.25358 8.15813 8.235 7.94816 8.235C6.0121 8.235 4.43702 9.81011 4.43702 11.7461C4.43702 12.8322 4.93278 13.8046 5.70978 14.4492C3.53616 15.3354 2 17.4714 2 19.9598H3.24567C3.24567 17.3668 5.35518 15.2573 7.94812 15.2573C9.88418 15.2573 11.4593 13.6822 11.4593 11.7462C11.4593 11.4931 11.4321 11.2463 11.381 11.0082C11.5809 11.0437 11.7866 11.0623 11.9966 11.0623C13.7477 11.0623 14.2348 10.2544 14.2348 10.2544ZM7.94816 14.0116C6.69899 14.0116 5.68269 12.9953 5.68269 11.7461C5.68269 10.4969 6.69899 9.48067 7.94816 9.48067C9.19732 9.48067 10.2136 10.497 10.2136 11.7461C10.2136 12.9953 9.19732 14.0116 7.94816 14.0116ZM11.9966 9.81661C10.7475 9.81661 9.73115 8.80034 9.73115 7.55115C9.73115 6.30196 10.7475 5.28571 11.9966 5.28571C13.2458 5.28571 14.2621 6.30199 14.2621 7.55118C14.2621 8.8004 13.2458 9.81661 11.9966 9.81661Z" fill="#686868"/>
<path d="M5.45112 11.2291C5.44011 11.232 5.45112 11.2991 5.45112 11.2991L5.87647 9.61566L7.17995 8.39332C7.3799 8.35783 7.73922 8.23502 7.9492 8.23502C9.88525 8.23502 11.4603 9.81013 11.4603 11.7462C11.4603 12.8322 10.9646 13.8046 10.1876 14.4492C12.3612 15.3354 13.8974 17.4714 13.8974 19.9598H12.6517C12.6517 17.3668 10.5422 15.2573 7.94923 15.2573C6.01317 15.2573 4.43809 13.6822 4.43809 11.7462C4.43809 11.4931 5.45112 11.2291 5.45112 11.2291ZM7.9492 14.0116C9.19836 14.0116 10.2147 12.9954 10.2147 11.7462C10.2147 10.497 9.19836 9.4807 7.9492 9.4807C6.70004 9.4807 5.68373 10.497 5.68373 11.7462C5.68373 12.9953 6.70004 14.0116 7.9492 14.0116ZM5.49199 10.2389L5.45112 11.2991L5.87647 9.61566L5.49199 10.2389Z" fill="#686868"/>
<path d="M9.76516 10.2544C8.98803 9.60985 8.49218 8.63735 8.49218 7.55118C8.49221 5.61515 10.0673 4.04004 12.0034 4.04004C13.9394 4.04004 15.5145 5.61515 15.5145 7.55118C15.5145 7.80424 15.4874 8.05105 15.4362 8.28908C15.6362 8.25358 15.8419 8.235 16.0518 8.235C17.9879 8.235 19.563 9.81011 19.563 11.7461C19.563 12.8322 19.0672 13.8046 18.2902 14.4492C20.4638 15.3354 22 17.4714 22 19.9598H20.7543C20.7543 17.3668 18.6448 15.2573 16.0519 15.2573C14.1158 15.2573 12.5407 13.6822 12.5407 11.7462C12.5407 11.4931 12.5679 11.2463 12.619 11.0082C12.4191 11.0437 12.2134 11.0623 12.0034 11.0623C10.2523 11.0623 9.76516 10.2544 9.76516 10.2544ZM16.0518 14.0116C17.301 14.0116 18.3173 12.9953 18.3173 11.7461C18.3173 10.4969 17.301 9.48067 16.0518 9.48067C14.8027 9.48067 13.7864 10.497 13.7864 11.7461C13.7864 12.9953 14.8027 14.0116 16.0518 14.0116ZM12.0034 9.81661C13.2525 9.81661 14.2688 8.80034 14.2688 7.55115C14.2688 6.30196 13.2525 5.28571 12.0034 5.28571C10.7542 5.28571 9.73792 6.30199 9.73792 7.55118C9.73792 8.8004 10.7542 9.81661 12.0034 9.81661Z" fill="#686868"/>
<path fill-rule="evenodd" clip-rule="evenodd" d="M18.5488 11.2991C18.5488 11.2991 18.5598 11.232 18.5488 11.2291C18.5488 11.2291 19.5618 11.4931 19.5618 11.7462C19.5618 13.6822 17.9868 15.2573 16.0507 15.2573C14.327 15.2573 12.817 16.1895 11.9982 17.5762C11.798 17.1953 11.4165 16.7788 11.1803 16.549C11.8337 15.619 12.7463 14.8838 13.8124 14.4492C13.0354 13.8046 12.5396 12.8322 12.5396 11.7462C12.5396 9.81013 14.1147 8.23502 16.0507 8.23502C16.1864 8.23502 16.3845 8.28632 16.5617 8.33219C16.6586 8.35729 16.7493 8.38077 16.82 8.39332L18.1235 9.61566L18.5079 10.2389L18.5488 11.2991ZM13.7853 11.7462C13.7853 12.9954 14.8016 14.0116 16.0507 14.0116C17.2999 14.0116 18.3162 12.9953 18.3162 11.7462C18.3162 10.497 17.2999 9.4807 16.0507 9.4807C14.8016 9.4807 13.7853 10.497 13.7853 11.7462Z" fill="#686868"/>
</svg>
