<svg width="24" height="25" viewBox="0 0 24 25" fill="none" xmlns="http://www.w3.org/2000/svg">
<path d="M11.8213 11.7038C13.725 11.7038 15.3734 11.1342 16.7203 10.0102C18.0672 8.88647 18.75 7.5115 18.75 5.92301C18.75 4.33508 18.0672 2.95992 16.7201 1.8358C15.373 0.712235 13.7247 0.142578 11.8213 0.142578C9.91736 0.142578 8.26935 0.712235 6.92246 1.83598C5.57557 2.95973 4.89258 4.33489 4.89258 5.92301C4.89258 7.5115 5.57557 8.88666 6.92268 10.0104C8.26979 11.134 9.91802 11.7038 11.8213 11.7038Z" fill="white"/>
<path d="M23.9418 18.5974C23.903 18.1298 23.8244 17.6196 23.7088 17.0809C23.592 16.5382 23.4417 16.0251 23.2617 15.5561C23.0758 15.0714 22.823 14.5928 22.5105 14.1341C22.1861 13.658 21.8051 13.2435 21.3775 12.9023C20.9305 12.5454 20.3831 12.2585 19.7502 12.0492C19.1194 11.841 18.4204 11.7355 17.6727 11.7355C17.379 11.7355 17.095 11.8361 16.5466 12.134C16.209 12.3176 15.8142 12.5301 15.3735 12.765C14.9967 12.9653 14.4862 13.153 13.8556 13.3229C13.2404 13.489 12.6158 13.5732 11.9993 13.5732C11.3828 13.5732 10.7585 13.489 10.1426 13.3229C9.51274 13.1532 9.00225 12.9655 8.62586 12.7652C8.18933 12.5324 7.79428 12.32 7.45169 12.1338C6.90389 11.8359 6.61968 11.7354 6.32602 11.7354C5.57807 11.7354 4.87927 11.841 4.24873 12.0494C3.61622 12.2583 3.06864 12.5452 2.62114 12.9025C2.19383 13.2438 1.81261 13.6582 1.48867 14.1341C1.17636 14.5928 0.923533 15.0713 0.737422 15.5563C0.557675 16.0253 0.407338 16.5382 0.290579 17.0809C0.174918 17.6189 0.0963477 18.1292 0.0575014 18.598C0.0193134 19.0572 0 19.5338 0 20.0152C0 21.2681 0.477349 22.2823 1.41866 23.0303C2.34834 23.7685 3.57847 24.1429 5.07438 24.1429H18.9256C20.4215 24.1429 21.6512 23.7686 22.5811 23.0303C23.5226 22.2829 24 21.2685 24 20.0151C23.9998 19.5315 23.9802 19.0545 23.9418 18.5974Z" fill="white"/>
</svg>
