<svg width="24" height="25" viewBox="0 0 24 25" fill="none" xmlns="http://www.w3.org/2000/svg">
<path d="M11.8203 11.704C13.724 11.704 15.3724 11.1343 16.7193 10.0104C18.0662 8.88661 18.749 7.51162 18.749 5.92311C18.749 4.33514 18.0662 2.95996 16.7191 1.83583C15.372 0.712244 13.7238 0.142578 11.8203 0.142578C9.91638 0.142578 8.26838 0.712244 6.92149 1.83601C5.57459 2.95978 4.8916 4.33496 4.8916 5.92311C4.8916 7.51162 5.57459 8.8868 6.92171 10.0106C8.26882 11.1342 9.91704 11.704 11.8203 11.704Z" fill="#BDBDBD"/>
<path d="M23.9418 18.5975C23.903 18.1299 23.8244 17.6197 23.7088 17.081C23.592 16.5382 23.4417 16.0252 23.2617 15.5562C23.0758 15.0715 22.823 14.5928 22.5105 14.1341C22.1861 13.658 21.8051 13.2435 21.3775 12.9023C20.9305 12.5454 20.3831 12.2585 19.7502 12.0492C19.1194 11.841 18.4204 11.7355 17.6727 11.7355C17.379 11.7355 17.095 11.8361 16.5466 12.134C16.209 12.3177 15.8142 12.5301 15.3735 12.765C14.9967 12.9653 14.4862 13.153 13.8556 13.3229C13.2404 13.489 12.6158 13.5733 11.9993 13.5733C11.3828 13.5733 10.7585 13.489 10.1426 13.3229C9.51274 13.1532 9.00225 12.9655 8.62586 12.7652C8.18933 12.5324 7.79428 12.32 7.45169 12.1338C6.90389 11.8359 6.61968 11.7354 6.32602 11.7354C5.57807 11.7354 4.87927 11.841 4.24873 12.0494C3.61622 12.2583 3.06864 12.5453 2.62114 12.9025C2.19383 13.2438 1.81261 13.6582 1.48867 14.1341C1.17636 14.5928 0.923533 15.0713 0.737422 15.5564C0.557675 16.0253 0.407338 16.5382 0.290579 17.081C0.174918 17.619 0.0963477 18.1293 0.0575014 18.5981C0.0193134 19.0573 0 19.534 0 20.0154C0 21.2682 0.477349 22.2825 1.41866 23.0305C2.34834 23.7687 3.57847 24.1431 5.07438 24.1431H18.9256C20.4215 24.1431 21.6512 23.7688 22.5811 23.0305C23.5226 22.2831 24 21.2686 24 20.0152C23.9998 19.5316 23.9802 19.0546 23.9418 18.5975Z" fill="#BDBDBD"/>
</svg>
