<svg width="24" height="24" viewBox="0 0 24 24" fill="none" xmlns="http://www.w3.org/2000/svg">
<path fill-rule="evenodd" clip-rule="evenodd" d="M17.3881 8.07195C18.3212 7.0247 18.5441 5.76975 18.4706 4.96096C18.4378 4.60029 18.7036 4.28134 19.0643 4.24855C19.425 4.21576 19.7439 4.48156 19.7767 4.84223C19.878 5.95694 19.5764 7.58723 18.3674 8.94435C17.1429 10.3188 15.0654 11.3278 11.7794 11.3278C11.4172 11.3278 11.1237 11.0342 11.1237 10.6721C11.1237 10.3099 11.4172 10.0163 11.7794 10.0163C14.7885 10.0163 16.4705 9.10191 17.3881 8.07195Z" fill="#686868" stroke="#686868" stroke-width="0.5" stroke-linecap="round" stroke-linejoin="round"/>
<path fill-rule="evenodd" clip-rule="evenodd" d="M5.37423 4.71112C6.12166 4.17297 6.99889 4 7.59344 4H12.9792C13.3414 4 13.635 4.29358 13.635 4.65574C13.635 5.01789 13.3414 5.31148 12.9792 5.31148H7.59344C7.20876 5.31148 6.61714 5.43227 6.14053 5.77543C5.69736 6.09452 5.31148 6.63208 5.31148 7.59344V16.4066C5.31148 16.7912 5.43227 17.3829 5.77543 17.8595C6.09452 18.3026 6.63208 18.6885 7.59344 18.6885H16.4066C17.0013 18.6885 17.5745 18.4895 17.9906 18.1197C18.3946 17.7606 18.6885 17.2079 18.6885 16.4066V10.5311C18.6885 10.169 18.9821 9.87541 19.3443 9.87541C19.7064 9.87541 20 10.169 20 10.5311V16.4066C20 17.5637 19.5595 18.4798 18.8619 19.0999C18.1763 19.7094 17.2807 20 16.4066 20H7.59344C6.20464 20 5.27335 19.4066 4.71112 18.6258C4.17297 17.8783 4 17.0011 4 16.4066V7.59344C4 6.20464 4.59335 5.27335 5.37423 4.71112Z" fill="#686868" stroke="#686868" stroke-width="0.5" stroke-linecap="round" stroke-linejoin="round"/>
<path fill-rule="evenodd" clip-rule="evenodd" d="M13.4521 13.108L10.4099 11.0106C10.1538 10.7545 10.1538 10.3394 10.4099 10.0833L13.4575 8.20999C13.6616 8.07423 14.1288 7.95391 14.3849 8.20999C14.641 8.46608 14.6474 8.96187 14.2545 9.21561L12.4567 10.3939V10.7959L14.3794 12.1807C14.6205 12.3838 14.6355 12.852 14.3794 13.108C14.1234 13.3641 13.7685 13.3211 13.4521 13.108Z" fill="#686868" stroke="#686868" stroke-width="0.5"/>
</svg>
