<svg width="24" height="25" viewBox="0 0 24 25" fill="none" xmlns="http://www.w3.org/2000/svg">
<g clip-path="url(#clip0)">
<path fill-rule="evenodd" clip-rule="evenodd" d="M17.5004 2.52767C15.8556 1.41465 13.9475 0.825085 11.9998 0.828137C10.0521 0.825085 8.144 1.41465 6.49924 2.52767C2.22441 5.4188 1.91032 11.3902 5.31579 15.7571C7.25951 18.2477 9.39899 20.5567 11.7109 22.659C11.7919 22.7313 11.8942 22.771 11.9998 22.771C12.1054 22.771 12.2077 22.7313 12.2887 22.659C14.6006 20.5563 16.7401 18.247 18.6838 15.7562C22.0902 11.3902 21.7752 5.4188 17.5004 2.52767ZM16.5 9.05675C16.5 11.329 14.4853 13.171 12 13.171C9.51472 13.171 7.5 11.329 7.5 9.05675C7.5 6.78449 9.51472 4.94246 12 4.94246C14.4853 4.94246 16.5 6.78449 16.5 9.05675Z" fill="white"/>
<path d="M11.9998 0.828137L11.9986 1.57814L12.001 1.57814L11.9998 0.828137ZM17.5004 2.52767L17.0801 3.14881L17.0802 3.14893L17.5004 2.52767ZM6.49924 2.52767L6.9194 3.14893L6.91957 3.14881L6.49924 2.52767ZM5.31579 15.7571L4.72436 16.2184L4.72453 16.2186L5.31579 15.7571ZM11.7109 22.659L11.2063 23.2139L11.2112 23.2183L11.7109 22.659ZM12.2887 22.659L12.7884 23.2183L12.7933 23.2138L12.2887 22.659ZM18.6838 15.7562L19.2751 16.2176L19.2752 16.2175L18.6838 15.7562ZM12.001 1.57814C13.7953 1.57532 15.5571 2.11823 17.0801 3.14881L17.9207 1.90653C16.1542 0.711065 14.0997 0.0748457 11.9986 0.0781377L12.001 1.57814ZM6.91957 3.14881C8.44251 2.11823 10.2043 1.57532 11.9986 1.57814L12.001 0.0781377C9.89995 0.0748457 7.84548 0.711064 6.0789 1.90653L6.91957 3.14881ZM5.90721 15.2959C2.69497 11.1768 3.09651 5.7344 6.9194 3.14893L6.07907 1.90641C1.35231 5.10319 1.12568 11.6036 4.72436 16.2184L5.90721 15.2959ZM12.2155 22.1041C9.9354 20.0308 7.82486 17.7531 5.90704 15.2957L4.72453 16.2186C6.69416 18.7424 8.86258 21.0827 11.2064 23.2139L12.2155 22.1041ZM11.9998 22.021C12.0841 22.021 12.1584 22.053 12.2106 22.0997L11.2112 23.2183C11.4255 23.4096 11.7042 23.521 11.9998 23.521V22.021ZM11.789 22.0997C11.8412 22.053 11.9155 22.021 11.9998 22.021V23.521C12.2954 23.521 12.5742 23.4096 12.7884 23.2183L11.789 22.0997ZM18.0926 15.2948C16.1747 17.7524 14.0641 20.0304 11.7841 22.1041L12.7933 23.2138C15.137 21.0822 17.3054 18.7416 19.2751 16.2176L18.0926 15.2948ZM17.0802 3.14893C20.9032 5.73448 21.3054 11.1768 18.0925 15.2948L19.2752 16.2175C22.875 11.6036 22.6472 5.10311 17.9206 1.90641L17.0802 3.14893ZM12 13.921C14.8348 13.921 17.25 11.8051 17.25 9.05675H15.75C15.75 10.8529 14.1357 12.421 12 12.421V13.921ZM6.75 9.05675C6.75 11.8051 9.16518 13.921 12 13.921V12.421C9.86426 12.421 8.25 10.8529 8.25 9.05675H6.75ZM12 4.19246C9.16518 4.19246 6.75 6.30843 6.75 9.05675H8.25C8.25 7.26055 9.86426 5.69246 12 5.69246V4.19246ZM17.25 9.05675C17.25 6.30843 14.8348 4.19246 12 4.19246V5.69246C14.1357 5.69246 15.75 7.26055 15.75 9.05675H17.25Z" fill="white"/>
</g>
<defs>
<clipPath id="clip0">
<rect width="24" height="24" fill="white" transform="translate(0 0.142578)"/>
</clipPath>
</defs>
</svg>
