<svg width="16" height="16" viewBox="0 0 16 16" fill="none" xmlns="http://www.w3.org/2000/svg">
<path d="M13 4.85722H12.4445C12.4445 3.74584 11.9762 2.67998 11.1427 1.89411C10.3092 1.10824 9.17878 0.666748 8.00004 0.666748C6.8213 0.666748 5.69084 1.10824 4.85734 1.89411C4.02385 2.67998 3.5556 3.74584 3.5556 4.85722H3.00004C2.55801 4.85722 2.13409 5.02278 1.82153 5.31748C1.50897 5.61218 1.33337 6.01188 1.33337 6.42865V13.762C1.33337 14.1788 1.50897 14.5785 1.82153 14.8732C2.13409 15.1679 2.55801 15.3334 3.00004 15.3334H13C13.4421 15.3334 13.866 15.1679 14.1786 14.8732C14.4911 14.5785 14.6667 14.1788 14.6667 13.762V6.42865C14.6667 6.01188 14.4911 5.61218 14.1786 5.31748C13.866 5.02278 13.4421 4.85722 13 4.85722ZM8.00004 1.71437C8.8841 1.71437 9.73194 2.04549 10.3571 2.63489C10.9822 3.22429 11.3334 4.02369 11.3334 4.85722H4.66671C4.66671 4.02369 5.0179 3.22429 5.64302 2.63489C6.26814 2.04549 7.11599 1.71437 8.00004 1.71437ZM13.5556 13.762C13.5556 13.9009 13.4971 14.0341 13.3929 14.1324C13.2887 14.2306 13.1474 14.2858 13 14.2858H3.00004C2.8527 14.2858 2.71139 14.2306 2.6072 14.1324C2.50302 14.0341 2.44449 13.9009 2.44449 13.762V6.42865C2.44449 6.28973 2.50302 6.1565 2.6072 6.05826C2.71139 5.96003 2.8527 5.90484 3.00004 5.90484H13C13.1474 5.90484 13.2887 5.96003 13.3929 6.05826C13.4971 6.1565 13.5556 6.28973 13.5556 6.42865V13.762ZM8.5556 9.20484V7.47627H7.44449V9.20484C7.2837 9.2988 7.15101 9.4299 7.059 9.58573C6.96698 9.74156 6.91869 9.91696 6.91869 10.0953C6.91869 10.2737 6.96698 10.4491 7.059 10.6049C7.15101 10.7607 7.2837 10.8918 7.44449 10.9858V12.7144H8.5556V10.9858C8.71639 10.8918 8.84907 10.7607 8.94109 10.6049C9.0331 10.4491 9.08139 10.2737 9.08139 10.0953C9.08139 9.91696 9.0331 9.74156 8.94109 9.58573C8.84907 9.4299 8.71639 9.2988 8.5556 9.20484Z" fill="#FF4545" stroke="#FF4545" stroke-width="0.3"/>
</svg>
