<svg width="16" height="16" viewBox="0 0 16 16" fill="none" xmlns="http://www.w3.org/2000/svg">
<path d="M15 8C15 7.77348 14.8164 7.58984 14.5898 7.58984C14.3633 7.58984 14.1797 7.77348 14.1797 8C14.1797 11.4075 11.4075 14.1797 8 14.1797C4.5925 14.1797 1.82031 11.4075 1.82031 8C1.82031 4.5925 4.5925 1.82031 8 1.82031C9.65039 1.82031 11.2438 2.51402 12.4033 3.7075L10.5 3.7075C10.2735 3.7075 10.0898 3.89114 10.0898 4.11765C10.0898 4.34417 10.2735 4.52734 10.5 4.52734L13.332 4.52734C13.5585 4.52734 13.7422 4.34417 13.7422 4.11765L13.7422 1.41016C13.7422 1.18364 13.5585 1 13.332 1C13.1055 1 12.9246 1.18364 12.9246 1.41016L12.9246 3.06478C11.6006 1.7385 9.82987 1 8 1C4.15164 1 1 4.15025 1 8C1 11.8484 4.15025 15 8 15C11.8484 15 15 11.8498 15 8Z" fill="#9A81FF" stroke="#9A81FF" stroke-width="0.5"/>
</svg>
