<svg width="32" height="33" viewBox="0 0 32 33" fill="none" xmlns="http://www.w3.org/2000/svg">
<path d="M16 32.4785C24.8366 32.4785 32 25.3151 32 16.4785C32 7.64196 24.8366 0.478516 16 0.478516C7.16344 0.478516 0 7.64196 0 16.4785C0 25.3151 7.16344 32.4785 16 32.4785Z" fill="#FF9C68"/>
<path d="M7.929 14.7822C8.03266 14.823 8.15289 14.823 8.25656 14.7741L11.4947 13.328C11.702 13.2302 11.7891 12.9858 11.6896 12.7822C11.5942 12.5866 11.3579 12.497 11.1547 12.5866L8.88676 13.6009C9.96891 10.4195 12.9832 8.2932 16.4535 8.2932C20.0897 8.2932 23.2698 10.6803 24.1861 14.0979C24.2441 14.3138 24.4722 14.4442 24.6919 14.3871C24.9116 14.3301 25.0443 14.106 24.9863 13.8901C23.9746 10.1181 20.4669 7.47852 16.4535 7.47852C12.6266 7.47852 9.29719 9.82484 8.09482 13.3362L7.14121 10.9939C7.07074 10.7821 6.83441 10.664 6.6188 10.7332C6.40319 10.8025 6.28296 11.0347 6.35343 11.2465C6.35759 11.2628 6.36587 11.2791 6.37415 11.2954L7.69679 14.5541C7.73826 14.656 7.82117 14.7415 7.929 14.7822Z" fill="white" stroke="white" stroke-width="0.3"/>
<path d="M25.6422 21.6847C25.6382 21.6766 25.6342 21.6684 25.6342 21.6603L24.3586 18.4009C24.3186 18.299 24.2386 18.2134 24.1347 18.1727C24.0347 18.132 23.9187 18.136 23.8187 18.1808L20.6957 19.6272C20.4917 19.7128 20.3958 19.9532 20.4797 20.1609C20.5637 20.3687 20.7996 20.4665 21.0036 20.381C21.0116 20.3769 21.0196 20.3728 21.0276 20.3687L23.2149 19.3542C22.1632 22.5363 19.2521 24.663 15.9091 24.663C12.4022 24.663 9.33513 22.2755 8.45141 18.8572C8.39544 18.6413 8.17549 18.5109 7.96357 18.5679C7.75165 18.625 7.62366 18.8491 7.67967 19.065C8.65137 22.8418 12.0384 25.4779 15.9092 25.4779C19.6 25.4779 22.8071 23.1311 23.9707 19.6191L24.8904 21.9617C24.9664 22.1736 25.1943 22.2836 25.4023 22.2062C25.6102 22.1288 25.7181 21.8966 25.6422 21.6847Z" fill="white" stroke="white" stroke-width="0.3"/>
<path d="M15.9999 15.4792C14.2341 15.4792 12.3333 15.0618 12.3333 14.1458C12.3333 13.2298 14.2341 12.8125 15.9999 12.8125C17.7658 12.8125 19.6666 13.2298 19.6666 14.1458C19.6666 15.0618 17.7658 15.4792 15.9999 15.4792ZM15.9999 13.4792C14.0749 13.4792 13.0666 13.9745 13.0666 14.1458C13.0666 14.3172 14.0749 14.8125 15.9999 14.8125C17.9249 14.8125 18.9333 14.3172 18.9333 14.1458C18.9333 13.9745 17.9249 13.4792 15.9999 13.4792Z" fill="white"/>
<path d="M15.9999 20.1465C14.2341 20.1465 12.3333 19.7046 12.3333 18.7347V14.4994C12.3333 14.3046 12.4975 14.1465 12.6999 14.1465C12.9023 14.1465 13.0666 14.3046 13.0666 14.4994V18.7347C13.0666 18.9161 14.0749 19.4406 15.9999 19.4406C17.9249 19.4406 18.9333 18.9161 18.9333 18.7347V14.4994C18.9333 14.3046 19.0975 14.1465 19.2999 14.1465C19.5023 14.1465 19.6666 14.3046 19.6666 14.4994V18.7347C19.6666 19.7046 17.7658 20.1465 15.9999 20.1465Z" fill="white"/>
<path d="M15.9999 18.1465C14.2341 18.1465 12.3333 17.6457 12.3333 16.5465C12.3333 16.3257 12.4975 16.1465 12.6999 16.1465C12.9023 16.1465 13.0666 16.3257 13.0666 16.5465C13.0666 16.7521 14.0749 17.3465 15.9999 17.3465C17.9249 17.3465 18.9333 16.7521 18.9333 16.5465C18.9333 16.3257 19.0975 16.1465 19.2999 16.1465C19.5023 16.1465 19.6666 16.3257 19.6666 16.5465C19.6666 17.6457 17.7658 18.1465 15.9999 18.1465Z" fill="white"/>
</svg>
