<svg width="20" height="20" viewBox="0 0 20 20" fill="none" xmlns="http://www.w3.org/2000/svg">
<path d="M19.375 8.90414V11.174L17.0659 11.7407L16.7241 11.8245L16.6186 12.1603C16.5005 12.536 16.3501 12.9014 16.167 13.2567L16.0077 13.5661L16.1867 13.8645L17.3683 15.8338L15.7557 17.4464L13.7864 16.2648L13.488 16.0858L13.1786 16.2452C12.8233 16.4282 12.4579 16.5786 12.0821 16.6967L11.7476 16.8019L11.663 17.1421L11.1077 19.375H8.81419L8.25887 17.1421L8.17424 16.8019L7.83974 16.6967C7.46402 16.5786 7.09863 16.4282 6.74325 16.2452L6.43388 16.0858L6.13547 16.2648L4.16622 17.4464L2.5536 15.8338L3.73515 13.8645L3.9142 13.5661L3.75483 13.2567C3.57176 12.9014 3.42136 12.536 3.30328 12.1603L3.19875 11.8277L2.86083 11.7419L0.625 11.1742V8.9039L2.86083 8.33625L3.19875 8.25046L3.30328 7.91786C3.42136 7.54215 3.57176 7.17675 3.75483 6.82138L3.9142 6.51201L3.73515 6.2136L2.5536 4.24435L4.16622 2.63173L6.13547 3.81328L6.43388 3.99232L6.74325 3.83295C7.09863 3.64988 7.46402 3.49948 7.83974 3.3814L8.17732 3.2753L8.26003 2.93124L8.81445 0.625H11.1074L11.6618 2.93124L11.7446 3.2753L12.0821 3.3814C12.4579 3.49948 12.8233 3.64988 13.1786 3.83295L13.488 3.99233L13.7864 3.81328L15.7557 2.63173L17.3683 4.24435L16.1867 6.2136L16.0077 6.51201L16.167 6.82138C16.3501 7.17675 16.5005 7.54215 16.6186 7.91786L16.7241 8.25358L17.0659 8.33746L19.375 8.90414ZM6.40625 10.0391C6.40625 12.0014 7.99857 13.5938 9.96094 13.5938C11.9233 13.5938 13.5156 12.0014 13.5156 10.0391C13.5156 8.0767 11.9233 6.48438 9.96094 6.48438C7.99857 6.48438 6.40625 8.0767 6.40625 10.0391Z" stroke="#686868" stroke-width="1.25"/>
</svg>
