<svg width="32" height="32" viewBox="0 0 32 32" fill="none" xmlns="http://www.w3.org/2000/svg">
<path d="M16 32C24.8366 32 32 24.8366 32 16C32 7.16344 24.8366 0 16 0C7.16344 0 0 7.16344 0 16C0 24.8366 7.16344 32 16 32Z" fill="#BDBDBD"/>
<path d="M8.76498 15.0463C8.85466 15.0822 8.95867 15.0822 9.04835 15.0392L11.8496 13.7659C12.029 13.6798 12.1043 13.4646 12.0182 13.2852C11.9357 13.1131 11.7313 13.0341 11.5555 13.1131L9.59353 14.0062C10.5297 11.2049 13.1373 9.33258 16.1394 9.33258C19.285 9.33258 22.0361 11.4344 22.8288 14.4438C22.879 14.6338 23.0763 14.7486 23.2663 14.6984C23.4564 14.6482 23.5712 14.4509 23.521 14.2608C22.6458 10.9395 19.6114 8.61523 16.1394 8.61523C12.8288 8.61523 9.94859 10.6812 8.90843 13.773L8.08348 11.7107C8.02251 11.5241 7.81807 11.4201 7.63154 11.4811C7.44502 11.5421 7.34101 11.7465 7.40198 11.933C7.40558 11.9474 7.41274 11.9617 7.4199 11.9761L8.5641 14.8455C8.59998 14.9352 8.6717 15.0105 8.76498 15.0463Z" fill="white" stroke="white" stroke-width="0.6"/>
<path d="M24.5936 20.3407C24.59 20.3336 24.5865 20.3264 24.5865 20.3192L23.4423 17.4498C23.4064 17.3601 23.3347 17.2848 23.2414 17.2489C23.1517 17.2131 23.0477 17.2166 22.9581 17.2561L20.1568 18.5294C19.9738 18.6047 19.8878 18.8163 19.9631 18.9993C20.0384 19.1822 20.25 19.2683 20.4329 19.193C20.4401 19.1894 20.4473 19.1858 20.4545 19.1822L22.4164 18.2891C21.4731 21.0904 18.8619 22.9627 15.8634 22.9627C12.7177 22.9627 9.96668 20.8608 9.17401 17.8515C9.1238 17.6614 8.92652 17.5466 8.73643 17.5969C8.54634 17.6471 8.43154 17.8443 8.48178 18.0344C9.35337 21.3594 12.3914 23.68 15.8634 23.68C19.174 23.68 22.0506 21.614 23.0944 18.5222L23.9193 20.5846C23.9875 20.7711 24.1919 20.868 24.3784 20.7998C24.5649 20.7317 24.6618 20.5272 24.5936 20.3407Z" fill="white" stroke="white" stroke-width="0.6"/>
</svg>
