<svg width="13" height="15" viewBox="0 0 13 15" fill="none" xmlns="http://www.w3.org/2000/svg">
<path d="M6.40245 7.22558C7.43362 7.22558 8.32653 6.86955 9.05609 6.16711C9.78566 5.46479 10.1555 4.60545 10.1555 3.61267C10.1555 2.62024 9.78566 1.76079 9.05597 1.05824C8.32629 0.356026 7.4335 0 6.40245 0C5.37117 0 4.4785 0.356026 3.74893 1.05835C3.01937 1.76068 2.64941 2.62013 2.64941 3.61267C2.64941 4.60545 3.01937 5.4649 3.74905 6.16723C4.47874 6.86944 5.37153 7.22558 6.40245 7.22558Z" fill="#0E9560"/>
<path d="M12.9685 11.5328C12.9475 11.2405 12.9049 10.9217 12.8422 10.585C12.779 10.2458 12.6976 9.92515 12.6001 9.63207C12.4994 9.32914 12.3624 9.02999 12.1932 8.74332C12.0175 8.44577 11.8111 8.18668 11.5795 7.97347C11.3373 7.75043 11.0409 7.5711 10.698 7.44029C10.3563 7.31017 9.97771 7.24426 9.57269 7.24426C9.41363 7.24426 9.2598 7.30708 8.96272 7.49328C8.77988 7.60806 8.56602 7.74081 8.3273 7.88764C8.12319 8.01284 7.84667 8.13014 7.50513 8.23634C7.17191 8.34014 6.83358 8.39279 6.49964 8.39279C6.16571 8.39279 5.8275 8.34014 5.49392 8.23634C5.15273 8.13026 4.87622 8.01296 4.67234 7.88776C4.43589 7.7423 4.2219 7.60955 4.03633 7.49316C3.73961 7.30697 3.58566 7.24414 3.4266 7.24414C3.02145 7.24414 2.64294 7.31017 2.3014 7.44041C1.95879 7.57098 1.66218 7.75031 1.41978 7.97359C1.18832 8.18691 0.98183 8.44589 0.806363 8.74332C0.637197 9.02999 0.500247 9.32903 0.399437 9.63218C0.302074 9.92527 0.220641 10.2458 0.157397 10.585C0.0947473 10.9212 0.0521883 11.2402 0.0311466 11.5332C0.0104614 11.8202 0 12.1181 0 12.4189C0 13.2019 0.258564 13.8358 0.76844 14.3033C1.27202 14.7646 1.93834 14.9987 2.74862 14.9987H10.2514C11.0617 14.9987 11.7277 14.7647 12.2314 14.3033C12.7414 13.8362 13 13.2022 13 12.4188C12.9999 12.1166 12.9893 11.8185 12.9685 11.5328Z" fill="#0E9560"/>
</svg>
