<svg width="52" height="52" viewBox="0 0 52 52" fill="none" xmlns="http://www.w3.org/2000/svg">
<rect width="52" height="52" fill="#E8E8E8"/>
<path d="M16.4531 16.5469C16.4531 11.2836 20.7367 7 26 7C31.2633 7 35.5469 11.2836 35.5469 16.5469C35.5469 21.8101 31.2633 26.0938 26 26.0938C20.7367 26.0938 16.4531 21.8101 16.4531 16.5469Z" stroke="#05121D" stroke-width="2"/>
<path d="M28.3438 30.4375C32.1353 30.4375 35.7076 31.9419 38.4099 34.6857L39.1006 34.0054L38.4099 34.6857C41.1 37.4171 42.5781 41.0166 42.5781 44.8281C42.5781 44.923 42.5012 45 42.4062 45H9.59375C9.49885 45 9.42188 44.923 9.42188 44.8281C9.42188 41.0166 10.9 37.4171 13.5901 34.6857L12.8777 33.984L13.5901 34.6857C16.2924 31.9419 19.8648 30.4375 23.6562 30.4375H28.3438Z" stroke="#05121D" stroke-width="2"/>
</svg>
