<svg width="148" height="136" viewBox="0 0 148 136" fill="none" xmlns="http://www.w3.org/2000/svg">
<g clip-path="url(#clip0)">
<g opacity="0.54">
<path opacity="0.54" d="M37.6024 126.763C19.469 120.672 3.74234 105.528 0.526851 86.7208C-2.68863 67.9139 9.19892 46.7271 27.8877 42.6471C36.7254 40.7236 46.2647 42.4431 54.7126 39.2082C70.6342 33.1076 76.0518 12.4551 90.765 3.8385C104.942 -4.4575 124.372 1.5265 134.934 14.0871C145.496 26.6476 148.576 43.9779 147.923 60.3562C146.968 84.4185 136.717 110.365 114.832 120.536C96.3775 129.095 57.3825 131.523 37.6024 126.763Z" fill="#CDEFD3"/>
</g>
<path d="M32.647 123.206C35.7754 129.559 42.23 131.939 48.1062 131.794C53.9824 131.638 59.7291 129.501 65.5977 129.064C74.8991 128.374 84.0178 131.988 93.1594 134.271C102.301 136.554 112.295 137.37 120.455 131.619C122.449 130.21 124.375 128.287 125.189 125.567C125.996 122.847 125.265 119.233 123.164 118.106C122.35 117.669 121.444 117.64 120.561 117.62C100.969 117.154 81.3842 116.698 61.7919 116.231C51.8207 115.998 40.8295 116.212 33.3472 124.634" fill="#CDEFD3"/>
<g opacity="0.15">
<path opacity="0.15" d="M123.329 48.1246C121.799 49.5915 121.214 51.8744 122.676 53.6326C124.05 55.2938 126.71 55.6435 128.425 54.3224C132.566 51.1361 128.249 45.2492 123.777 46.4635C122.949 46.6869 123.153 47.8624 123.972 47.9109C125.277 47.9886 126.68 48.0372 127.723 48.9504C128.844 49.9315 128.873 51.5926 127.947 52.7195C125.511 55.7115 121.273 51.3109 123.835 48.6298C124.166 48.2995 123.67 47.7944 123.329 48.1246Z" fill="#3D3D3D"/>
<path opacity="0.15" d="M119.304 27.676C119.304 27.676 124.488 39.2749 125.93 38.6629C127.372 38.0509 140.751 29.784 140.751 29.784C140.751 29.784 135.265 19.3995 134.125 18.7972C132.985 18.1852 119.304 27.676 119.304 27.676Z" fill="#3D3D3D"/>
<path opacity="0.15" d="M134.135 18.7972C134.203 18.8263 133.823 20.0115 133.15 21.9155C132.478 23.8195 131.523 26.4326 130.442 29.308C130.412 29.376 130.393 29.4537 130.364 29.512L130.286 29.7063L130.081 29.6772C127.08 29.1915 124.391 28.7252 122.442 28.3657C120.493 28.0063 119.304 27.744 119.314 27.676C119.324 27.608 120.542 27.744 122.5 28.016C124.459 28.288 127.168 28.696 130.169 29.1817L129.886 29.3469C129.915 29.2789 129.935 29.2109 129.964 29.1429C131.055 26.2675 132.059 23.664 132.819 21.7989C133.569 19.9143 134.066 18.768 134.135 18.7972Z" fill="#3D3D3D"/>
<path opacity="0.15" d="M124.235 37.3029C124.098 37.2737 124.498 35.3697 125.131 33.048C125.764 30.7263 126.388 28.8806 126.525 28.9292C126.661 28.968 126.252 30.872 125.628 33.184C124.985 35.4863 124.371 37.332 124.235 37.3029Z" fill="#3D3D3D"/>
<path opacity="0.15" d="M139.874 27.472C139.854 27.608 137.983 27.4332 135.703 27.0737C133.423 26.7143 131.592 26.3063 131.611 26.1703C131.63 26.0343 133.501 26.2092 135.781 26.5686C138.061 26.928 139.893 27.336 139.874 27.472Z" fill="#3D3D3D"/>
<path opacity="0.15" d="M46.9626 57.3511C47.0893 56.5157 47.0601 55.7289 47.5278 54.9906C48.4632 53.5237 49.7884 53.8929 51.0648 54.534C52.3705 55.1849 53.5982 55.5831 55.0111 54.9711C57.2424 54.0094 58.2363 50.7163 56.1511 49.1231C55.4788 48.6083 54.787 49.4534 54.8844 50.0946C55.0208 50.9883 55.469 51.9791 54.6895 52.7563C53.6567 53.786 52.4484 52.9214 51.4156 52.4649C50.3048 51.9694 49.1258 51.8529 47.9857 52.3094C46.0175 53.106 44.5754 55.7677 46.1441 57.5649C46.378 57.8174 46.9042 57.7009 46.9626 57.3511Z" fill="#3D3D3D"/>
<path opacity="0.15" d="M86.7402 44.7925C86.9448 46.1428 88.3577 48.9988 89.8388 49.3874C90.628 49.5914 91.2127 49.0765 91.8168 48.6588C92.9276 47.8914 94.0287 47.1142 95.1297 46.3274C95.5292 46.0457 95.7631 45.5017 95.4708 45.0451C94.4964 43.5491 93.522 42.0531 92.5476 40.5571C92.2942 40.1588 91.6901 39.9159 91.2614 40.2171C90.0434 41.0719 88.7377 41.8685 87.6367 42.8594C86.8766 43.5394 87.851 44.6954 88.6987 44.2291C89.9362 43.5588 91.0665 42.6359 92.2163 41.8297C91.7876 41.7131 91.3588 41.6062 90.9301 41.4897C91.9045 42.9857 92.8789 44.4817 93.8533 45.9777C93.9702 45.5502 94.0774 45.1228 94.1943 44.6954C93.5317 45.1617 92.8691 45.6279 92.2163 46.1039C91.885 46.3371 90.5306 47.5708 90.1798 47.4931C89.7511 47.3959 89.069 46.1719 88.7962 45.8514C88.3285 45.2977 87.89 44.7731 87.2859 44.3651C86.9838 44.1902 86.6915 44.5205 86.7402 44.7925Z" fill="#3D3D3D"/>
<path opacity="0.15" d="M18.6791 76.8305C17.1493 78.2973 16.5647 80.5802 18.0263 82.3385C19.4002 83.9996 22.0602 84.3493 23.7752 83.0282C27.9163 79.8419 23.5998 73.955 19.1273 75.1693C18.2991 75.3927 18.5037 76.5682 19.3222 76.6167C20.6279 76.6945 22.031 76.743 23.0736 77.6562C24.1942 78.6373 24.2234 80.2985 23.2977 81.4253C20.8617 84.4173 16.6231 80.0167 19.1858 77.3356C19.5171 77.0053 19.0201 76.5099 18.6791 76.8305Z" fill="#3D3D3D"/>
<path opacity="0.15" d="M110.222 99.1042C111.501 101.574 112.848 104.003 114.229 106.43C114.562 107.009 115.192 107.084 115.652 106.599C117.454 104.703 119.273 102.844 120.937 100.821C121.261 100.431 121.041 99.8371 120.598 99.653C117.879 98.5479 114.233 96.8968 111.227 97.4872C110.467 97.6389 110.171 98.8352 111.034 99.097C112.393 99.5145 113.885 99.4567 115.29 99.7137C116.907 100.003 118.536 100.418 120.04 101.067C119.982 100.631 119.909 100.194 119.85 99.7578C117.907 101.616 116.133 103.626 114.333 105.619C114.772 105.609 115.202 105.605 115.647 105.602C114.182 103.228 112.694 100.885 111.132 98.5758C110.795 98.0861 109.952 98.574 110.222 99.1042Z" fill="#3D3D3D"/>
<path opacity="0.15" d="M50.2074 102.485C47.5142 101.902 44.6271 101.437 41.8692 101.34C41.0117 101.307 40.8074 102.708 41.6756 102.857C44.3973 103.343 47.3115 103.506 50.0784 103.506C50.6532 103.502 50.7831 102.607 50.2074 102.485Z" fill="#3D3D3D"/>
<path opacity="0.15" d="M125.774 66.8051C128.512 67.184 131.387 67.456 134.154 67.3491C135.167 67.3103 135.128 65.9114 134.154 65.8046C131.465 65.5229 128.619 65.5811 125.92 65.7754C125.375 65.824 125.15 66.7177 125.774 66.8051Z" fill="#3D3D3D"/>
<path opacity="0.15" d="M103.5 32.0862C105.916 33.3879 108.566 34.6508 111.188 35.4959C112.016 35.7582 112.571 34.4759 111.782 34.0874C109.317 32.8537 106.54 31.9017 103.899 31.1439C103.334 30.9788 102.973 31.8045 103.5 32.0862Z" fill="#3D3D3D"/>
<path opacity="0.15" d="M111.714 55.0022C111.714 54.9828 111.704 54.9731 111.704 54.9537C111.685 54.8857 111.655 54.8177 111.616 54.7497C111.548 54.5554 111.441 54.3805 111.285 54.2348C111.188 54.1377 111.08 54.0308 110.944 53.9725C110.915 53.9628 110.876 53.9434 110.847 53.9337C110.72 53.8851 110.593 53.8268 110.476 53.7782C110.272 53.7102 110.057 53.7005 109.853 53.7491C109.716 53.7491 109.58 53.788 109.453 53.856C109.258 53.9142 109.093 54.0308 108.946 54.1765C108.869 54.2834 108.781 54.3902 108.703 54.4874C108.654 54.6137 108.596 54.74 108.547 54.8565C108.479 55.0605 108.469 55.2742 108.518 55.4782C108.527 55.6822 108.586 55.8765 108.703 56.0611C108.713 56.0902 108.732 56.1291 108.742 56.1582C108.771 56.2262 108.81 56.2748 108.869 56.3234C108.908 56.3817 108.956 56.44 109.005 56.4982C109.112 56.5857 109.219 56.6634 109.326 56.7508C109.453 56.8285 109.58 56.8771 109.716 56.916C109.736 56.916 109.745 56.9257 109.765 56.9257C110.048 57.0034 110.32 57.0034 110.603 56.9257C110.866 56.848 111.1 56.712 111.295 56.5177C111.49 56.3234 111.626 56.0902 111.704 55.828C111.782 55.5657 111.782 55.284 111.714 55.0022Z" fill="#3D3D3D"/>
</g>
<path d="M121.38 46.1818C119.85 47.6486 119.265 49.9315 120.727 51.6898C122.101 53.3509 124.761 53.7006 126.476 52.3795C130.617 49.1932 126.3 43.3063 121.828 44.5206C121 44.7441 121.204 45.9195 122.023 45.9681C123.329 46.0458 124.732 46.0943 125.774 47.0075C126.895 47.9886 126.924 49.6498 125.998 50.7766C123.562 53.7686 119.324 49.3681 121.886 46.6869C122.218 46.3566 121.721 45.8515 121.38 46.1818Z" fill="#87DFF0"/>
<path d="M117.355 25.7332C117.355 25.7332 122.539 37.332 123.981 36.72C125.423 36.108 138.802 27.8412 138.802 27.8412C138.802 27.8412 133.316 17.4566 132.176 16.8543C131.036 16.2423 117.355 25.7332 117.355 25.7332Z" fill="white"/>
<path d="M132.186 16.8553C132.254 16.8844 131.874 18.0696 131.202 19.9736C130.529 21.8776 129.574 24.4907 128.493 27.3661C128.464 27.4341 128.444 27.5118 128.415 27.5701L128.337 27.7644L128.132 27.7353C125.131 27.2496 122.442 26.7833 120.493 26.4239C118.544 26.0644 117.356 25.8021 117.365 25.7341C117.375 25.6661 118.593 25.8021 120.552 26.0741C122.51 26.3461 125.219 26.7541 128.22 27.2399L127.937 27.405C127.967 27.337 127.986 27.269 128.015 27.201C129.107 24.3256 130.11 21.7221 130.87 19.857C131.621 17.9724 132.118 16.8261 132.186 16.8553Z" fill="#FFD3D3"/>
<path d="M122.286 35.36C122.15 35.3309 122.549 33.4269 123.182 31.1051C123.816 28.7834 124.439 26.9377 124.576 26.9863C124.712 27.0251 124.303 28.9291 123.679 31.2411C123.036 33.5434 122.422 35.3891 122.286 35.36Z" fill="#FFD3D3"/>
<path d="M137.925 25.5292C137.905 25.6652 136.034 25.4903 133.754 25.1309C131.474 24.7714 129.642 24.3634 129.662 24.2274C129.681 24.0914 131.552 24.2663 133.832 24.6257C136.112 24.9852 137.944 25.3932 137.925 25.5292Z" fill="#FFD3D3"/>
<path d="M45.0139 55.4083C45.1406 54.5728 45.1113 53.786 45.579 53.0477C46.5145 51.5808 47.8396 51.95 49.1161 52.5911C50.4218 53.242 51.6495 53.6403 53.0623 53.0283C55.2937 52.0666 56.2876 48.7734 54.2024 47.1803C53.5301 46.6654 52.8382 47.5106 52.9357 48.1517C53.0721 49.0454 53.5203 50.0363 52.7408 50.8134C51.7079 51.8431 50.4997 50.9786 49.4669 50.522C48.3561 50.0266 47.177 49.91 46.037 50.3666C44.0687 51.1631 42.6266 53.8248 44.1954 55.622C44.4293 55.8746 44.9554 55.758 45.0139 55.4083Z" fill="#9A81FF"/>
<path d="M84.7915 42.8496C84.9961 44.1999 86.409 47.0559 87.89 47.4445C88.6793 47.6485 89.2639 47.1336 89.8681 46.7159C90.9789 45.9485 92.0799 45.1713 93.181 44.3845C93.5805 44.1028 93.8143 43.5588 93.522 43.1022C92.5476 41.6062 91.5732 40.1102 90.5988 38.6142C90.3455 38.2159 89.7414 37.9731 89.3127 38.2742C88.0947 39.1291 86.789 39.9256 85.6879 40.9165C84.9279 41.5965 85.9023 42.7525 86.75 42.2862C87.9875 41.6159 89.1178 40.6931 90.2675 39.8868C89.8388 39.7702 89.4101 39.6634 88.9814 39.5468C89.9557 41.0428 90.9301 42.5388 91.9045 44.0348C92.0214 43.6074 92.1286 43.1799 92.2456 42.7525C91.583 43.2188 90.9204 43.6851 90.2675 44.1611C89.9363 44.3942 88.5819 45.6279 88.2311 45.5502C87.8023 45.4531 87.1203 44.2291 86.8474 43.9085C86.3797 43.3548 85.9413 42.8302 85.3371 42.4222C85.0351 42.2473 84.7428 42.5776 84.7915 42.8496Z" fill="#FFE664"/>
<path d="M16.7304 74.8876C15.2006 76.3544 14.616 78.6373 16.0775 80.3956C17.4514 82.0567 20.1115 82.4064 21.8264 81.0853C25.9676 77.899 21.651 72.0122 17.1786 73.2264C16.3504 73.4499 16.555 74.6253 17.3735 74.6739C18.6792 74.7516 20.0823 74.8002 21.1249 75.7133C22.2454 76.6944 22.2746 78.3556 21.349 79.4824C18.913 82.4744 14.6744 78.0739 17.2371 75.3927C17.5683 75.0624 17.0714 74.567 16.7304 74.8876Z" fill="#CDEFD3"/>
<path d="M107.485 98.7777C108.765 101.248 110.112 103.678 111.495 106.105C111.828 106.684 112.457 106.759 112.917 106.275C114.719 104.379 116.536 102.521 118.2 100.498C118.524 100.108 118.304 99.5142 117.861 99.3299C115.142 98.2239 111.495 96.5715 108.49 97.161C107.73 97.3125 107.434 98.5087 108.298 98.7708C109.656 99.1888 111.148 99.1314 112.553 99.3889C114.17 99.6785 115.799 100.094 117.304 100.744C117.245 100.308 117.172 99.8704 117.113 99.4345C115.171 101.292 113.397 103.302 111.598 105.294C112.037 105.284 112.467 105.28 112.912 105.278C111.447 102.903 109.957 100.56 108.395 98.2497C108.058 97.7598 107.216 98.2474 107.485 98.7777Z" fill="#FF4665"/>
<path d="M48.2733 104.442C45.5801 103.859 42.693 103.394 39.9352 103.297C39.0776 103.264 38.8734 104.665 39.7415 104.814C42.4632 105.3 45.3774 105.464 48.1442 105.463C48.719 105.459 48.849 104.564 48.2733 104.442Z" fill="#FEAD82"/>
<path d="M123.825 64.8623C126.563 65.2411 129.438 65.5131 132.205 65.4063C133.218 65.3674 133.179 63.9685 132.205 63.8617C129.516 63.58 126.671 63.6383 123.972 63.8326C123.426 63.8811 123.202 64.7748 123.825 64.8623Z" fill="#93E2AE"/>
<path d="M101.551 30.1434C103.967 31.4451 106.618 32.7079 109.239 33.5531C110.067 33.8154 110.622 32.5331 109.833 32.1445C107.368 30.9108 104.591 29.9588 101.95 29.2011C101.385 29.0359 101.025 29.8616 101.551 30.1434Z" fill="#FFA3B2"/>
<path d="M109.765 53.0594C109.765 53.0399 109.755 53.0302 109.755 53.0108C109.736 52.9428 109.707 52.8748 109.668 52.8068C109.599 52.6125 109.492 52.4377 109.336 52.2919C109.239 52.1948 109.132 52.0879 108.995 52.0297C108.966 52.0199 108.927 52.0005 108.898 51.9908C108.771 51.9422 108.644 51.8839 108.528 51.8354C108.323 51.7674 108.109 51.7577 107.904 51.8062C107.768 51.8062 107.631 51.8451 107.504 51.9131C107.31 51.9714 107.144 52.0879 106.998 52.2337C106.92 52.3405 106.832 52.4474 106.754 52.5445C106.705 52.6708 106.647 52.7971 106.598 52.9137C106.53 53.1177 106.52 53.3314 106.569 53.5354C106.579 53.7394 106.637 53.9337 106.754 54.1182C106.764 54.1474 106.783 54.1862 106.793 54.2154C106.822 54.2834 106.861 54.3319 106.92 54.3805C106.959 54.4388 107.007 54.4971 107.056 54.5554C107.163 54.6428 107.271 54.7205 107.378 54.8079C107.504 54.8857 107.631 54.9342 107.768 54.9731C107.787 54.9731 107.797 54.9828 107.816 54.9828C108.099 55.0605 108.372 55.0605 108.654 54.9828C108.917 54.9051 109.151 54.7691 109.346 54.5748C109.541 54.3805 109.677 54.1474 109.755 53.8851C109.833 53.6228 109.833 53.3411 109.765 53.0594Z" fill="#251A51"/>
<path d="M49.3526 2.95307C46.5366 3.86621 44.2175 6.13935 43.1944 8.90792C42.1811 11.6765 42.4734 14.8919 43.9642 17.4468C46.8289 22.3622 54.1661 23.9359 58.8041 20.6428C63.4422 17.3496 64.3387 9.9085 60.6165 5.61478C56.8943 1.32107 49.3818 1.11707 45.4355 5.2165" fill="#CDEFD3"/>
<g clip-path="url(#clip1)">
<path d="M54.9033 79.2615L61.1574 116.678C61.2432 117.191 61.6886 117.567 62.2106 117.567H94.1016C94.6237 117.567 95.069 117.191 95.1549 116.678L101.409 79.2615H54.9033Z" fill="#FF7373"/>
<path d="M100.675 84.0312L101.446 79.4148H54.9404L55.7121 84.0312L61.1945 116.831C61.2803 117.344 61.7257 117.721 62.2477 117.721H71.6123C64.457 110.558 59.9697 100.267 59.9697 88.8314C59.9697 87.2062 60.0622 85.6044 60.2381 84.0311H100.675V84.0312Z" fill="#FF7373"/>
<path d="M78.156 87.2407C76.7892 87.2407 75.6772 88.3495 75.6772 89.7123V106.95C75.6772 108.313 76.7892 109.422 78.156 109.422C79.5228 109.422 80.6347 108.313 80.6347 106.95V89.7123C80.6347 88.3495 79.5228 87.2407 78.156 87.2407Z" fill="#FFD3D3"/>
<path d="M90.7897 87.2784C89.4579 87.0442 88.1524 87.9566 87.9178 89.2828L84.8671 106.52C84.6295 107.863 85.5312 109.147 86.8773 109.384C87.0201 109.409 87.1656 109.422 87.3099 109.422C88.5137 109.422 89.5397 108.563 89.7491 107.38L92.7998 90.1419C93.0374 88.7999 92.1357 87.5153 90.7897 87.2784Z" fill="#FFD3D3"/>
<path d="M68.3942 89.2828C68.2791 88.6327 67.9171 88.0662 67.3747 87.6876C66.8322 87.3089 66.1745 87.1633 65.5223 87.2784C64.1762 87.5153 63.2745 88.7997 63.5121 90.1419L66.5629 107.38C66.7723 108.563 67.7982 109.422 69.002 109.422C69.1465 109.422 69.292 109.409 69.4346 109.384C70.7807 109.147 71.6824 107.863 71.4448 106.52L68.3942 89.2828Z" fill="#FFD3D3"/>
<path d="M96.0482 58.3076C96.2748 57.7647 96.0172 57.1416 95.4729 56.9154L84.9582 52.55C84.4208 52.3267 83.7853 52.5891 83.562 53.1236L81.9189 57.0588L83.8963 57.8633L85.1231 54.925L93.6662 58.4718L92.4646 61.3495L94.4419 62.154L96.0482 58.3076Z" fill="#CDEFD3"/>
<path d="M110.429 69.8247C109.857 68.4398 108.778 67.3601 107.391 66.7842L69.5382 51.069C66.6755 49.8806 63.3769 51.2359 62.1851 54.0903L61.3095 56.1872C61.0857 56.723 61.3486 57.3566 61.8847 57.5794L108.149 76.7869C108.687 77.0102 109.322 76.7477 109.546 76.2133L110.421 74.1164C110.998 72.7338 111.001 71.2096 110.429 69.8247Z" fill="#FF7373"/>
<path d="M61.3095 56.1871C61.0857 56.7229 61.3486 57.3565 61.8847 57.5793L108.149 76.7868C108.687 77.0101 109.322 76.7476 109.546 76.2132L110.421 74.1163L62.185 54.0903L61.3095 56.1871Z" fill="#FFD3D3"/>
<path d="M103.214 74.553H53.099C52.5094 74.553 52.0312 75.0297 52.0312 75.6177V80.1605C52.0312 80.7485 52.5094 81.2252 53.099 81.2252H103.214C103.803 81.2252 104.281 80.7485 104.281 80.1605V75.6177C104.281 75.0297 103.803 74.553 103.214 74.553Z" fill="#FFD3D3"/>
</g>
<g opacity="0.2">
<path d="M26.8155 60.5127L41.703 77.6139C42.0884 78.0566 42.7633 78.1015 43.2103 77.7143L55.2969 67.2422C55.7439 66.855 55.7938 66.182 55.4084 65.7394L40.5209 48.6383C40.1355 48.1956 39.4607 48.1506 39.0137 48.5379L26.9271 59.0099C26.4801 59.3972 26.4301 60.07 26.8155 60.5127Z" fill="#FFD3D3"/>
</g>
<path d="M26.8223 57.6277L41.7099 74.7289C42.0952 75.1716 42.7701 75.2165 43.2171 74.8293L55.3037 64.3572C55.7507 63.97 55.8006 63.297 55.4152 62.8543L40.5278 45.7533C40.1424 45.3106 39.4675 45.2656 39.0205 45.6529L26.9339 56.1249C26.4869 56.5122 26.4369 57.185 26.8223 57.6277Z" fill="white"/>
<line x1="1" y1="-1" x2="12.4366" y2="-1" transform="matrix(0.760182 -0.64971 0.651872 0.758329 31.9614 60.2288)" stroke="#F08888" stroke-width="2" stroke-linecap="round" stroke-linejoin="round"/>
<line x1="1" y1="-1" x2="12.4366" y2="-1" transform="matrix(0.760182 -0.649711 0.651871 0.75833 35.6094 64.5938)" stroke="#F08888" stroke-width="2" stroke-linecap="round" stroke-linejoin="round"/>
<path d="M39.3066 67.9309L46.5535 61.6836" stroke="#F08888" stroke-width="2" stroke-linecap="round" stroke-linejoin="round"/>
</g>
<defs>
<clipPath id="clip0">
<rect width="148" height="136" fill="white"/>
</clipPath>
<clipPath id="clip1">
<rect x="47.8823" y="50.6382" width="67.1222" height="66.9292" fill="white"/>
</clipPath>
</defs>
</svg>
