<svg width="587" height="166" viewBox="0 0 587 166" fill="none" xmlns="http://www.w3.org/2000/svg">
<g opacity="0.8">
<path d="M85.2379 23V121H61.2429V80.1089H23.8554V121H0V23H23.8554V60.9802H61.2429V23H85.2379Z" fill="#CDEFD3"/>
<path d="M139.438 41.8515V62.3663H172.78V80.2475H139.438V102.01H176.965V121H115.582V23H176.965V41.8515H139.438Z" fill="#CDEFD3"/>
<path d="M265.566 103.119H228.597L222.459 121H197.348L233.48 23.6931H260.962L297.094 121H271.704L265.566 103.119ZM259.428 85.099L247.151 49.0594L234.735 85.099H259.428Z" fill="#CDEFD3"/>
<path d="M344.173 102.842H375.98V121H320.318V23H344.173V102.842Z" fill="#CDEFD3"/>
<path d="M471.756 23V41.8515H444.971V121H420.976V41.8515H394.47V23H471.756Z" fill="#CDEFD3"/>
<path d="M581 23V121H557.005V80.1089H519.618V121H495.762V23H519.618V60.9802H557.005V23H581Z" fill="#CDEFD3"/>
</g>
<path d="M256 65.8892L286.287 20.1157C306.973 -11.1432 354.541 -4.76028 366.28 30.8705C375.838 59.9434 354.235 89.847 323.687 89.847H268.307L266.605 90.2842L266.299 88.448L256 65.8892Z" fill="#3D8864"/>
<path d="M445.85 135.765C445.85 135.765 448.25 114.692 459.422 105.468C470.551 96.1993 483.861 78.2309 473.169 67.6947C462.477 57.1585 433.369 78.9304 431.143 126.496L445.85 135.765Z" fill="url(#paint0_linear)"/>
<path d="M465.881 77.9686C452.178 89.248 442.795 108.134 437.82 130.693" stroke="#F9F9F9" stroke-width="0.9696" stroke-miterlimit="10" stroke-linecap="round"/>
<path d="M453.313 155.351C470.289 145.033 487.222 127.152 488.051 113.118C488.837 99.0847 475.439 96.6365 463.481 114.255C451.524 131.874 443.712 137.207 443.712 137.207L453.313 155.351Z" fill="url(#paint1_linear)"/>
<path d="M478.93 113.206C478.93 113.206 467.54 133.754 448.687 146.607" stroke="#F9F9F9" stroke-width="0.9696" stroke-miterlimit="10" stroke-linecap="round"/>
<path d="M451.262 146.126C446.112 121.906 463.656 96.8113 488.269 85.7505" stroke="#F08888" stroke-width="0.9696" stroke-miterlimit="10" stroke-linecap="round" stroke-linejoin="round"/>
<path d="M482.421 88.7234C486.087 86.0128 496.517 71.8917 500.925 78.0997C505.551 84.6138 482.421 88.7234 482.421 88.7234Z" fill="#F08888"/>
<path d="M472.166 95.8057C474.959 93.3575 473.213 86.1876 476.268 81.466C479.323 76.7444 483.294 77.8811 482.334 82.2092C481.33 86.5811 472.166 95.8057 472.166 95.8057Z" fill="#F08888"/>
<path d="M473.518 94.7128C476.442 92.5269 481.374 97.7294 486.436 97.3797C491.498 97.0299 492.677 93.3138 488.269 91.3465C482.421 88.7234 473.518 94.7128 473.518 94.7128Z" fill="#F08888"/>
<path d="M461.605 106.735C463.089 104.899 462.914 100.746 462.652 96.1992C462.39 91.9148 464.485 86.0128 467.671 88.1113C470.726 90.1661 467.671 95.4123 466.405 98.4726C465.663 100.134 461.605 106.735 461.605 106.735Z" fill="#F08888"/>
<path d="M459.51 109.665C461.91 106.91 466.667 107.216 470.289 108.091C473.912 109.009 478.101 107.785 478.014 105.118C477.927 102.495 474.086 101.227 469.853 102.538C464.005 104.375 459.51 109.665 459.51 109.665Z" fill="#F08888"/>
<path d="M453.749 120.507C454.622 117.009 454.971 112.506 452.614 109.402C450.258 106.255 450.825 99.7404 455.495 100.79C460.121 101.795 453.749 120.507 453.749 120.507Z" fill="#F08888"/>
<path d="M453.007 122.474C454.447 118.233 461.037 118.146 463.83 119.982C466.623 121.818 470.987 118.233 468.063 115.348C465.183 112.463 459.466 114.036 456.411 117.228C454.316 119.458 453.007 122.474 453.007 122.474Z" fill="#F08888"/>
<path d="M432.846 107.828C432.846 107.828 452.048 84.6575 454.841 61.0057C457.59 37.3539 441.356 27.9106 435.508 35.6488C429.616 43.3871 436.686 64.853 416 83.5646L432.846 107.828Z" fill="url(#paint2_linear)"/>
<path d="M443.625 50.7318C443.625 50.7318 443.625 75.1706 424.379 95.6309" stroke="#F9F9F9" stroke-width="0.9696" stroke-miterlimit="10" stroke-linecap="round"/>
<path d="M367.609 137C361.579 129.71 352.023 107.329 372.248 100.736C397.39 92.5169 390.617 78.3082 407.966 80.1656C425.361 82.0229 433.757 90.3345 435.752 103.8C437.746 117.266 427.077 137 427.077 137H367.609Z" fill="#9A81FF"/>
<path d="M280.559 165.956C280.559 165.956 267.963 129.512 290.164 116.5C312.366 103.444 336.511 121 375.439 104.148C420.302 92.8504 461.898 127.975 454.039 166H280.559V165.956Z" fill="#FFBCF2"/>
<path d="M163.987 166C163.987 152.753 126.587 94.6947 157.092 82.3661C183.233 71.8299 205.708 93.7329 224.081 99.1978C251.88 107.373 282.254 129.364 264.841 166H163.987Z" fill="url(#paint3_linear)"/>
<path d="M121.609 166C115.579 158.71 106.023 136.329 126.248 129.736C151.39 121.517 144.617 107.308 161.966 109.166C179.361 111.023 187.757 119.334 189.752 132.8C191.746 146.266 181.077 166 181.077 166H121.609Z" fill="#F27F97"/>
<path d="M192.02 120.897C192.02 120.897 187.868 101.026 177.305 83.974C166.741 66.9218 150.78 57.7257 143.723 68.7241C136.665 79.7225 171.216 99.7784 177.305 129.955L192.02 120.897Z" fill="url(#paint4_linear)"/>
<path d="M158.945 78.1512C175.367 93.6784 184.085 125.749 184.085 125.749" stroke="#F9F9F9" stroke-width="0.9696" stroke-miterlimit="10" stroke-linecap="round"/>
<path d="M196.587 117.385C196.587 117.385 188.791 41.1357 148.336 12.0222" stroke="#F08888" stroke-width="0.9696" stroke-miterlimit="10" stroke-linecap="round" stroke-linejoin="round"/>
<path d="M152.165 15.026C149.166 12.207 146.952 5.73738 142.155 2.91846C137.403 0.0995362 134.543 4.95178 138.141 7.67827C141.739 10.451 152.165 15.026 152.165 15.026Z" fill="#F08888"/>
<path d="M164.296 27.7342C162.267 24.7304 161.621 19.9244 162.59 15.9039C163.558 11.8373 160.744 7.07748 157.239 9.48049C153.687 11.8835 164.296 27.7342 164.296 27.7342Z" fill="#F08888"/>
<path d="M165.081 28.7508C161.805 25.6084 153.871 29.8137 151.334 28.5198C147.505 26.5789 147.874 22.7433 152.026 22.0039C157.1 21.0797 165.081 28.7508 165.081 28.7508Z" fill="#F08888"/>
<path d="M173.753 42.2909C172.138 38.0856 174.998 33.4645 176.198 30.091C177.812 25.6084 173.338 21.357 170.662 26.394C167.941 31.3387 173.753 42.2909 173.753 42.2909Z" fill="#F08888"/>
<path d="M177.582 49.6848C175.321 45.9416 171.492 45.156 167.618 45.8954C162.728 46.8658 158.346 45.7568 158.991 41.8287C159.683 37.9007 167.664 38.9174 170.893 41.3204C174.214 43.7696 177.582 49.6848 177.582 49.6848Z" fill="#F08888"/>
<path d="M184.685 66.737C182.656 61.3302 188.284 56.9863 191.559 54.4909C195.803 51.256 194.096 45.2485 187.638 48.1598C178.735 52.1341 184.685 66.737 184.685 66.737Z" fill="#F08888"/>
<path d="M187.638 75.6558C186.208 72.7907 182.886 69.3248 178.642 69.8332C174.399 70.3415 167.571 68.3544 167.987 63.8718C168.402 59.3893 175.275 59.759 179.565 63.1787C183.532 66.3211 187.638 75.6558 187.638 75.6558Z" fill="#F08888"/>
<path d="M176.936 131.48C171.123 105.971 143.123 89.7505 114.615 90.1664" stroke="#F08888" stroke-width="0.9696" stroke-miterlimit="10" stroke-linecap="round" stroke-linejoin="round"/>
<path d="M121.534 90.3975C116.829 89.427 100.545 80.5543 99.0692 88.4566C97.5469 96.7285 121.534 90.3975 121.534 90.3975Z" fill="#F08888"/>
<path d="M134.543 92.5694C130.806 91.5065 129.284 83.8354 124.256 80.6467C119.228 77.4581 115.953 80.3233 118.813 84.0664C121.673 87.8558 134.543 92.5694 134.543 92.5694Z" fill="#F08888"/>
<path d="M132.744 92.1535C128.961 91.3679 126.562 98.5307 121.58 100.472C116.598 102.366 113.784 99.3625 117.152 95.5269C121.534 90.3974 132.744 92.1535 132.744 92.1535Z" fill="#F08888"/>
<path d="M149.535 98.3459C147.32 97.2369 145.614 93.2164 143.861 88.7339C142.2 84.4824 137.587 79.7688 135.465 83.2347C133.482 86.5619 138.694 90.2589 141.278 92.5695C142.708 93.8172 149.535 98.3459 149.535 98.3459Z" fill="#F08888"/>
<path d="M152.856 100.194C149.35 98.6232 144.876 101.026 141.831 103.522C138.787 106.017 134.174 106.71 133.113 104.122C132.006 101.535 135.142 98.6695 139.801 98.0225C146.167 97.1907 152.856 100.194 152.856 100.194Z" fill="#F08888"/>
<path d="M163.189 108.05C160.975 105.231 158.484 100.934 159.314 96.8671C160.191 92.8005 156.731 86.793 152.718 89.8891C148.75 92.9391 163.189 108.05 163.189 108.05Z" fill="#F08888"/>
<path d="M164.757 109.622C161.39 106.849 155.116 109.067 153.271 112.071C151.426 115.075 145.66 113.596 147.136 109.529C148.612 105.463 154.793 104.446 159.13 106.156C162.174 107.311 164.757 109.622 164.757 109.622Z" fill="#F08888"/>
<path d="M177.812 126.35C168.587 121.868 166.88 109.899 158.023 110.823C149.166 111.747 155.025 135.315 170.109 140.537L177.812 126.35Z" fill="url(#paint5_linear)"/>
<path d="M161.575 121.313C161.575 121.313 165.772 130.047 173.799 133.744" stroke="#F9F9F9" stroke-width="0.9696" stroke-miterlimit="10" stroke-linecap="round"/>
<path d="M222.189 114.335C222.189 104.076 232.199 97.283 227.494 89.7043C222.788 82.1255 204.198 97.6989 206.09 113.596L222.189 114.335Z" fill="url(#paint6_linear)"/>
<path d="M219.605 97.514C219.605 97.514 213.563 105.139 213.793 113.965" stroke="#F9F9F9" stroke-width="0.9696" stroke-miterlimit="10" stroke-linecap="round"/>
<path d="M190.913 116.738C189.298 106.618 178.319 101.488 181.779 93.2626C185.193 85.0368 206.043 97.4678 206.689 113.457L190.913 116.738Z" fill="url(#paint7_linear)"/>
<path d="M190.774 99.7323C190.774 99.7323 197.924 106.294 199.124 115.028" stroke="#F9F9F9" stroke-width="0.9696" stroke-miterlimit="10" stroke-linecap="round"/>
<path d="M172.23 139.243C158.622 134.576 154.516 121.775 142.569 111.84C130.621 101.858 115.906 102.782 113.553 110.777C111.201 118.771 126.793 119.603 138.925 136.702C151.057 153.8 172.23 155.787 172.23 155.787V139.243Z" fill="url(#paint8_linear)"/>
<path d="M172.23 147.469C155.624 143.264 146.49 124.779 129.791 115.953" stroke="#F9F9F9" stroke-width="0.9696" stroke-miterlimit="10" stroke-linecap="round"/>
<path d="M284.621 165.956C284.621 165.956 293.042 129.512 278.199 116.5C263.356 103.444 247.215 121 221.189 104.148C191.197 92.8504 163.388 127.975 168.643 166H284.621V165.956Z" fill="#FFD6D6"/>
<path d="M146.4 166C144.523 162.765 143.258 157.781 147.622 152.447C155.215 143.179 162.372 152.884 176.25 149.168C190.128 145.452 196.892 154.633 196.063 166H146.4Z" fill="#3D8864"/>
<path d="M294.479 166C292.874 162.71 291.792 157.642 295.523 152.218C302.016 142.793 308.136 152.663 320.001 148.884C331.867 145.105 337.651 154.441 336.942 166H294.479Z" fill="#3D8864"/>
<path d="M314.656 85.0766C319.631 84.2023 325.784 81.7977 331.501 77.557C339.662 71.5238 336.694 63.9168 348.608 55.4791C348.608 55.4791 363.533 61.7746 356.202 76.8575C348.87 91.9405 335.123 92.7274 323.384 92.334C320.154 92.2028 317.056 91.9842 314.306 91.7219L314.656 85.0766Z" fill="#FF9C68"/>
<path d="M314.306 91.7219C307.062 90.9787 302 89.9294 302 89.9294C302 89.9294 303.789 84.9018 308.982 85.4264C310.553 85.6013 312.517 85.4701 314.699 85.0767L314.306 91.7219Z" fill="#FFD7C1"/>
<path d="M307.717 88.749C307.717 88.749 304.269 88.0495 303.833 88.8365C303.396 89.6671 304.924 90.4978 306.888 90.7601" stroke="#FF9C68" stroke-width="0.75" stroke-miterlimit="10" stroke-linecap="round"/>
<path opacity="0.45" d="M323.515 82.2789C326.177 81.0985 328.882 79.5247 331.501 77.601C339.662 71.5678 336.694 63.9608 348.608 55.5231C348.608 55.5231 363.533 61.8186 356.202 76.9015C349.612 90.4106 337.916 92.4654 327.093 92.4217C325.086 88.7493 324.038 85.1206 323.515 82.2789Z" fill="url(#paint9_linear)"/>
<path d="M357.38 159.617L359.78 166H343.153L351.75 160.797L357.38 159.617Z" fill="#FF9C68"/>
<path d="M349.743 100.509C349.743 100.509 333.988 97.4928 326.482 103.832C319.02 110.171 333.552 138.501 351.75 160.754L357.38 159.573C357.38 159.573 342.237 131.156 342.455 118.696C342.717 106.28 349.743 100.509 349.743 100.509Z" fill="#9A81FF"/>
<path opacity="0.3" d="M334.905 136.577C326.133 121.494 321.594 107.985 326.482 103.832C333.945 97.4928 349.743 100.509 349.743 100.509C349.743 100.509 342.717 106.28 342.498 118.74C342.411 122.85 344.026 128.664 346.164 134.654C343.153 135.528 339.443 136.271 334.905 136.577Z" fill="url(#paint10_linear)"/>
<path d="M351.707 52.1564C351.707 52.1564 354.674 50.7137 353.103 46.779C353.103 46.779 355.46 44.2433 353.54 42.0137C353.54 42.0137 355.373 36.8986 351.969 34.4503C348.565 32.0021 345.99 34.3629 344.419 33.882C342.848 33.4011 337.174 30.4282 335.254 33.6634C333.378 36.8986 335.865 40.0463 338.833 40.3961L346.47 47.566L351.707 52.1564Z" fill="black"/>
<path d="M354.15 56.4846L351.707 52.2001C351.707 52.2001 349.743 50.7137 349.874 49.3584C350.048 48.0031 349.044 47.3036 349.044 47.3036C349.044 47.3036 351.663 46.6479 351.401 43.7187C351.139 40.7896 347.473 40.5272 346.295 42.582C345.16 44.6805 343.153 42.1011 343.022 40.4835C343.022 40.4835 340.84 41.4453 338.876 40.4835C338.876 40.4835 339.225 44.5931 337.436 46.9102C337.436 46.9102 338.178 47.5222 339.138 47.6097C339.138 47.6097 338.702 50.976 340.884 52.5499C343.589 54.5172 345.684 53.2931 345.684 53.2931L348.914 59.1077L354.15 56.4846Z" fill="#FFD7C1"/>
<path d="M349.699 43.5001C349.699 43.5001 348.652 43.0629 347.604 43.1941" stroke="#FF9C68" stroke-width="0.75" stroke-miterlimit="10" stroke-linecap="round"/>
<path d="M348.565 45.074C348.565 45.074 348.259 44.2433 348.652 43.2378" stroke="#FF9C68" stroke-width="0.75" stroke-miterlimit="10" stroke-linecap="round"/>
<path d="M340.578 44.2871C340.578 44.2871 341.32 43.675 342.717 44.156" stroke="#FF9C68" stroke-width="0.75" stroke-miterlimit="10" stroke-linecap="round"/>
<path d="M340.579 48.4404C340.579 47.3037 341.495 46.3419 342.673 46.3419C343.852 46.3419 344.768 47.26 344.768 48.4404C344.768 49.6208 343.852 50.5389 342.673 50.5389C341.495 50.5389 340.579 49.577 340.579 48.4404Z" fill="#F47676"/>
<path d="M349.437 55.0419C368.552 46.9102 384.044 87.3937 381.688 105.45L361.962 111.658L349.699 100.553C345.728 86.9128 340.404 58.8891 349.437 55.0419Z" fill="#FF9C68"/>
<path opacity="0.45" d="M346.819 88.6616L364.755 73.1414C366.937 91.7219 363.227 106.28 363.227 106.28L355.503 105.756L349.742 100.553C348.782 97.2304 347.735 93.0772 346.819 88.6616Z" fill="url(#paint11_linear)"/>
<path d="M317.972 160.054L318.67 166H303.178L312.343 160.054H317.972Z" fill="#FF9C68"/>
<path d="M349.743 100.509C349.743 100.509 362.573 104.969 381.688 105.406C381.469 106.936 381.164 108.335 380.684 109.515C374.705 124.38 367.373 124.38 342.935 126.216C316.619 128.227 317.972 160.054 317.972 160.054H312.299C312.299 160.054 307.236 147.114 313.783 129.233C320.372 111.352 349.743 100.509 349.743 100.509Z" fill="#9A81FF"/>
<path d="M315.5 55.348L321.314 52.6321L323.619 57.5849L317.805 60.3008L315.5 55.348Z" fill="#F47676"/>
<path d="M315.529 55.3479C311.252 57.359 306.408 54.2549 304.313 52.6811C303.833 52.3313 303.135 52.6373 303.135 53.2494C303.091 54.9981 303.44 58.3208 305.622 62.9987C307.804 67.6766 310.117 70.0811 311.47 71.1741C311.95 71.5675 312.605 71.2178 312.648 70.6494C312.736 68.0263 313.477 62.3429 317.798 60.3318L315.529 55.3479Z" fill="#EDF2FE"/>
<path d="M327.66 50.0579L328.664 52.2439L329.668 54.4298L323.646 57.6213L322.467 55.1293L321.333 52.6373L327.66 50.0579Z" fill="#EDF2FE"/>
<path d="M326.482 73.8846L331.806 70.2123C337.13 77.3821 345.902 84.3771 345.902 84.3771C342.716 67.3706 344.375 55.2605 351.794 55.0419C369.075 54.5172 369.905 101.121 351.357 98.6294C339.4 97.0118 330.977 83.4153 326.482 73.8846Z" fill="#FF9C68"/>
<path d="M318.845 58.0147C321.158 56.0474 324.998 56.3971 328.664 64.966C329.362 66.671 330.497 68.4635 331.806 70.2122L326.482 73.8846C323.994 68.5946 322.685 64.5725 322.685 64.5725C319.718 63.9167 316.532 59.9383 318.845 58.0147Z" fill="#FFD7C1"/>
<path d="M361.046 129.364H362.966V161.541H361.046V129.364Z" fill="#3D8864"/>
<path d="M347.823 161.497H376.189V162.94H347.823V161.497Z" fill="#3D8864"/>
<path d="M375.775 165.875C373.992 165.452 372.89 163.661 373.312 161.876C373.734 160.09 375.521 158.985 377.304 159.408C379.086 159.831 380.189 161.622 379.767 163.407C379.345 165.193 377.557 166.298 375.775 165.875Z" fill="#3D8864"/>
<path d="M376.538 164.688C377.673 164.688 378.545 163.77 378.545 162.677C378.545 161.541 377.629 160.666 376.538 160.666C375.403 160.666 374.53 161.584 374.53 162.677C374.487 163.77 375.403 164.688 376.538 164.688Z" fill="#EDF2FE"/>
<path d="M350.79 162.634C350.79 160.797 349.306 159.311 347.473 159.311C345.64 159.311 344.157 160.797 344.157 162.634C344.157 164.47 345.64 165.956 347.473 165.956C349.306 166 350.79 164.47 350.79 162.634Z" fill="#3D8864"/>
<path d="M347.473 164.688C346.339 164.688 345.466 163.77 345.466 162.677C345.466 161.541 346.382 160.666 347.473 160.666C348.608 160.666 349.481 161.584 349.481 162.677C349.481 163.77 348.565 164.688 347.473 164.688Z" fill="#EDF2FE"/>
<path d="M385.179 107.942L376.058 127.746" stroke="#3D8864" stroke-width="1.5" stroke-miterlimit="10" stroke-linecap="round"/>
<path d="M348.87 130.719H375.098C376.451 130.719 377.585 129.626 377.585 128.227C377.585 126.872 376.494 125.735 375.098 125.735H348.87C347.517 125.735 346.382 126.828 346.382 128.227C346.382 129.626 347.517 130.719 348.87 130.719Z" fill="#F47676"/>
<path d="M384.917 108.379C386.532 108.379 387.885 107.067 387.885 105.406V80.9671C387.885 79.3495 386.576 77.9942 384.917 77.9942C383.302 77.9942 381.95 79.3058 381.95 80.9671V105.406C381.95 107.067 383.259 108.379 384.917 108.379Z" fill="#F47676"/>
<path d="M233.571 5.27519C251.474 7.15129 264.515 21.4259 260.425 40.4316L272 52.5039L257.415 48.7517C246.998 66.5338 202.627 62.6185 199.386 37.9845C196.145 12.3717 213.816 3.23595 233.571 5.27519Z" fill="#F47676"/>
<path d="M223.558 20.1061C223.558 19.01 222.748 18.1574 221.706 18.1574H216.496C215.454 18.1574 214.643 19.01 214.643 20.1061V35.5735C214.643 36.6696 215.454 37.5222 216.496 37.5222H221.706C222.748 37.5222 223.558 36.6696 223.558 35.5735V20.1061Z" fill="#EDF2FE"/>
<path d="M227.264 18.1576C226.222 18.1576 225.411 19.0101 225.411 20.1062V35.5736C225.411 38.0095 232.821 42.5157 233.284 44.9515C233.516 46.5348 233.169 50.5539 234.211 50.5539C235.948 50.5539 238.147 49.8232 238.147 45.8041C238.147 42.2721 235.948 37.6441 235.948 37.6441H244.979C246.368 37.6441 247.526 36.4262 247.526 34.9647C247.526 33.625 246.715 32.6507 245.558 32.2853C246.137 31.7981 246.484 31.0674 246.484 30.2148C246.484 28.8751 245.673 27.9008 244.516 27.5354C245.094 27.0483 245.442 26.3175 245.442 25.465C245.442 24.1253 244.631 23.151 243.473 22.7856C244.052 22.2984 244.4 21.5677 244.4 20.7152C244.4 19.2537 243.242 18.0358 241.853 18.0358L227.264 18.1576Z" fill="#EDF2FE"/>
<path d="M292.809 92.1153H267.279C266.668 92.1153 266.145 91.5907 266.145 90.9787C266.145 90.3666 266.668 89.842 267.279 89.842H292.809C293.42 89.842 293.944 90.3666 293.944 90.9787C293.944 91.5907 293.42 92.1153 292.809 92.1153Z" fill="black"/>
<path d="M255.191 65.5344C255.54 65.3595 255.977 65.5344 256.108 65.8841L266.931 89.0988C267.105 89.4485 266.931 89.8857 266.581 90.0169C266.232 90.1917 265.796 90.0169 265.665 89.6671L254.842 66.4525C254.667 66.1464 254.842 65.7092 255.191 65.5344Z" fill="black"/>
<path d="M239 92.1154H301.145V94.5199H239V92.1154Z" fill="#3D8864"/>
<path d="M268.894 94.4761H271.207V164.12H268.894V94.4761Z" fill="#3D8864"/>
<path d="M253.009 164.12H287.049V165.956H253.009V164.12Z" fill="#3D8864"/>
<path opacity="0.3" d="M268.894 94.4761H271.207V99.154H268.894V94.4761Z" fill="url(#paint12_linear)"/>
<path d="M363.492 51.763C362.552 51.763 361.79 50.9997 361.79 50.058C361.79 49.1163 362.552 48.353 363.492 48.353C364.432 48.353 365.194 49.1163 365.194 50.058C365.194 50.9997 364.432 51.763 363.492 51.763Z" stroke="#FF9C68" stroke-width="0.9696" stroke-miterlimit="10" stroke-linecap="round" stroke-linejoin="round"/>
<path d="M153.799 74.8465C152.859 74.8465 152.097 74.0831 152.097 73.1414C152.097 72.1998 152.859 71.4364 153.799 71.4364C154.739 71.4364 155.501 72.1998 155.501 73.1414C155.501 74.0831 154.739 74.8465 153.799 74.8465Z" stroke="#FF9C68" stroke-width="0.9696" stroke-miterlimit="10" stroke-linecap="round" stroke-linejoin="round"/>
<path d="M127.702 19.4101C126.762 19.4101 126 18.6467 126 17.705C126 16.7634 126.762 16 127.702 16C128.642 16 129.404 16.7634 129.404 17.705C129.404 18.6467 128.642 19.4101 127.702 19.4101Z" stroke="#FF9C68" stroke-width="0.9696" stroke-miterlimit="10" stroke-linecap="round" stroke-linejoin="round"/>
<path d="M367.857 140.862C366.917 140.862 366.155 140.098 366.155 139.157C366.155 138.215 366.917 137.452 367.857 137.452C368.797 137.452 369.559 138.215 369.559 139.157C369.559 140.098 368.797 140.862 367.857 140.862Z" stroke="#FF9C68" stroke-width="0.9696" stroke-miterlimit="10" stroke-linecap="round" stroke-linejoin="round"/>
<path d="M314.528 5.98948C314.528 4.59048 315.662 3.4538 317.059 3.4538C318.455 3.4538 319.59 4.59048 319.59 5.98948C319.59 7.38848 318.455 8.52517 317.059 8.52517C315.619 8.52517 314.528 7.38848 314.528 5.98948Z" stroke="#FF9C68" stroke-width="0.9696" stroke-miterlimit="10" stroke-linecap="round" stroke-linejoin="round"/>
<path d="M173.306 55.9599C173.306 54.5609 174.441 53.4243 175.837 53.4243C177.234 53.4243 178.369 54.5609 178.369 55.9599C178.369 57.3589 177.234 58.4956 175.837 58.4956C174.441 58.4956 173.306 57.3589 173.306 55.9599Z" stroke="#FF9C68" stroke-width="0.9696" stroke-miterlimit="10" stroke-linecap="round" stroke-linejoin="round"/>
<path d="M246.493 65.3092C245.553 65.3092 244.791 64.5459 244.791 63.6042C244.791 62.6625 245.553 61.8992 246.493 61.8992C247.433 61.8992 248.195 62.6625 248.195 63.6042C248.195 64.5459 247.433 65.3092 246.493 65.3092Z" stroke="#FF9C68" stroke-width="0.9696" stroke-miterlimit="10" stroke-linecap="round" stroke-linejoin="round"/>
<path d="M36.799 88.3927C35.859 88.3927 35.097 87.6293 35.097 86.6876C35.097 85.746 35.859 84.9826 36.799 84.9826C37.739 84.9826 38.501 85.746 38.501 86.6876C38.501 87.6293 37.739 88.3927 36.799 88.3927Z" stroke="#FF9C68" stroke-width="0.9696" stroke-miterlimit="10" stroke-linecap="round" stroke-linejoin="round"/>
<path d="M10.7023 32.9563C9.76234 32.9563 9.00034 32.1929 9.00034 31.2512C9.00034 30.3096 9.76234 29.5462 10.7023 29.5462C11.6423 29.5462 12.4043 30.3096 12.4043 31.2512C12.4043 32.1929 11.6423 32.9563 10.7023 32.9563Z" stroke="#FF9C68" stroke-width="0.9696" stroke-miterlimit="10" stroke-linecap="round" stroke-linejoin="round"/>
<path d="M250.857 154.408C249.917 154.408 249.155 153.645 249.155 152.703C249.155 151.761 249.917 150.998 250.857 150.998C251.797 150.998 252.559 151.761 252.559 152.703C252.559 153.645 251.797 154.408 250.857 154.408Z" stroke="#FF9C68" stroke-width="0.9696" stroke-miterlimit="10" stroke-linecap="round" stroke-linejoin="round"/>
<path d="M287 45.5357C287 44.1367 288.135 43 289.531 43C290.928 43 292.062 44.1367 292.062 45.5357C292.062 46.9347 290.928 48.0714 289.531 48.0714C288.091 48.0714 287 46.9347 287 45.5357Z" stroke="#FF9C68" stroke-width="0.9696" stroke-miterlimit="10" stroke-linecap="round" stroke-linejoin="round"/>
<path d="M56.3068 69.5061C56.3068 68.1071 57.4415 66.9705 58.838 66.9705C60.2345 66.9705 61.3691 68.1071 61.3691 69.5061C61.3691 70.9051 60.2345 72.0418 58.838 72.0418C57.4415 72.0418 56.3068 70.9051 56.3068 69.5061Z" stroke="#FF9C68" stroke-width="0.9696" stroke-miterlimit="10" stroke-linecap="round" stroke-linejoin="round"/>
<path d="M348.066 63.3092C349.006 63.3092 349.768 62.5459 349.768 61.6042C349.768 60.6625 349.006 59.8992 348.066 59.8992C347.126 59.8992 346.364 60.6625 346.364 61.6042C346.364 62.5459 347.126 63.3092 348.066 63.3092Z" stroke="#FF9C68" stroke-width="0.9696" stroke-miterlimit="10" stroke-linecap="round" stroke-linejoin="round"/>
<path d="M557.76 86.3927C558.7 86.3927 559.462 85.6293 559.462 84.6876C559.462 83.746 558.7 82.9826 557.76 82.9826C556.82 82.9826 556.058 83.746 556.058 84.6876C556.058 85.6293 556.82 86.3927 557.76 86.3927Z" stroke="#FF9C68" stroke-width="0.9696" stroke-miterlimit="10" stroke-linecap="round" stroke-linejoin="round"/>
<path d="M583.857 30.9563C584.797 30.9563 585.559 30.1929 585.559 29.2512C585.559 28.3096 584.797 27.5462 583.857 27.5462C582.917 27.5462 582.155 28.3096 582.155 29.2512C582.155 30.1929 582.917 30.9563 583.857 30.9563Z" stroke="#FF9C68" stroke-width="0.9696" stroke-miterlimit="10" stroke-linecap="round" stroke-linejoin="round"/>
<path d="M343.702 152.408C344.642 152.408 345.404 151.645 345.404 150.703C345.404 149.761 344.642 148.998 343.702 148.998C342.762 148.998 342 149.761 342 150.703C342 151.645 342.762 152.408 343.702 152.408Z" stroke="#FF9C68" stroke-width="0.9696" stroke-miterlimit="10" stroke-linecap="round" stroke-linejoin="round"/>
<path d="M397.031 17.5357C397.031 16.1367 395.896 15 394.5 15C393.103 15 391.969 16.1367 391.969 17.5357C391.969 18.9347 393.103 20.0714 394.5 20.0714C395.94 20.0714 397.031 18.9347 397.031 17.5357Z" stroke="#FF9C68" stroke-width="0.9696" stroke-miterlimit="10" stroke-linecap="round" stroke-linejoin="round"/>
<path d="M538.252 67.5061C538.252 66.1071 537.118 64.9705 535.721 64.9705C534.325 64.9705 533.19 66.1071 533.19 67.5061C533.19 68.9051 534.325 70.0418 535.721 70.0418C537.118 70.0418 538.252 68.9051 538.252 67.5061Z" stroke="#FF9C68" stroke-width="0.9696" stroke-miterlimit="10" stroke-linecap="round" stroke-linejoin="round"/>
<path d="M500.429 6.27519C482.526 8.15129 469.485 22.4259 473.575 41.4316L462 53.5039L476.585 49.7517C487.002 67.5338 531.373 63.6185 534.614 38.9845C537.855 13.3717 520.184 4.23595 500.429 6.27519Z" fill="#33AE47"/>
<path d="M496.915 44.4478C496.915 45.5439 496.105 46.3965 495.063 46.3965H489.853C488.81 46.3965 488 45.5439 488 44.4478V28.9804C488 27.8843 488.81 27.0317 489.853 27.0317H495.063C496.105 27.0317 496.915 27.8843 496.915 28.9804V44.4478Z" fill="#EDF2FE"/>
<path d="M500.621 46.3963C499.579 46.3963 498.768 45.5438 498.768 44.4477V28.9803C498.768 26.5444 506.178 22.0382 506.641 19.6024C506.873 18.0191 506.526 14 507.568 14C509.304 14 511.504 14.7307 511.504 18.7498C511.504 22.2818 509.304 26.9098 509.304 26.9098H518.336C519.725 26.9098 520.883 28.1277 520.883 29.5892C520.883 30.9289 520.072 31.9032 518.915 32.2686C519.493 32.7558 519.841 33.4865 519.841 34.3391C519.841 35.6787 519.03 36.6531 517.872 37.0184C518.451 37.5056 518.799 38.2364 518.799 39.0889C518.799 40.4286 517.988 41.4029 516.83 41.7683C517.409 42.2554 517.757 42.9862 517.757 43.8387C517.757 45.3002 516.599 46.5181 515.209 46.5181L500.621 46.3963Z" fill="#EDF2FE"/>
<defs>
<linearGradient id="paint0_linear" x1="433.663" y1="131.509" x2="455.649" y2="91.0704" gradientUnits="userSpaceOnUse">
<stop offset="0.00398406" stop-color="#67B292"/>
<stop offset="1" stop-color="#7AC8A9"/>
</linearGradient>
<linearGradient id="paint1_linear" x1="447.541" y1="145.987" x2="477.53" y2="117.55" gradientUnits="userSpaceOnUse">
<stop offset="0.00398406" stop-color="#60BEC8"/>
<stop offset="1" stop-color="#79D7DB"/>
</linearGradient>
<linearGradient id="paint2_linear" x1="426.285" y1="100.349" x2="438.236" y2="66.6369" gradientUnits="userSpaceOnUse">
<stop offset="0.00398406" stop-color="#60BEC8"/>
<stop offset="1" stop-color="#79D7DB"/>
</linearGradient>
<linearGradient id="paint3_linear" x1="269.965" y1="122.757" x2="145.129" y2="122.757" gradientUnits="userSpaceOnUse">
<stop offset="0.00398406" stop-color="#D8E3FF"/>
<stop offset="1" stop-color="#D2DFFF"/>
</linearGradient>
<linearGradient id="paint4_linear" x1="182.4" y1="125.151" x2="158.241" y2="74.7272" gradientUnits="userSpaceOnUse">
<stop offset="0.00398406" stop-color="#60BEC8"/>
<stop offset="1" stop-color="#79D7DB"/>
</linearGradient>
<linearGradient id="paint5_linear" x1="175.397" y1="135.917" x2="159.31" y2="120.345" gradientUnits="userSpaceOnUse">
<stop offset="0.00398406" stop-color="#67B292"/>
<stop offset="1" stop-color="#7AC8A9"/>
</linearGradient>
<linearGradient id="paint6_linear" x1="212.543" y1="116.346" x2="219.56" y2="95.0677" gradientUnits="userSpaceOnUse">
<stop offset="0.00398406" stop-color="#60BEC8"/>
<stop offset="1" stop-color="#79D7DB"/>
</linearGradient>
<linearGradient id="paint7_linear" x1="200.735" y1="117.204" x2="190.418" y2="97.3195" gradientUnits="userSpaceOnUse">
<stop offset="0.00398406" stop-color="#67B292"/>
<stop offset="1" stop-color="#7AC8A9"/>
</linearGradient>
<linearGradient id="paint8_linear" x1="172.932" y1="144.289" x2="146.387" y2="129.46" gradientUnits="userSpaceOnUse">
<stop offset="0.00398406" stop-color="#60BEC8"/>
<stop offset="1" stop-color="#79D7DB"/>
</linearGradient>
<linearGradient id="paint9_linear" x1="345.546" y1="72.8223" x2="322.74" y2="84.4637" gradientUnits="userSpaceOnUse">
<stop stop-opacity="0.6"/>
<stop offset="0.8969" stop-opacity="0"/>
</linearGradient>
<linearGradient id="paint10_linear" x1="334.308" y1="97.6316" x2="348.078" y2="141.634" gradientUnits="userSpaceOnUse">
<stop offset="0.3506"/>
<stop offset="0.875" stop-opacity="0"/>
</linearGradient>
<linearGradient id="paint11_linear" x1="348.183" y1="88.1858" x2="370.628" y2="90.5124" gradientUnits="userSpaceOnUse">
<stop/>
<stop offset="0.7462" stop-opacity="0"/>
</linearGradient>
<linearGradient id="paint12_linear" x1="270.048" y1="99.172" x2="270.048" y2="94.4927" gradientUnits="userSpaceOnUse">
<stop stop-opacity="0"/>
<stop offset="0.8645"/>
</linearGradient>
</defs>
</svg>
