<svg width="22" height="10" viewBox="0 0 22 10" fill="none" xmlns="http://www.w3.org/2000/svg">
<path d="M4.75115 1.978C5.07515 1.978 5.36315 2.038 5.61515 2.158C5.86715 2.272 6.07415 2.437 6.23615 2.653C6.39815 2.869 6.50615 3.136 6.56015 3.454C6.62015 3.766 6.61415 4.12 6.54215 4.516C6.47015 4.912 6.35015 5.269 6.18215 5.587C6.01415 5.899 5.81015 6.166 5.57015 6.388C5.33015 6.604 5.06315 6.772 4.76915 6.892C4.48115 7.006 4.17515 7.063 3.85115 7.063C3.38315 7.063 3.01415 6.952 2.74415 6.73C2.47415 6.502 2.30915 6.208 2.24915 5.848L1.62815 9.358H0.593148L1.88915 2.041H2.91515L2.70815 3.193C2.90015 2.833 3.17015 2.542 3.51815 2.32C3.87215 2.092 4.28315 1.978 4.75115 1.978ZM3.69815 6.154C4.14815 6.154 4.53515 6.013 4.85915 5.731C5.18915 5.443 5.39915 5.038 5.48915 4.516C5.57915 4 5.51015 3.598 5.28215 3.31C5.06015 3.022 4.72415 2.878 4.27415 2.878C4.05815 2.878 3.85115 2.917 3.65315 2.995C3.45515 3.073 3.27515 3.184 3.11315 3.328C2.95715 3.466 2.82215 3.637 2.70815 3.841C2.60015 4.039 2.52215 4.264 2.47415 4.516C2.43215 4.768 2.42915 4.996 2.46515 5.2C2.50715 5.398 2.58215 5.569 2.69015 5.713C2.79815 5.857 2.93915 5.968 3.11315 6.046C3.28715 6.118 3.48215 6.154 3.69815 6.154ZM10.7612 1.96C11.0432 1.96 11.2922 2.008 11.5082 2.104C11.7242 2.194 11.9012 2.329 12.0392 2.509C12.1772 2.689 12.2702 2.914 12.3182 3.184C12.3662 3.448 12.3572 3.757 12.2912 4.111L11.7872 7H10.7612L11.2472 4.219C11.3312 3.763 11.2772 3.418 11.0852 3.184C10.8932 2.944 10.6022 2.824 10.2122 2.824C9.83418 2.824 9.50118 2.941 9.21318 3.175C8.92518 3.403 8.72718 3.754 8.61918 4.228L8.13318 7H7.09818L8.26818 0.34H9.30318L8.81718 3.121C9.01518 2.743 9.28818 2.455 9.63618 2.257C9.98418 2.059 10.3592 1.96 10.7612 1.96ZM15.6061 1.573L15.4801 1.204L17.0191 0.313L17.2171 0.853L15.6061 1.573ZM18.3781 2.041L17.5051 7H16.4701L16.6591 5.92C16.4551 6.298 16.1791 6.586 15.8311 6.784C15.4891 6.976 15.1171 7.072 14.7151 7.072C14.4391 7.072 14.1901 7.027 13.9681 6.937C13.7521 6.841 13.5751 6.703 13.4371 6.523C13.3051 6.343 13.2151 6.121 13.1671 5.857C13.1191 5.587 13.1251 5.275 13.1851 4.921L13.6981 2.041H14.7241L14.2291 4.813C14.1451 5.275 14.1991 5.626 14.3911 5.866C14.5831 6.1 14.8741 6.217 15.2641 6.217C15.6601 6.217 16.0051 6.091 16.2991 5.839C16.5931 5.581 16.7851 5.191 16.8751 4.669V4.705L17.3431 2.041H18.3781ZM20.1929 5.362C20.1449 5.65 20.1659 5.848 20.2559 5.956C20.3459 6.058 20.5199 6.109 20.7779 6.109H21.2729L21.1199 7H20.4809C20.2289 7 20.0099 6.973 19.8239 6.919C19.6379 6.859 19.4849 6.766 19.3649 6.64C19.2509 6.508 19.1759 6.337 19.1399 6.127C19.1039 5.917 19.1129 5.656 19.1669 5.344L19.5989 2.914H18.8789L19.0319 2.041H19.7519L19.9679 0.808H21.0029L20.7869 2.041H21.9839L21.8309 2.914H20.6249L20.1929 5.362Z" fill="#BDBDBD"/>
</svg>
