<svg width="35" height="19" viewBox="0 0 35 19" fill="none" xmlns="http://www.w3.org/2000/svg">
<g filter="url(#filter0_i)">
<rect width="33" height="14" rx="7" fill="#33AE47"/>
</g>
<g filter="url(#filter1_d)">
<path fill-rule="evenodd" clip-rule="evenodd" d="M20.0869 6.9125C20.0869 3.81971 22.5941 1.3125 25.6869 1.3125H25.9652C29.058 1.3125 31.5652 3.81971 31.5652 6.9125C31.5652 10.0053 29.058 12.5125 25.9652 12.5125H25.6869C22.5941 12.5125 20.0869 10.0053 20.0869 6.9125Z" fill="white"/>
<path d="M25.6869 1.0625C22.456 1.0625 19.8369 3.68163 19.8369 6.9125C19.8369 10.1434 22.456 12.7625 25.6869 12.7625H25.9652C29.196 12.7625 31.8152 10.1434 31.8152 6.9125C31.8152 3.68163 29.196 1.0625 25.9652 1.0625H25.6869Z" stroke="#090B0F" stroke-opacity="0.05" stroke-width="0.5"/>
</g>
<defs>
<filter id="filter0_i" x="-3" y="0" width="36" height="15" filterUnits="userSpaceOnUse" color-interpolation-filters="sRGB">
<feFlood flood-opacity="0" result="BackgroundImageFix"/>
<feBlend mode="normal" in="SourceGraphic" in2="BackgroundImageFix" result="shape"/>
<feColorMatrix in="SourceAlpha" type="matrix" values="0 0 0 0 0 0 0 0 0 0 0 0 0 0 0 0 0 0 127 0" result="hardAlpha"/>
<feOffset dx="-3" dy="1"/>
<feGaussianBlur stdDeviation="3"/>
<feComposite in2="hardAlpha" operator="arithmetic" k2="-1" k3="1"/>
<feColorMatrix type="matrix" values="0 0 0 0 0 0 0 0 0 0 0 0 0 0 0 0 0 0 0.35 0"/>
<feBlend mode="normal" in2="shape" result="effect1_innerShadow"/>
</filter>
<filter id="filter1_d" x="17.5869" y="0.8125" width="16.4783" height="17.2" filterUnits="userSpaceOnUse" color-interpolation-filters="sRGB">
<feFlood flood-opacity="0" result="BackgroundImageFix"/>
<feColorMatrix in="SourceAlpha" type="matrix" values="0 0 0 0 0 0 0 0 0 0 0 0 0 0 0 0 0 0 127 0"/>
<feOffset dy="3"/>
<feGaussianBlur stdDeviation="1"/>
<feColorMatrix type="matrix" values="0 0 0 0 0.0352941 0 0 0 0 0.0431373 0 0 0 0 0.0588235 0 0 0 0.05 0"/>
<feBlend mode="normal" in2="BackgroundImageFix" result="effect1_dropShadow"/>
<feBlend mode="normal" in="SourceGraphic" in2="effect1_dropShadow" result="shape"/>
</filter>
</defs>
</svg>
