<svg width="14" height="14" viewBox="0 0 14 14" fill="none" xmlns="http://www.w3.org/2000/svg">
<path d="M11.7578 1.66914H8.23047V0.411545C8.23047 0.185104 8.04707 0.00149536 7.82063 0.00138855L6.20703 0C5.98038 0 5.79688 0.184036 5.79688 0.410156V1.66914H2.24219C1.4129 1.66914 0.738281 2.34377 0.738281 3.17294V12.4962C0.738281 13.3254 1.4129 14 2.24219 14H11.7578C12.5871 14 13.2617 13.3254 13.2617 12.4962V3.17294C13.2617 2.34377 12.5871 1.66914 11.7578 1.66914ZM6.61719 0.820633L7.41016 0.821274V2.48935H6.61719V0.820633ZM12.4414 12.4962C12.4414 12.873 12.1348 13.1797 11.7578 13.1797H2.24219C1.86525 13.1797 1.55859 12.873 1.55859 12.4962V3.17294C1.55859 2.79611 1.86525 2.48946 2.24219 2.48946H5.79688V2.89951C5.79688 3.12605 5.98048 3.30966 6.20703 3.30966H7.82031C8.04686 3.30966 8.23047 3.12605 8.23047 2.89951V2.48946H11.7578C12.1348 2.48946 12.4414 2.79601 12.4414 3.17294V12.4962Z" fill="white"/>
<path d="M10 9.625H4C3.72383 9.625 3.5 9.82085 3.5 10.0625C3.5 10.3042 3.72383 10.5 4 10.5H10C10.2762 10.5 10.5 10.3042 10.5 10.0625C10.5 9.82085 10.2762 9.625 10 9.625Z" fill="white"/>
<path d="M5.6875 11.375H3.9375C3.69585 11.375 3.5 11.5708 3.5 11.8125C3.5 12.054 3.69585 12.25 3.9375 12.25H5.6875C5.92915 12.25 6.125 12.054 6.125 11.8125C6.125 11.5708 5.92915 11.375 5.6875 11.375Z" fill="white"/>
<path d="M10.0625 11.375H8.3125C8.07085 11.375 7.875 11.5708 7.875 11.8125C7.875 12.054 8.07085 12.25 8.3125 12.25H10.0625C10.3042 12.25 10.5 12.054 10.5 11.8125C10.5 11.5708 10.3042 11.375 10.0625 11.375Z" fill="white"/>
<path d="M5.35938 9.05132H8.64062C8.86717 9.05132 9.05078 8.8676 9.05078 8.64116V7.82085C9.05078 7.0658 8.64394 6.40175 8.02283 6.04329C8.56714 5.23109 7.98299 4.12976 7 4.12976C6.01648 4.12976 5.43062 5.23323 5.97931 6.04649C5.33556 6.42375 4.94922 7.12016 4.94922 7.84808V8.64116C4.94922 8.8676 5.13283 9.05132 5.35938 9.05132ZM7 4.95007C7.22612 4.95007 7.41016 5.13411 7.41016 5.36023C7.41016 5.58635 7.22612 5.77028 7 5.77028C6.77388 5.77028 6.58984 5.58635 6.58984 5.36023C6.58984 5.13411 6.77388 4.95007 7 4.95007ZM5.76953 7.84808C5.76953 7.15146 6.33275 6.57724 7.02521 6.59081C7.68979 6.60416 8.23047 7.15594 8.23047 7.82085V8.231H5.76953V7.84808Z" fill="white"/>
</svg>
