<svg width="14" height="14" viewBox="0 0 14 14" fill="none" xmlns="http://www.w3.org/2000/svg">
<path d="M10.333 6.33398C10.6162 6.33398 10.8457 6.10444 10.8457 5.82129C10.8457 5.53814 10.6162 5.30859 10.333 5.30859C10.0499 5.30859 9.82031 5.53814 9.82031 5.82129C9.82031 6.10444 10.0499 6.33398 10.333 6.33398Z" fill="white"/>
<path d="M11.9219 1.66797H10.6914V0.950195C10.6914 0.667034 10.5644 0.4375 10.2812 0.4375C9.99809 0.4375 9.87109 0.667034 9.87109 0.950195V1.66797H7.41016V0.950195C7.41016 0.667034 7.28316 0.4375 7 0.4375C6.71684 0.4375 6.58984 0.667034 6.58984 0.950195V1.66797H4.15454V0.950195C4.15454 0.667034 4.00191 0.4375 3.71875 0.4375C3.43559 0.4375 3.30859 0.667034 3.30859 0.950195V1.66797H2.07812C0.947324 1.66797 0.4375 2.38287 0.4375 3.51367V11.9219C0.4375 13.0527 0.947324 13.5625 2.07812 13.5625H6.4104C6.69356 13.5625 7 13.4355 7 13.1523C7 12.8692 6.74483 12.7422 6.46167 12.7422H2.07812C1.51272 12.7422 1.25781 12.4873 1.25781 11.9219V3.51367C1.25781 2.94827 1.51272 2.48828 2.07812 2.48828H3.30859V3.00098C3.30859 3.28414 3.43559 3.51367 3.71875 3.51367C4.00191 3.51367 4.15454 3.28414 4.15454 3.00098V2.48828H6.58984V3.00098C6.58984 3.28414 6.71684 3.51367 7 3.51367C7.28316 3.51367 7.41016 3.28414 7.41016 3.00098V2.48828H9.87109V3.00098C9.87109 3.28414 9.99809 3.51367 10.2812 3.51367C10.5644 3.51367 10.6914 3.28414 10.6914 3.00098V2.48828H11.9219C12.4873 2.48828 12.7422 2.74319 12.7422 3.30859V6.58984C12.7422 6.87301 12.8692 7 13.1523 7C13.4355 7 13.5625 6.87301 13.5625 6.58984V3.30859C13.5625 2.17779 13.0527 1.66797 11.9219 1.66797Z" fill="white"/>
<path d="M8.10254 6.33398C8.38569 6.33398 8.61523 6.10444 8.61523 5.82129C8.61523 5.53814 8.38569 5.30859 8.10254 5.30859C7.81939 5.30859 7.58984 5.53814 7.58984 5.82129C7.58984 6.10444 7.81939 6.33398 8.10254 6.33398Z" fill="white"/>
<path d="M5.87207 8.56348C6.15522 8.56348 6.38477 8.33394 6.38477 8.05078C6.38477 7.76763 6.15522 7.53809 5.87207 7.53809C5.58892 7.53809 5.35938 7.76763 5.35938 8.05078C5.35938 8.33394 5.58892 8.56348 5.87207 8.56348Z" fill="white"/>
<path d="M3.6416 6.33398C3.92476 6.33398 4.1543 6.10444 4.1543 5.82129C4.1543 5.53814 3.92476 5.30859 3.6416 5.30859C3.35845 5.30859 3.12891 5.53814 3.12891 5.82129C3.12891 6.10444 3.35845 6.33398 3.6416 6.33398Z" fill="white"/>
<path d="M3.6416 8.56348C3.92476 8.56348 4.1543 8.33394 4.1543 8.05078C4.1543 7.76763 3.92476 7.53809 3.6416 7.53809C3.35845 7.53809 3.12891 7.76763 3.12891 8.05078C3.12891 8.33394 3.35845 8.56348 3.6416 8.56348Z" fill="white"/>
<path d="M3.6416 10.7939C3.92476 10.7939 4.1543 10.5644 4.1543 10.2812C4.1543 9.9981 3.92476 9.76855 3.6416 9.76855C3.35845 9.76855 3.12891 9.9981 3.12891 10.2812C3.12891 10.5644 3.35845 10.7939 3.6416 10.7939Z" fill="white"/>
<path d="M5.87207 10.7939C6.15522 10.7939 6.38477 10.5644 6.38477 10.2812C6.38477 9.9981 6.15522 9.76855 5.87207 9.76855C5.58892 9.76855 5.35938 9.9981 5.35938 10.2812C5.35938 10.5644 5.58892 10.7939 5.87207 10.7939Z" fill="white"/>
<path d="M5.87207 6.33398C6.15522 6.33398 6.38477 6.10444 6.38477 5.82129C6.38477 5.53814 6.15522 5.30859 5.87207 5.30859C5.58892 5.30859 5.35938 5.53814 5.35938 5.82129C5.35938 6.10444 5.58892 6.33398 5.87207 6.33398Z" fill="white"/>
<path fill-rule="evenodd" clip-rule="evenodd" d="M10.2812 12.7969C11.6706 12.7969 12.7969 11.6706 12.7969 10.2812C12.7969 8.89191 11.6706 7.76562 10.2812 7.76562C8.89191 7.76562 7.76562 8.89191 7.76562 10.2812C7.76562 11.6706 8.89191 12.7969 10.2812 12.7969ZM10.2812 13.5625C12.0934 13.5625 13.5625 12.0934 13.5625 10.2812C13.5625 8.46907 12.0934 7 10.2812 7C8.46907 7 7 8.46907 7 10.2812C7 12.0934 8.46907 13.5625 10.2812 13.5625Z" fill="white"/>
<path fill-rule="evenodd" clip-rule="evenodd" d="M9.87109 9.02344C10.1127 9.02344 10.3086 9.21931 10.3086 9.46094V10.6641H11.1016C11.3432 10.6641 11.5391 10.8599 11.5391 11.1016C11.5391 11.3432 11.3432 11.5391 11.1016 11.5391H9.87109C9.62947 11.5391 9.43359 11.3432 9.43359 11.1016V9.46094C9.43359 9.21931 9.62947 9.02344 9.87109 9.02344Z" fill="white"/>
</svg>
