<svg width="14" height="14" viewBox="0 0 14 14" fill="none" xmlns="http://www.w3.org/2000/svg">
<g clip-path="url(#clip0)">
<path fill-rule="evenodd" clip-rule="evenodd" d="M1.3125 0.872818C1.07088 0.872818 0.875 1.06869 0.875 1.31032V4.81032C0.875 5.05194 1.07088 5.24782 1.3125 5.24782H4.8125C5.05412 5.24782 5.25 5.05194 5.25 4.81032V1.31032C5.25 1.06869 5.05412 0.872818 4.8125 0.872818H1.3125ZM0 1.31032C0 0.585444 0.587626 -0.00218201 1.3125 -0.00218201H4.8125C5.53737 -0.00218201 6.125 0.585444 6.125 1.31032V4.81032C6.125 5.53519 5.53737 6.12282 4.8125 6.12282H1.3125C0.587626 6.12282 0 5.53519 0 4.81032V1.31032ZM9.1875 0.872818C8.94588 0.872818 8.75 1.06869 8.75 1.31032V4.81032C8.75 5.05194 8.94588 5.24782 9.1875 5.24782H12.6875C12.9291 5.24782 13.125 5.05194 13.125 4.81032V1.31032C13.125 1.06869 12.9291 0.872818 12.6875 0.872818H9.1875ZM7.875 1.31032C7.875 0.585444 8.46263 -0.00218201 9.1875 -0.00218201H12.6875C13.4124 -0.00218201 14 0.585444 14 1.31032V4.81032C14 5.53519 13.4124 6.12282 12.6875 6.12282H9.1875C8.46263 6.12282 7.875 5.53519 7.875 4.81032V1.31032ZM1.3125 8.74782C1.07088 8.74782 0.875 8.94369 0.875 9.18532V12.6853C0.875 12.9269 1.07088 13.1228 1.3125 13.1228H4.8125C5.05412 13.1228 5.25 12.9269 5.25 12.6853V9.18532C5.25 8.94369 5.05412 8.74782 4.8125 8.74782H1.3125ZM0 9.18532C0 8.46044 0.587626 7.87282 1.3125 7.87282H4.8125C5.53737 7.87282 6.125 8.46044 6.125 9.18532V12.6853C6.125 13.4102 5.53737 13.9978 4.8125 13.9978H1.3125C0.587626 13.9978 0 13.4102 0 12.6853V9.18532ZM9.1875 8.74782C8.94588 8.74782 8.75 8.94369 8.75 9.18532V12.6853C8.75 12.9269 8.94588 13.1228 9.1875 13.1228H12.6875C12.9291 13.1228 13.125 12.9269 13.125 12.6853V9.18532C13.125 8.94369 12.9291 8.74782 12.6875 8.74782H9.1875ZM7.875 9.18532C7.875 8.46044 8.46263 7.87282 9.1875 7.87282H12.6875C13.4124 7.87282 14 8.46044 14 9.18532V12.6853C14 13.4102 13.4124 13.9978 12.6875 13.9978H9.1875C8.46263 13.9978 7.875 13.4102 7.875 12.6853V9.18532Z" fill="white"/>
</g>
<defs>
<clipPath id="clip0">
<path d="M0 0H14V14H0V0Z" fill="white"/>
</clipPath>
</defs>
</svg>
