<svg width="14" height="14" viewBox="0 0 14 14" fill="none" xmlns="http://www.w3.org/2000/svg">
<path d="M8.56439 5.77816C9.10838 5.32697 9.45547 4.64623 9.45547 3.88591C9.45545 2.53069 8.35287 1.42811 6.99763 1.42811C5.64239 1.42811 4.53984 2.53069 4.53984 3.88591C4.53984 4.06305 4.55884 4.23582 4.59463 4.40243C4.45466 4.37759 4.31069 4.36458 4.16371 4.36458C2.80847 4.36458 1.70591 5.46716 1.70591 6.82238C1.70591 7.58263 2.05294 8.26331 2.59684 8.71452C1.07531 9.33483 0 10.83 0 12.5719H0.871972C0.871972 10.7568 2.34863 9.2802 4.16369 9.2802C5.51893 9.2802 6.62148 8.17762 6.62148 6.8224C6.62148 6.64525 6.60248 6.47247 6.56669 6.30585C6.70666 6.33069 6.85063 6.34371 6.99761 6.34371C8.22339 6.34371 8.56439 5.77816 8.56439 5.77816ZM4.16371 8.4082C3.2893 8.4082 2.57788 7.69681 2.57788 6.82238C2.57788 5.94794 3.2893 5.23655 4.16371 5.23655C5.03812 5.23655 5.74953 5.94796 5.74953 6.82238C5.74953 7.69679 5.03812 8.4082 4.16371 8.4082ZM6.99763 5.47171C6.12322 5.47171 5.41181 4.76032 5.41181 3.88589C5.41181 3.01145 6.12322 2.30008 6.99763 2.30008C7.87205 2.30008 8.58346 3.01147 8.58346 3.88591C8.58346 4.76036 7.87207 5.47171 6.99763 5.47171Z" fill="white"/>
<path d="M2.41579 6.46044C2.40808 6.46249 2.41579 6.50946 2.41579 6.50946L2.71353 5.33104L3.62596 4.4754C3.76593 4.45056 4.01746 4.3646 4.16444 4.3646C5.51968 4.3646 6.62223 5.46718 6.62223 6.82239C6.62223 7.58265 6.2752 8.26333 5.7313 8.71454C7.25283 9.33485 8.32815 10.8301 8.32815 12.5719H7.45617C7.45617 10.7568 5.97952 9.28021 4.16446 9.28021C2.80922 9.28021 1.70666 8.17764 1.70666 6.82242C1.70666 6.64527 2.41579 6.46044 2.41579 6.46044ZM4.16444 8.40822C5.03885 8.40822 5.75026 7.69683 5.75026 6.82239C5.75026 5.94796 5.03885 5.23657 4.16444 5.23657C3.29002 5.23657 2.57861 5.94798 2.57861 6.82239C2.57861 7.69681 3.29002 8.40822 4.16444 8.40822ZM2.44439 5.76734L2.41579 6.50946L2.71353 5.33104L2.44439 5.76734Z" fill="white"/>
<path d="M5.43561 5.77816C4.89162 5.32697 4.54453 4.64623 4.54453 3.88591C4.54455 2.53069 5.64713 1.42811 7.00237 1.42811C8.35761 1.42811 9.46016 2.53069 9.46016 3.88591C9.46016 4.06305 9.44116 4.23582 9.40537 4.40243C9.54534 4.37759 9.68931 4.36458 9.83629 4.36458C11.1915 4.36458 12.2941 5.46716 12.2941 6.82238C12.2941 7.58263 11.9471 8.26331 11.4032 8.71452C12.9247 9.33483 14 10.83 14 12.5719H13.128C13.128 10.7568 11.6514 9.2802 9.83631 9.2802C8.48107 9.2802 7.37852 8.17762 7.37852 6.8224C7.37852 6.64525 7.39752 6.47247 7.43331 6.30585C7.29334 6.33069 7.14937 6.34371 7.00239 6.34371C5.77661 6.34371 5.43561 5.77816 5.43561 5.77816ZM9.83629 8.4082C10.7107 8.4082 11.4221 7.69681 11.4221 6.82238C11.4221 5.94794 10.7107 5.23655 9.83629 5.23655C8.96188 5.23655 8.25047 5.94796 8.25047 6.82238C8.25047 7.69679 8.96188 8.4082 9.83629 8.4082ZM7.00237 5.47171C7.87678 5.47171 8.58819 4.76032 8.58819 3.88589C8.58819 3.01145 7.87678 2.30008 7.00237 2.30008C6.12795 2.30008 5.41654 3.01147 5.41654 3.88591C5.41654 4.76036 6.12793 5.47171 7.00237 5.47171Z" fill="white"/>
<path fill-rule="evenodd" clip-rule="evenodd" d="M11.5842 6.50946C11.5842 6.50946 11.5919 6.46249 11.5842 6.46044C11.5842 6.46044 12.2933 6.64527 12.2933 6.82242C12.2933 8.17764 11.1907 9.28021 9.83549 9.28021C8.62892 9.28021 7.57189 9.93274 6.99877 10.9034C6.8586 10.6368 6.59152 10.3453 6.42621 10.1844C6.88356 9.53341 7.52244 9.01876 8.26865 8.71454C7.72475 8.26333 7.37772 7.58265 7.37772 6.82239C7.37772 5.46718 8.48027 4.3646 9.83551 4.3646C9.93051 4.3646 10.0692 4.4005 10.1932 4.43261C10.261 4.45018 10.3245 4.46662 10.374 4.4754L11.2864 5.33104L11.5556 5.76734L11.5842 6.50946ZM8.24969 6.82239C8.24969 7.69683 8.9611 8.40822 9.83551 8.40822C10.7099 8.40822 11.4213 7.69681 11.4213 6.82239C11.4213 5.94798 10.7099 5.23657 9.83551 5.23657C8.9611 5.23657 8.24969 5.94796 8.24969 6.82239Z" fill="white"/>
</svg>
