<svg width="16" height="16" viewBox="0 0 16 16" fill="none" xmlns="http://www.w3.org/2000/svg">
<path fill-rule="evenodd" clip-rule="evenodd" d="M1.40045 2.42675C1.65754 2.15411 2.00727 2 2.37297 2H4.97C5.3357 2 5.68543 2.15411 5.94252 2.42675C6.19945 2.69921 6.34293 3.06768 6.34293 3.45082V3.83607H11.8954C12.2611 3.83607 12.6109 3.99017 12.8679 4.26281C13.1249 4.53528 13.2683 4.90374 13.2683 5.28689V6.59016H13.6266C13.6267 6.59016 13.6265 6.59016 13.6266 6.59016C13.8378 6.59012 14.0462 6.64155 14.2352 6.74027C14.4244 6.83901 14.5891 6.98229 14.7169 7.15866C14.8448 7.33501 14.9324 7.5398 14.9735 7.75714C15.0141 7.97248 15.008 8.19476 14.9555 8.40723L13.6845 13.9213C13.6072 14.2294 13.4356 14.5027 13.1957 14.6982C12.9558 14.8936 12.661 15.0001 12.3571 15C12.3571 15 12.3572 15 12.3571 15H2.48666C2.43638 15 2.3878 14.9923 2.34194 14.978C2.32593 14.9763 2.30992 14.9744 2.29392 14.9721C1.93805 14.9226 1.61189 14.7389 1.37468 14.4562C1.13757 14.1735 1.005 13.8106 1.0001 13.4341L1 13.4268L1.00005 3.45082C1.00005 3.06768 1.14352 2.69921 1.40045 2.42675ZM3.89232 13.9344H12.3571C12.4349 13.9345 12.5112 13.9073 12.5739 13.8562C12.6357 13.8059 12.6811 13.735 12.7024 13.6537L13.973 8.14131C13.9875 8.08359 13.9894 8.02304 13.9784 7.9644C13.9673 7.90577 13.9437 7.85099 13.9098 7.80421C13.8759 7.75746 13.8327 7.72004 13.7837 7.69446C13.7347 7.66889 13.6811 7.65572 13.627 7.65574H5.62157C5.54512 7.65565 5.4696 7.68186 5.40746 7.73126C5.3475 7.77892 5.30242 7.84588 5.27931 7.92322L3.92567 13.8197C3.92425 13.8259 3.92273 13.8321 3.9211 13.8382C3.91246 13.8707 3.90286 13.9028 3.89232 13.9344ZM12.2539 6.59016V5.28689C12.2539 5.18307 12.2149 5.08453 12.1472 5.01266C12.0796 4.94097 11.9889 4.90164 11.8954 4.90164H5.83568C5.55554 4.90164 5.32844 4.6631 5.32844 4.36885V3.45082C5.32844 3.34701 5.2895 3.24846 5.22174 3.1766C5.15414 3.10491 5.06349 3.06557 4.97 3.06557H2.37297C2.27949 3.06557 2.18884 3.10491 2.12124 3.1766C2.05347 3.24846 2.01454 3.34701 2.01454 3.45082V13.4225C2.01681 13.5448 2.0602 13.6615 2.13586 13.7517C2.21203 13.8425 2.31563 13.9003 2.42724 13.9158C2.5388 13.9314 2.65231 13.9039 2.74717 13.8376C2.84013 13.7726 2.9095 13.6743 2.94195 13.5591L4.29625 7.65966C4.29799 7.65207 4.29989 7.64453 4.30195 7.63703C4.3845 7.3361 4.55726 7.07078 4.79521 6.88161C5.03314 6.69246 5.3232 6.58989 5.62177 6.59016" fill="white"/>
</svg>
