<svg width="14" height="14" viewBox="0 0 14 14" fill="none" xmlns="http://www.w3.org/2000/svg">
<path d="M7.58883 0C5.33498 0 3.50134 1.81545 3.50134 4.04686C3.50134 5.42902 4.20502 6.65137 5.27615 7.38175C4.27611 7.72342 3.35949 8.2878 2.58943 9.05021C1.254 10.3724 0.518555 12.1302 0.518555 14H1.62328C1.62328 10.7433 4.29941 8.09375 7.58883 8.09375C9.84267 8.09375 11.6763 6.2783 11.6763 4.04686C11.6763 1.81542 9.84267 0 7.58883 0ZM7.58883 7C5.94413 7 4.60607 5.67524 4.60607 4.04689C4.60607 2.41854 5.94413 1.09375 7.58883 1.09375C9.23352 1.09375 10.5716 2.41851 10.5716 4.04689C10.5716 5.67527 9.23352 7 7.58883 7Z" fill="white"/>
<path d="M12.2512 11.7895H6.32435C6.06607 11.7895 5.85645 11.6244 5.85645 11.4211C5.85645 11.2177 6.06607 11.0526 6.32435 11.0526H12.2512C12.5095 11.0526 12.7191 11.2177 12.7191 11.4211C12.7191 11.6244 12.5095 11.7895 12.2512 11.7895Z" fill="white"/>
<path d="M10.8672 14C10.7556 14 10.6442 13.9581 10.5593 13.874C10.3891 13.706 10.3891 13.4338 10.5593 13.2659L12.4299 11.4207L10.5593 9.57608C10.3891 9.40809 10.3891 9.1359 10.5593 8.96802C10.7295 8.80013 11.0054 8.80013 11.1757 8.96802L13.3541 11.117C13.5243 11.2849 13.5243 11.557 13.3541 11.725L11.1757 13.874C11.0903 13.9581 10.9787 14 10.8672 14Z" fill="white"/>
</svg>
