<svg width="14" height="14" viewBox="0 0 14 14" fill="none" xmlns="http://www.w3.org/2000/svg">
<path d="M4.8125 13.5625C7.22875 13.5625 9.1875 11.6037 9.1875 9.1875C9.1875 6.77125 7.22875 4.8125 4.8125 4.8125C2.39625 4.8125 0.4375 6.77125 0.4375 9.1875C0.4375 11.6037 2.39625 13.5625 4.8125 13.5625Z" stroke="white" stroke-width="0.75" stroke-linecap="round" stroke-linejoin="round"/>
<path d="M4.8125 10.0625C5.779 10.0625 6.5625 9.279 6.5625 8.3125C6.5625 7.346 5.779 6.5625 4.8125 6.5625C3.846 6.5625 3.0625 7.346 3.0625 8.3125C3.0625 9.279 3.846 10.0625 4.8125 10.0625Z" stroke="white" stroke-width="0.75" stroke-linecap="round" stroke-linejoin="round"/>
<path d="M7.66341 12.5061C7.39899 11.9763 6.99218 11.5308 6.48864 11.2193C5.9851 10.9079 5.40474 10.7429 4.81266 10.7429C4.22059 10.7429 3.64023 10.9079 3.13669 11.2193C2.63315 11.5308 2.22634 11.9763 1.96191 12.5061" stroke="white" stroke-width="0.75" stroke-linecap="round" stroke-linejoin="round"/>
<path d="M2.1875 3.0625V1.3125C2.1875 1.08044 2.27969 0.857876 2.44378 0.693782C2.60788 0.529687 2.83044 0.4375 3.0625 0.4375H9.26275C9.49465 0.43755 9.71705 0.529656 9.88108 0.693583L13.3064 4.11892C13.4703 4.28295 13.5625 4.50535 13.5625 4.73725V12.6875C13.5625 12.9196 13.4703 13.1421 13.3062 13.3062C13.1421 13.4703 12.9196 13.5625 12.6875 13.5625H10.0625" stroke="white" stroke-width="0.75" stroke-linecap="round" stroke-linejoin="round"/>
<path d="M13.5625 4.8125H10.0625C9.83044 4.8125 9.60788 4.72031 9.44378 4.55622C9.27969 4.39212 9.1875 4.16956 9.1875 3.9375V0.4375" stroke="white" stroke-width="0.75" stroke-linecap="round" stroke-linejoin="round"/>
</svg>
