<svg width="14" height="14" viewBox="0 0 14 14" fill="none" xmlns="http://www.w3.org/2000/svg">
<g clip-path="url(#clip0)">
<path d="M10.2812 13.5625H2.40625C2.17419 13.5625 1.95163 13.4703 1.78753 13.3062C1.62344 13.1421 1.53125 12.9196 1.53125 12.6875V3.28125" stroke="white" stroke-linecap="round" stroke-linejoin="round"/>
<path d="M12.4685 10.5927C12.475 10.8704 12.3712 11.1392 12.1799 11.3405C11.9885 11.5417 11.7253 11.659 11.4477 11.6667H4.30188C4.0243 11.659 3.76105 11.5417 3.56973 11.3405C3.37841 11.1392 3.27461 10.8704 3.28104 10.5927V1.51142C3.27461 1.23381 3.37841 0.964952 3.56973 0.763688C3.76105 0.562423 4.0243 0.445139 4.30188 0.4375H9.49354C9.62895 0.43818 9.7628 0.466405 9.88695 0.520458C10.0111 0.574511 10.123 0.653262 10.2157 0.751917L12.1693 2.80758C12.3624 3.01278 12.4695 3.28417 12.4685 3.56592V10.5927Z" stroke="white" stroke-linecap="round" stroke-linejoin="round"/>
</g>
<defs>
<clipPath id="clip0">
<rect width="14" height="14" fill="white"/>
</clipPath>
</defs>
</svg>
