<svg width="14" height="14" viewBox="0 0 14 14" fill="none" xmlns="http://www.w3.org/2000/svg">
<path d="M10.0003 1.36567L10.0004 1.36573C12.2974 3.06484 12.5242 6.64329 10.614 9.32113C9.51323 10.8639 8.30424 12.2959 6.99988 13.6022C5.6955 12.2962 4.48651 10.8644 3.38578 9.32173C1.47609 6.64319 1.70247 3.06479 3.99937 1.36573L3.99944 1.36567C4.90173 0.697845 5.94228 0.348196 6.99929 0.350009L7.00049 0.350007C8.05751 0.348196 9.09806 0.697845 10.0003 1.36567Z" stroke="white" stroke-width="0.7" stroke-linecap="round" stroke-linejoin="round"/>
<path d="M7 7.875C8.44975 7.875 9.625 6.69975 9.625 5.25C9.625 3.80025 8.44975 2.625 7 2.625C5.55025 2.625 4.375 3.80025 4.375 5.25C4.375 6.69975 5.55025 7.875 7 7.875Z" stroke="white" stroke-width="0.7" stroke-linecap="round" stroke-linejoin="round"/>
<path d="M9.625 10.5C9.38151 10.2371 9.00692 10.016 8.54326 9.86143C8.07959 9.70687 7.54519 9.625 7 9.625C6.45481 9.625 5.92041 9.70687 5.45674 9.86143C4.99308 10.016 4.61849 10.2371 4.375 10.5" stroke="white" stroke-width="0.7" stroke-linecap="round" stroke-linejoin="round"/>
</svg>
