<svg width="12" height="12" viewBox="0 0 12 12" fill="none" xmlns="http://www.w3.org/2000/svg">
<path d="M9.18199 7.31801C8.69186 6.82789 8.10848 6.46506 7.47197 6.24543C8.15369 5.7759 8.60156 4.9901 8.60156 4.10156C8.60156 2.66706 7.4345 1.5 6 1.5C4.5655 1.5 3.39844 2.66706 3.39844 4.10156C3.39844 4.9901 3.84631 5.7759 4.52804 6.24543C3.89154 6.46506 3.30816 6.82789 2.81803 7.31801C1.96809 8.16796 1.5 9.29801 1.5 10.5H2.20312C2.20312 8.40639 3.90639 6.70312 6 6.70312C8.09361 6.70312 9.79687 8.40639 9.79687 10.5H10.5C10.5 9.29801 10.0319 8.16796 9.18199 7.31801ZM6 6C4.9532 6 4.10156 5.14837 4.10156 4.10156C4.10156 3.05475 4.9532 2.20312 6 2.20312C7.04679 2.20312 7.89844 3.05475 7.89844 4.10156C7.89844 5.14837 7.04679 6 6 6Z" fill="white" stroke="white" stroke-width="0.2"/>
</svg>
