<svg width="14" height="14" viewBox="0 0 14 14" fill="none" xmlns="http://www.w3.org/2000/svg">
<line x1="1.60352" y1="12.1" x2="12.3967" y2="12.1" stroke="white"/>
<path d="M10.9597 8.64018C10.3498 8.03027 9.62379 7.57874 8.83169 7.30542C9.68005 6.72111 10.2374 5.74323 10.2374 4.6375C10.2374 2.85234 8.78505 1.4 6.9999 1.4C5.21475 1.4 3.7624 2.85234 3.7624 4.6375C3.7624 5.74323 4.31976 6.72111 5.16813 7.30542C4.37604 7.57874 3.65005 8.03027 3.04011 8.64018C1.98241 9.69791 1.3999 11.1042 1.3999 12.6H2.2749C2.2749 9.99462 4.39452 7.875 6.9999 7.875C9.60528 7.875 11.7249 9.99462 11.7249 12.6H12.5999C12.5999 11.1042 12.0174 9.69791 10.9597 8.64018ZM6.9999 7C5.69722 7 4.6374 5.9402 4.6374 4.6375C4.6374 3.3348 5.69722 2.275 6.9999 2.275C8.30258 2.275 9.3624 3.3348 9.3624 4.6375C9.3624 5.9402 8.30258 7 6.9999 7Z" fill="white"/>
</svg>
