<svg width="14" height="14" viewBox="0 0 14 14" fill="none" xmlns="http://www.w3.org/2000/svg">
<g clip-path="url(#clip0)">
<path fill-rule="evenodd" clip-rule="evenodd" d="M6.28258 2.31076C5.10157 2.43562 4.15482 2.86065 3.71046 3.18179L3.70638 3.18474L3.70636 3.18472C1.6805 4.61358 0.951767 6.37906 0.88083 7.98392C0.808827 9.61289 1.41448 11.0905 2.08007 11.8996C2.23357 12.0862 2.20674 12.3619 2.02014 12.5154C1.83355 12.6689 1.55784 12.6421 1.40433 12.4555C0.602136 11.4803 -0.0749079 9.79117 0.00668334 7.94528C0.0893163 6.07582 0.949989 4.05891 3.20004 2.47109C3.78079 2.05215 4.87494 1.5797 6.19058 1.44061C7.51868 1.3002 9.09845 1.49697 10.6212 2.45712C11.6103 3.0808 12.8586 4.37655 13.4672 6.11491C14.0845 7.87825 14.0334 10.072 12.4437 12.4226C12.3084 12.6228 12.0364 12.6753 11.8362 12.5399C11.6361 12.4046 11.5836 12.1326 11.7189 11.9324C13.1513 9.81447 13.1686 7.91019 12.6413 6.40405C12.1053 4.87293 10.9958 3.72779 10.1545 3.19727C8.82746 2.36052 7.45271 2.18706 6.28258 2.31076Z" fill="white"/>
<path fill-rule="evenodd" clip-rule="evenodd" d="M6.92148 9.638C6.24494 9.638 5.69648 9.08954 5.69648 8.413C5.69648 7.73645 6.24494 7.188 6.92148 7.188C7.59803 7.188 8.14648 7.73645 8.14648 8.413C8.14648 9.08954 7.59803 9.638 6.92148 9.638ZM6.92148 10.513C5.76169 10.513 4.82148 9.57279 4.82148 8.413C4.82148 7.2532 5.76169 6.313 6.92148 6.313C8.08128 6.313 9.02148 7.2532 9.02148 8.413C9.02148 9.57279 8.08128 10.513 6.92148 10.513Z" fill="white"/>
<path fill-rule="evenodd" clip-rule="evenodd" d="M10.3635 5.01656C10.5336 5.18824 10.5322 5.46525 10.3605 5.63527L8.56137 7.41691C8.38968 7.58693 8.11268 7.58557 7.94266 7.41388C7.77264 7.2422 7.774 6.96519 7.94568 6.79517L9.74483 5.01353C9.91652 4.84351 10.1935 4.84487 10.3635 5.01656Z" fill="white"/>
</g>
<defs>
<clipPath id="clip0">
<path d="M0 0H14V14H0V0Z" fill="white"/>
</clipPath>
</defs>
</svg>
