<svg width="14" height="14" viewBox="0 0 14 14" fill="none" xmlns="http://www.w3.org/2000/svg">
<g clip-path="url(#clip0)">
<path d="M12.6533 2.62501C12.7684 2.73438 12.8331 2.88272 12.8332 3.03742V13.125C12.8332 13.2797 12.7685 13.4281 12.6533 13.5375C12.5382 13.6469 12.382 13.7083 12.2191 13.7083H1.78054C1.61769 13.7083 1.4615 13.6469 1.34635 13.5375C1.2312 13.4281 1.1665 13.2797 1.1665 13.125V0.875005C1.1665 0.720295 1.2312 0.571922 1.34635 0.462526C1.4615 0.35313 1.61769 0.291672 1.78054 0.291672H9.94291C10.0236 0.291765 10.1034 0.306959 10.1779 0.336385C10.2524 0.365812 10.3201 0.408895 10.377 0.463172L12.6533 2.62501Z" stroke="white" stroke-linecap="round" stroke-linejoin="round"/>
<path d="M6.99951 10.5C8.93251 10.5 10.4995 8.93303 10.4995 7.00003C10.4995 5.06703 8.93251 3.50003 6.99951 3.50003C5.06651 3.50003 3.49951 5.06703 3.49951 7.00003C3.49951 8.93303 5.06651 10.5 6.99951 10.5Z" stroke="white" stroke-linecap="round" stroke-linejoin="round"/>
<path d="M6.12451 5.25003V7.87503H8.74951" stroke="white" stroke-linecap="round" stroke-linejoin="round"/>
</g>
<defs>
<clipPath id="clip0">
<path d="M0 0H14V14H0V0Z" fill="white"/>
</clipPath>
</defs>
</svg>
