<svg width="129" height="32" viewBox="0 0 129 32" fill="none" xmlns="http://www.w3.org/2000/svg">
<g clip-path="url(#clip0)">
<path fill-rule="evenodd" clip-rule="evenodd" d="M27.9991 32H4.24116C1.89842 32 0 30.1157 0 27.7905V4.20955C0 1.88427 1.89842 0 4.24116 0H28.0006C30.3434 0 32.2418 1.88427 32.2418 4.20955V27.7919C32.2403 30.1157 30.3419 32 27.9991 32Z" fill="white"/>
<path d="M24.835 9.54162L23.8342 8.96847L10.6245 16.5041V12.8781L20.6687 7.15398L17.3939 5.27713C16.604 4.82425 15.6301 4.82425 14.8402 5.27713L7.39913 9.54162C6.60925 9.9945 6.12305 10.8305 6.12305 11.7362V20.2637C6.12305 21.1695 6.60925 22.0054 7.39913 22.4583L8.41492 23.0404L21.6246 15.5226L21.6411 19.1367L11.5969 24.8623L14.8417 26.7213C15.6316 27.1742 16.6055 27.1742 17.3954 26.7213L24.8365 22.4568C25.6264 22.004 26.1126 21.168 26.1126 20.2622V11.7362C26.1111 10.8305 25.6249 9.9945 24.835 9.54162Z" fill="#169B5B"/>
<path d="M37.6123 13.9102C37.6123 13.4707 37.6976 13.0594 37.8666 12.6748C38.0357 12.2902 38.2661 11.9532 38.5563 11.6651C38.8481 11.3771 39.1862 11.1484 39.5737 10.9806C39.9611 10.8128 40.3756 10.7282 40.8184 10.7282H45.724V12.8515H40.8184C40.6688 12.8515 40.5311 12.8782 40.401 12.9332C40.2723 12.9881 40.1586 13.0624 40.0614 13.1589C39.9641 13.2554 39.8893 13.3668 39.834 13.4959C39.7786 13.6251 39.7517 13.7617 39.7517 13.9102C39.7517 14.0587 39.7786 14.1968 39.834 14.3289C39.8878 14.4596 39.9641 14.5725 40.0614 14.669C40.1586 14.7655 40.2708 14.8397 40.401 14.8947C40.5297 14.9496 40.6688 14.9763 40.8184 14.9763H42.9578C43.4006 14.9763 43.8165 15.0595 44.207 15.2243C44.5975 15.3891 44.9371 15.6163 45.2288 15.9044C45.5191 16.1924 45.748 16.531 45.914 16.9185C46.0801 17.3061 46.1639 17.7189 46.1639 18.1584C46.1639 18.5979 46.0801 19.0092 45.914 19.3938C45.748 19.7783 45.5191 20.1154 45.2288 20.4035C44.9371 20.693 44.5975 20.9202 44.207 21.088C43.8165 21.2558 43.4006 21.3389 42.9578 21.3389H38.2092V19.2156H42.9578C43.1074 19.2156 43.245 19.1889 43.3752 19.1339C43.5039 19.0805 43.6176 19.0047 43.7148 18.9082C43.812 18.8117 43.8868 18.7003 43.9422 18.5712C43.9961 18.4435 44.0245 18.3054 44.0245 18.1569C44.0245 18.0084 43.9976 17.8703 43.9422 17.7426C43.8868 17.6149 43.812 17.5021 43.7148 17.4055C43.6176 17.309 43.5053 17.2348 43.3752 17.1799C43.2465 17.1264 43.1074 17.0982 42.9578 17.0982H40.8184C40.3756 17.0982 39.9611 17.015 39.5737 16.8472C39.1862 16.6795 38.8466 16.4508 38.5563 16.1627C38.2661 15.8747 38.0357 15.5361 37.8666 15.1486C37.6976 14.761 37.6123 14.3497 37.6123 13.9102Z" fill="#F6F6F6"/>
<path d="M57.2231 21.3388H55.196V16.3081C55.196 16.17 55.169 16.0394 55.1182 15.9161C55.0658 15.7929 54.9925 15.6845 54.8982 15.5909C54.804 15.4974 54.6948 15.4246 54.5706 15.3727C54.4464 15.3207 54.3148 15.2954 54.1756 15.2954C54.0365 15.2954 53.9048 15.3222 53.7837 15.3727C53.6625 15.4246 53.5548 15.4974 53.4635 15.5909C53.3707 15.6845 53.2989 15.7929 53.2466 15.9161C53.1942 16.0394 53.1688 16.17 53.1688 16.3081V21.3388H51.1341V16.3081C51.1341 16.17 51.1072 16.0394 51.0563 15.9161C51.004 15.7929 50.9306 15.6845 50.8364 15.5909C50.7421 15.4974 50.6329 15.4246 50.5087 15.3727C50.3846 15.3207 50.2529 15.2954 50.1138 15.2954C49.9747 15.2954 49.8445 15.3222 49.7218 15.3727C49.6006 15.4246 49.4929 15.4974 49.4017 15.5909C49.3104 15.6845 49.2371 15.7929 49.1847 15.9161C49.1324 16.0394 49.1069 16.17 49.1069 16.3081V21.3388H47.0723V13.4141H47.5645L48.1165 14.0214C48.3993 13.7839 48.712 13.6012 49.0516 13.4706C49.3927 13.3399 49.7458 13.2746 50.1138 13.2746C50.4863 13.2746 50.8514 13.3429 51.2059 13.481C51.562 13.6191 51.8732 13.8581 52.141 14.1981C52.2651 14.0304 52.4073 13.8878 52.5659 13.769C52.7244 13.6502 52.8935 13.5552 53.07 13.481C53.2466 13.4067 53.4291 13.3547 53.6176 13.3221C53.8061 13.2909 53.9931 13.2746 54.1771 13.2746C54.599 13.2746 54.9955 13.3533 55.365 13.5107C55.736 13.6681 56.0592 13.8848 56.3345 14.1581C56.6097 14.4313 56.8282 14.7535 56.9868 15.1232C57.1453 15.4929 57.2246 15.8879 57.2246 16.3066V21.3388H57.2231Z" fill="#F6F6F6"/>
<path d="M66.5672 21.3388H66.075L65.2851 20.2519C65.0906 20.4242 64.8857 20.586 64.6702 20.736C64.4533 20.886 64.2274 21.0166 63.988 21.128C63.7486 21.2393 63.5048 21.327 63.2534 21.3908C63.0021 21.4546 62.7478 21.4873 62.4889 21.4873C61.9264 21.4873 61.3983 21.3938 60.9046 21.2067C60.4109 21.0196 59.977 20.7464 59.6075 20.3885C59.2365 20.0307 58.9447 19.5926 58.7308 19.0744C58.5169 18.5562 58.4106 17.9667 58.4106 17.306C58.4106 16.6898 58.5169 16.1226 58.7308 15.6073C58.9447 15.0921 59.2365 14.6496 59.6075 14.2784C59.977 13.9087 60.4094 13.6221 60.9046 13.4172C61.3983 13.2123 61.9264 13.1098 62.4889 13.1098C62.7463 13.1098 63.0036 13.1425 63.2564 13.2063C63.5108 13.2702 63.7561 13.3593 63.994 13.4721C64.2319 13.585 64.4593 13.7186 64.6762 13.8715C64.8931 14.0245 65.0951 14.1893 65.2836 14.3675L66.0735 13.4276H66.5658V21.3388H66.5672ZM64.5161 17.306C64.5161 17.0298 64.4623 16.7625 64.356 16.5027C64.2483 16.2443 64.1032 16.0142 63.9192 15.8152C63.7352 15.6162 63.5197 15.4559 63.2744 15.3341C63.0275 15.2138 62.7657 15.153 62.4875 15.153C62.2092 15.153 61.9474 15.2005 61.7005 15.294C61.4552 15.3876 61.2412 15.5257 61.0602 15.7083C60.8777 15.8909 60.7355 16.1166 60.6308 16.3854C60.5261 16.6541 60.4737 16.9615 60.4737 17.306C60.4737 17.652 60.5261 17.9578 60.6308 18.2266C60.7355 18.4953 60.8777 18.721 61.0602 18.9037C61.2412 19.0863 61.4552 19.2244 61.7005 19.318C61.9474 19.4115 62.2077 19.459 62.4875 19.459C62.7657 19.459 63.0275 19.3981 63.2744 19.2779C63.5197 19.1576 63.7352 18.9972 63.9192 18.7968C64.1032 18.5963 64.2483 18.3676 64.356 18.1078C64.4623 17.8494 64.5161 17.5822 64.5161 17.306Z" fill="#F6F6F6"/>
<path d="M69.79 21.3388H67.7554V13.4141H68.2476L68.9178 14.354C69.2455 14.0585 69.618 13.8299 70.0354 13.6695C70.4528 13.5092 70.8852 13.429 71.3325 13.429H73.1293V15.4409H71.3325C71.1186 15.4409 70.9181 15.481 70.7296 15.5597C70.5396 15.6384 70.3765 15.7468 70.2374 15.8849C70.0982 16.023 69.989 16.1863 69.9097 16.3734C69.8304 16.5605 69.79 16.761 69.79 16.9733V21.3388Z" fill="#F6F6F6"/>
<path d="M78.8799 21.3388C78.3877 21.3388 77.9254 21.2468 77.493 21.0611C77.0607 20.877 76.6822 20.6231 76.356 20.2994C76.0299 19.9757 75.7741 19.6001 75.5886 19.1709C75.4015 18.7418 75.3088 18.283 75.3088 17.7945V15.441H74.3169V13.429H75.3088V10.7043H77.336V13.429H80.4224V15.441H77.336V17.7945C77.336 18.0068 77.3764 18.2058 77.4556 18.3899C77.5349 18.574 77.6442 18.7359 77.7833 18.874C77.9224 19.0121 78.087 19.1219 78.2755 19.2036C78.464 19.2853 78.666 19.3254 78.8799 19.3254H80.4224V21.3373H78.8799V21.3388Z" fill="#F6F6F6"/>
<path d="M113.227 21.3388H112.734L111.944 20.2518C111.75 20.4241 111.545 20.5859 111.33 20.7359C111.113 20.8859 110.887 21.0165 110.647 21.1279C110.408 21.2393 110.164 21.3269 109.913 21.3907C109.661 21.4546 109.407 21.4872 109.148 21.4872C108.586 21.4872 108.058 21.3937 107.564 21.2066C107.07 21.0195 106.636 20.7463 106.267 20.3885C105.896 20.0306 105.604 19.5926 105.39 19.0744C105.176 18.5562 105.07 17.9667 105.07 17.3059C105.07 16.6897 105.176 16.1225 105.39 15.6072C105.604 15.092 105.896 14.6495 106.267 14.2783C106.636 13.9086 107.069 13.622 107.564 13.4171C108.058 13.2122 108.586 13.1097 109.148 13.1097C109.406 13.1097 109.663 13.1424 109.916 13.2062C110.17 13.2701 110.415 13.3592 110.653 13.472C110.891 13.5849 111.119 13.7185 111.336 13.8714C111.552 14.0244 111.754 14.1892 111.943 14.3674L112.733 13.4275H113.225V21.3388H113.227ZM111.175 17.3059C111.175 17.0297 111.122 16.7625 111.015 16.5026C110.908 16.2442 110.763 16.0141 110.578 15.8151C110.394 15.6161 110.179 15.4558 109.934 15.334C109.687 15.2138 109.425 15.1529 109.147 15.1529C108.868 15.1529 108.607 15.2004 108.36 15.2939C108.114 15.3875 107.901 15.5256 107.719 15.7082C107.537 15.8908 107.395 16.1165 107.29 16.3853C107.185 16.6541 107.133 16.9614 107.133 17.3059C107.133 17.6519 107.185 17.9578 107.29 18.2265C107.395 18.4953 107.537 18.721 107.719 18.9036C107.901 19.0862 108.114 19.2243 108.36 19.3179C108.607 19.4114 108.867 19.4589 109.147 19.4589C109.425 19.4589 109.687 19.3981 109.934 19.2778C110.179 19.1575 110.394 18.9972 110.578 18.7967C110.763 18.5962 110.908 18.3676 111.015 18.1077C111.122 17.8494 111.175 17.5821 111.175 17.3059Z" fill="#F6F6F6"/>
<path d="M118.977 21.3387C118.485 21.3387 118.022 21.2467 117.59 21.0611C117.158 20.8769 116.779 20.623 116.453 20.2993C116.127 19.9756 115.871 19.6 115.685 19.1709C115.498 18.7417 115.406 18.2829 115.406 17.7944V15.4409H114.414V13.4289H115.406V10.7042H117.433V13.4289H120.519V15.4409H117.433V17.7944C117.433 18.0067 117.473 18.2057 117.553 18.3898C117.632 18.5739 117.741 18.7358 117.88 18.8739C118.019 19.012 118.184 19.1219 118.372 19.2035C118.561 19.2852 118.763 19.3253 118.977 19.3253H120.519V21.3372H118.977V21.3387Z" fill="#F6F6F6"/>
<path d="M125.209 19.4156C125.286 19.4392 125.369 19.4568 125.446 19.4627C125.524 19.4686 125.607 19.4745 125.684 19.4745C125.88 19.4745 126.07 19.4451 126.255 19.3921C126.439 19.3392 126.611 19.2627 126.772 19.1627C126.932 19.0627 127.075 18.9392 127.199 18.7981C127.324 18.651 127.425 18.4922 127.508 18.3158L128.994 19.7921C128.804 20.0567 128.59 20.292 128.346 20.5038C128.103 20.7155 127.835 20.8919 127.55 21.039C127.265 21.186 126.968 21.2978 126.653 21.3742C126.338 21.4507 126.017 21.486 125.684 21.486C125.125 21.486 124.596 21.386 124.109 21.1802C123.616 20.9743 123.188 20.6861 122.819 20.3214C122.451 19.9568 122.16 19.5156 121.946 19.0098C121.732 18.504 121.625 17.9452 121.625 17.3394C121.625 16.7159 121.732 16.1513 121.946 15.6337C122.16 15.122 122.451 14.6809 122.819 14.3221C123.188 13.9574 123.616 13.681 124.109 13.4751C124.602 13.2752 125.125 13.1752 125.684 13.1752C126.017 13.1752 126.338 13.2163 126.659 13.2928C126.974 13.3693 127.277 13.481 127.562 13.6281C127.847 13.7751 128.115 13.9574 128.358 14.1692C128.608 14.3809 128.822 14.6221 129.012 14.8867L125.209 19.4156ZM126.249 15.2808C126.153 15.2455 126.064 15.222 125.969 15.2161C125.88 15.2043 125.785 15.1985 125.684 15.1985C125.405 15.1985 125.149 15.2514 124.9 15.3514C124.656 15.4514 124.442 15.5925 124.264 15.7808C124.085 15.969 123.943 16.1925 123.836 16.4513C123.735 16.7159 123.681 17.01 123.681 17.3335C123.681 17.4041 123.687 17.4923 123.693 17.5806C123.699 17.6747 123.711 17.7688 123.729 17.8629C123.747 17.957 123.764 18.0511 123.794 18.1393C123.818 18.2275 123.854 18.304 123.889 18.3746L126.249 15.2808Z" fill="#F6F6F6"/>
<path d="M93.6416 10.3167H103.841V5.35544H93.112C89.2969 5.35544 85.9462 7.33562 84.0408 10.3167C83.4158 11.296 82.947 12.3831 82.6692 13.5436C82.4782 14.3374 82.3784 15.1701 82.3784 16.0243C82.3784 16.8785 82.4782 17.7068 82.6692 18.5049C82.947 19.6654 83.4158 20.7525 84.0408 21.7318C85.9418 24.7129 89.2926 26.6931 93.1077 26.6931H97.2267C100.321 26.6931 102.917 24.5835 103.637 21.7318C103.768 21.2142 103.837 20.6749 103.837 20.1184C103.837 19.5618 103.768 19.0226 103.637 18.5049C103.62 18.4445 103.607 18.3841 103.59 18.3237C102.956 16.0933 101.172 14.3461 98.915 13.7593C98.3768 13.617 97.8126 13.5436 97.231 13.5436H93.6459C92.27 13.5436 91.1546 14.6567 91.1546 16.0243C91.1546 16.3953 91.237 16.7447 91.3802 17.0597C91.7709 17.9052 92.6259 18.4919 93.6199 18.5049C93.6285 18.5049 93.6372 18.5049 93.6459 18.5049C93.6546 18.5049 93.6633 18.5049 93.6719 18.5049H96.1199V16.9087C96.1199 16.8914 96.1242 16.8741 96.1286 16.8569C96.1676 16.7059 96.3022 16.5937 96.4671 16.5937C96.5496 16.5937 96.6277 16.6239 96.6885 16.6714L98.4637 18.1209L98.5071 18.1554L98.8413 18.4315L98.9281 18.5006L99.0539 18.6041L100.482 19.7689L100.486 19.7732C100.564 19.8379 100.612 19.9329 100.612 20.0407C100.612 20.1486 100.564 20.2435 100.486 20.3082L100.482 20.3125L98.7501 21.7318L98.4637 21.9648L98.4593 21.9691L96.6885 23.4187C96.6277 23.4661 96.5496 23.4963 96.4671 23.4963C96.3369 23.4963 96.224 23.4273 96.1633 23.3194C96.1416 23.2763 96.1242 23.2332 96.1199 23.1814V21.7275H93.5808C92.5131 21.7146 91.5148 21.4169 90.6641 20.8992C89.7179 20.3298 88.954 19.4928 88.4722 18.5006C88.1076 17.7499 87.9036 16.9087 87.9036 16.0199C87.9036 15.1312 88.1076 14.29 88.4722 13.5393C89.3967 11.6325 91.3672 10.3167 93.6416 10.3167Z" fill="#F6F6F6"/>
</g>
<defs>
<clipPath id="clip0">
<rect width="129" height="32" fill="white"/>
</clipPath>
</defs>
</svg>
