<svg width="312" height="77" viewBox="0 0 312 77" fill="none" xmlns="http://www.w3.org/2000/svg">
<g clip-path="url(#clip0)">
<path fill-rule="evenodd" clip-rule="evenodd" d="M67.7189 77H10.2577C4.59154 77 0 72.466 0 66.8708V10.1292C0 4.53404 4.59154 0 10.2577 0H67.7225C73.3886 0 77.9802 4.53404 77.9802 10.1292V66.8744C77.9765 72.466 73.385 77 67.7189 77Z" fill="white"/>
<path d="M60.0659 22.9596L57.6453 21.5804L25.6963 39.713V30.9879L49.9892 17.2143L42.0688 12.6982C40.1584 11.6084 37.8029 11.6084 35.8925 12.6982L17.8954 22.9596C15.985 24.0493 14.8091 26.0609 14.8091 28.2404V48.7596C14.8091 50.9391 15.985 52.9507 17.8954 54.0404L20.3522 55.441L52.3012 37.3513L52.341 46.0478L28.0482 59.825L35.8961 64.2983C37.8066 65.388 40.162 65.388 42.0725 64.2983L60.0695 54.0369C61.98 52.9471 63.1559 50.9356 63.1559 48.7561V28.2404C63.1523 26.0609 61.9763 24.0493 60.0659 22.9596Z" fill="#348F6C"/>
<path d="M90.9692 33.4705C90.9692 32.4129 91.1755 31.4232 91.5844 30.4978C91.9932 29.5724 92.5505 28.7614 93.2525 28.0682C93.9581 27.3751 94.7758 26.8249 95.713 26.4211C96.6502 26.0174 97.6525 25.8137 98.7235 25.8137H110.588V30.923H98.7235C98.3617 30.923 98.0288 30.9873 97.714 31.1195C97.4028 31.2517 97.1278 31.4304 96.8926 31.6626C96.6574 31.8948 96.4765 32.1628 96.3426 32.4736C96.2087 32.7845 96.1436 33.1132 96.1436 33.4705C96.1436 33.8278 96.2087 34.1601 96.3426 34.4781C96.4728 34.7925 96.6574 35.064 96.8926 35.2963C97.1278 35.5285 97.3992 35.7071 97.714 35.8393C98.0251 35.9715 98.3617 36.0359 98.7235 36.0359H103.898C104.969 36.0359 105.975 36.2359 106.919 36.6325C107.864 37.0291 108.685 37.5758 109.391 38.2689C110.093 38.9621 110.646 39.7767 111.048 40.7092C111.449 41.6418 111.652 42.635 111.652 43.6926C111.652 44.7502 111.449 45.7399 111.048 46.6653C110.646 47.5907 110.093 48.4017 109.391 49.0949C108.685 49.7916 107.864 50.3383 106.919 50.742C105.975 51.1457 104.969 51.3458 103.898 51.3458H92.413V46.2365H103.898C104.26 46.2365 104.593 46.1722 104.907 46.04C105.219 45.9114 105.494 45.7292 105.729 45.497C105.964 45.2647 106.145 44.9967 106.279 44.6859C106.409 44.3786 106.478 44.0463 106.478 43.6891C106.478 43.3318 106.413 42.9995 106.279 42.6922C106.145 42.3849 105.964 42.1134 105.729 41.8812C105.494 41.6489 105.222 41.4703 104.907 41.3381C104.596 41.2094 104.26 41.1416 103.898 41.1416H98.7235C97.6525 41.1416 96.6502 40.9415 95.713 40.5377C94.7758 40.134 93.9544 39.5838 93.2525 38.8906C92.5505 38.1975 91.9932 37.3828 91.5844 36.4503C91.1755 35.5178 90.9692 34.5281 90.9692 33.4705Z" fill="white"/>
<path d="M138.4 51.3464H133.497V39.2414C133.497 38.9091 133.431 38.5947 133.308 38.2981C133.182 38.0016 133.005 37.7407 132.777 37.5157C132.549 37.2906 132.284 37.1155 131.984 36.9904C131.684 36.8654 131.365 36.8046 131.029 36.8046C130.692 36.8046 130.374 36.869 130.081 36.9904C129.788 37.1155 129.527 37.2906 129.306 37.5157C129.082 37.7407 128.908 38.0016 128.782 38.2981C128.655 38.5947 128.594 38.9091 128.594 39.2414V51.3464H123.673V39.2414C123.673 38.9091 123.607 38.5947 123.484 38.2981C123.358 38.0016 123.181 37.7407 122.953 37.5157C122.725 37.2906 122.46 37.1155 122.16 36.9904C121.86 36.8654 121.541 36.8046 121.205 36.8046C120.868 36.8046 120.554 36.869 120.257 36.9904C119.964 37.1155 119.703 37.2906 119.483 37.5157C119.262 37.7407 119.084 38.0016 118.958 38.2981C118.831 38.5947 118.77 38.9091 118.77 39.2414V51.3464H113.849V32.2777H115.039L116.374 33.7391C117.058 33.1674 117.814 32.7279 118.636 32.4135C119.461 32.0991 120.315 31.9419 121.205 31.9419C122.106 31.9419 122.989 32.1062 123.846 32.4385C124.707 32.7708 125.46 33.3461 126.108 34.1643C126.408 33.7605 126.752 33.4175 127.135 33.1317C127.519 32.8458 127.928 32.6172 128.355 32.4385C128.782 32.2599 129.223 32.1348 129.679 32.0562C130.135 31.9812 130.587 31.9419 131.032 31.9419C132.053 31.9419 133.012 32.1313 133.905 32.51C134.803 32.8887 135.584 33.4104 136.25 34.0678C136.916 34.7252 137.444 35.5005 137.828 36.3902C138.211 37.2798 138.403 38.2302 138.403 39.2378V51.3464H138.4Z" fill="white"/>
<path d="M161 51.3463H159.81L157.899 48.7309C157.429 49.1454 156.933 49.5348 156.412 49.8957C155.887 50.2565 155.341 50.571 154.762 50.8389C154.183 51.1069 153.593 51.3177 152.985 51.4713C152.377 51.625 151.762 51.7036 151.136 51.7036C149.776 51.7036 148.498 51.4785 147.304 51.0283C146.11 50.5781 145.061 49.9207 144.167 49.0596C143.27 48.1985 142.564 47.1445 142.047 45.8976C141.529 44.6506 141.272 43.2322 141.272 41.6422C141.272 40.1595 141.529 38.7946 142.047 37.5548C142.564 36.315 143.27 35.2503 144.167 34.3571C145.061 33.4674 146.107 32.7778 147.304 32.2848C148.498 31.7917 149.776 31.5452 151.136 31.5452C151.759 31.5452 152.381 31.6238 152.992 31.7774C153.608 31.931 154.201 32.1454 154.776 32.417C155.352 32.6885 155.902 33.0101 156.426 33.3781C156.951 33.7461 157.439 34.1427 157.895 34.5714L159.806 32.3098H160.996V51.3463H161ZM156.039 41.6422C156.039 40.9777 155.909 40.3345 155.652 39.7093C155.391 39.0876 155.04 38.5338 154.595 38.055C154.15 37.5763 153.629 37.1904 153.036 36.8974C152.439 36.608 151.806 36.4615 151.133 36.4615C150.46 36.4615 149.826 36.5758 149.229 36.8009C148.636 37.026 148.118 37.3583 147.681 37.7978C147.239 38.2372 146.895 38.7803 146.642 39.427C146.389 40.0737 146.262 40.8133 146.262 41.6422C146.262 42.4747 146.389 43.2107 146.642 43.8574C146.895 44.5041 147.239 45.0472 147.681 45.4867C148.118 45.9262 148.636 46.2584 149.229 46.4835C149.826 46.7086 150.456 46.823 151.133 46.823C151.806 46.823 152.439 46.6765 153.036 46.3871C153.629 46.0977 154.15 45.7118 154.595 45.2294C155.04 44.7471 155.391 44.1969 155.652 43.5716C155.909 42.9499 156.039 42.3068 156.039 41.6422Z" fill="white"/>
<path d="M168.794 51.3463H163.873V32.2776H165.064L166.685 34.5392C167.477 33.8282 168.378 33.278 169.388 32.8921C170.397 32.5063 171.443 32.3133 172.525 32.3133H176.87V37.1546H172.525C172.007 37.1546 171.522 37.2511 171.066 37.4405C170.607 37.6298 170.213 37.8906 169.876 38.2229C169.539 38.5552 169.275 38.9482 169.084 39.3984C168.892 39.8486 168.794 40.3309 168.794 40.8419V51.3463Z" fill="white"/>
<path d="M190.779 51.3463C189.589 51.3463 188.471 51.1248 187.425 50.6782C186.379 50.2352 185.464 49.6242 184.675 48.8453C183.886 48.0664 183.267 47.1624 182.819 46.1299C182.367 45.0973 182.142 43.9933 182.142 42.8178V37.1547H179.743V32.3134H182.142V25.7571H187.045V32.3134H194.51V37.1547H187.045V42.8178C187.045 43.3287 187.143 43.8075 187.335 44.2505C187.526 44.6936 187.79 45.083 188.127 45.4153C188.464 45.7476 188.862 46.012 189.317 46.2085C189.773 46.405 190.262 46.5015 190.779 46.5015H194.51V51.3428H190.779V51.3463Z" fill="white"/>
<path d="M273.85 51.3463H272.66L270.749 48.731C270.279 49.1454 269.783 49.5349 269.262 49.8957C268.737 50.2566 268.191 50.571 267.612 50.839C267.033 51.1069 266.443 51.3178 265.835 51.4714C265.227 51.625 264.612 51.7036 263.986 51.7036C262.626 51.7036 261.349 51.4785 260.154 51.0284C258.96 50.5782 257.911 49.9207 257.017 49.0597C256.12 48.1986 255.414 47.1446 254.897 45.8976C254.379 44.6507 254.123 43.2322 254.123 41.6423C254.123 40.1595 254.379 38.7947 254.897 37.5549C255.414 36.3151 256.12 35.2503 257.017 34.3571C257.911 33.4674 258.957 32.7779 260.154 32.2848C261.349 31.7917 262.626 31.5452 263.986 31.5452C264.609 31.5452 265.231 31.6238 265.843 31.7775C266.458 31.9311 267.051 32.1455 267.626 32.417C268.202 32.6886 268.752 33.0101 269.276 33.3781C269.801 33.7461 270.29 34.1427 270.746 34.5715L272.656 32.3098H273.847V51.3463H273.85ZM268.889 41.6423C268.889 40.9777 268.759 40.3346 268.502 39.7093C268.242 39.0877 267.891 38.5338 267.446 38.0551C267 37.5763 266.479 37.1904 265.886 36.8974C265.289 36.608 264.656 36.4616 263.983 36.4616C263.31 36.4616 262.676 36.5759 262.079 36.801C261.486 37.0261 260.969 37.3584 260.531 37.7978C260.089 38.2373 259.746 38.7804 259.492 39.4271C259.239 40.0738 259.112 40.8134 259.112 41.6423C259.112 42.4748 259.239 43.2108 259.492 43.8575C259.746 44.5042 260.089 45.0473 260.531 45.4867C260.969 45.9262 261.486 46.2585 262.079 46.4836C262.676 46.7087 263.306 46.823 263.983 46.823C264.656 46.823 265.289 46.6765 265.886 46.3871C266.479 46.0977 267 45.7118 267.446 45.2295C267.891 44.7472 268.242 44.1969 268.502 43.5717C268.759 42.95 268.889 42.3069 268.889 41.6423Z" fill="white"/>
<path d="M287.758 51.3463C286.567 51.3463 285.449 51.1248 284.403 50.6781C283.358 50.2351 282.442 49.6241 281.653 48.8452C280.865 48.0663 280.246 47.1624 279.797 46.1298C279.345 45.0972 279.12 43.9932 279.12 42.8177V37.1546H276.721V32.3133H279.12V25.757H284.023V32.3133H291.488V37.1546H284.023V42.8177C284.023 43.3286 284.121 43.8074 284.313 44.2505C284.505 44.6935 284.769 45.083 285.105 45.4152C285.442 45.7475 285.84 46.0119 286.296 46.2084C286.752 46.4049 287.24 46.5014 287.758 46.5014H291.488V51.3427H287.758V51.3463Z" fill="white"/>
<path d="M302.83 46.7188C303.017 46.7754 303.218 46.8179 303.405 46.8321C303.592 46.8462 303.793 46.8604 303.98 46.8604C304.454 46.8604 304.914 46.7896 305.36 46.6622C305.805 46.5349 306.222 46.3509 306.61 46.1103C306.998 45.8697 307.343 45.5725 307.645 45.2328C307.947 44.879 308.191 44.4968 308.392 44.0723L311.986 47.6246C311.526 48.2615 311.008 48.8276 310.419 49.3371C309.83 49.8466 309.183 50.2712 308.493 50.625C307.803 50.9788 307.084 51.2477 306.323 51.4317C305.561 51.6157 304.785 51.7006 303.98 51.7006C302.629 51.7006 301.349 51.46 300.171 50.9647C298.978 50.4693 297.943 49.7758 297.052 48.8984C296.16 48.0209 295.456 46.9594 294.939 45.7423C294.421 44.5251 294.163 43.1806 294.163 41.7229C294.163 40.2227 294.421 38.864 294.939 37.6186C295.456 36.3873 296.16 35.3258 297.052 34.4625C297.943 33.585 298.978 32.9198 300.171 32.4245C301.364 31.9433 302.629 31.7027 303.98 31.7027C304.785 31.7027 305.561 31.8018 306.337 31.9857C307.099 32.1697 307.832 32.4386 308.522 32.7925C309.212 33.1463 309.859 33.585 310.448 34.0945C311.052 34.604 311.569 35.1843 312.029 35.8212L302.83 46.7188ZM305.345 36.7694C305.115 36.6845 304.9 36.6279 304.67 36.6137C304.454 36.5854 304.224 36.5713 303.98 36.5713C303.304 36.5713 302.686 36.6986 302.082 36.9392C301.493 37.1798 300.976 37.5195 300.544 37.9724C300.113 38.4253 299.768 38.9631 299.51 39.5858C299.265 40.2227 299.136 40.9303 299.136 41.7087C299.136 41.8786 299.15 42.0909 299.165 42.3032C299.179 42.5296 299.208 42.756 299.251 42.9825C299.294 43.2089 299.337 43.4354 299.409 43.6477C299.466 43.86 299.553 44.0439 299.639 44.2138L305.345 36.7694Z" fill="white"/>
<path d="M226.482 24.8245H251.151V12.8865H225.201C215.974 12.8865 207.87 17.6513 203.261 24.8245C201.75 27.1809 200.616 29.7969 199.944 32.5893C199.482 34.4994 199.241 36.5029 199.241 38.5583C199.241 40.6137 199.482 42.6069 199.944 44.5273C200.616 47.3198 201.75 49.9357 203.261 52.2922C207.859 59.4654 215.963 64.2302 225.191 64.2302H235.153C242.637 64.2302 248.915 59.1539 250.658 52.2922C250.973 51.0465 251.14 49.7489 251.14 48.4098C251.14 47.0706 250.973 45.773 250.658 44.5273C250.616 44.382 250.584 44.2367 250.542 44.0913C249.009 38.7244 244.695 34.5202 239.236 33.1084C237.935 32.7658 236.57 32.5893 235.163 32.5893H226.492C223.165 32.5893 220.467 35.2676 220.467 38.5583C220.467 39.4511 220.666 40.2919 221.013 41.0497C221.957 43.0844 224.025 44.4962 226.429 44.5273C226.45 44.5273 226.471 44.5273 226.492 44.5273C226.513 44.5273 226.534 44.5273 226.555 44.5273H232.476V40.6864C232.476 40.6449 232.486 40.6034 232.497 40.5618C232.591 40.1985 232.917 39.9286 233.316 39.9286C233.515 39.9286 233.704 40.0013 233.851 40.1155L238.145 43.6034L238.25 43.6865L239.058 44.3508L239.268 44.5169L239.572 44.7661L243.026 47.5689L243.036 47.5793C243.225 47.735 243.341 47.9634 243.341 48.2229C243.341 48.4824 243.225 48.7108 243.036 48.8665L243.026 48.8769L238.837 52.2922L238.145 52.8528L238.134 52.8631L233.851 56.3511C233.704 56.4653 233.515 56.538 233.316 56.538C233.001 56.538 232.728 56.3719 232.581 56.1124C232.528 56.0085 232.486 55.9047 232.476 55.7802V52.2818H226.335C223.752 52.2507 221.338 51.5344 219.28 50.2887C216.992 48.9184 215.144 46.9045 213.979 44.5169C213.097 42.7107 212.604 40.6864 212.604 38.5479C212.604 36.4095 213.097 34.3852 213.979 32.579C216.215 27.9906 220.981 24.8245 226.482 24.8245Z" fill="white"/>
</g>
<defs>
<clipPath id="clip0">
<rect width="312" height="77" fill="white"/>
</clipPath>
</defs>
</svg>
